%TF.GenerationSoftware,KiCad,Pcbnew,7.0.9*%
%TF.CreationDate,2024-04-18T13:08:03+02:00*%
%TF.ProjectId,Pendulo_Inverso,50656e64-756c-46f5-9f49-6e766572736f,rev?*%
%TF.SameCoordinates,Original*%
%TF.FileFunction,Copper,L2,Bot*%
%TF.FilePolarity,Positive*%
%FSLAX46Y46*%
G04 Gerber Fmt 4.6, Leading zero omitted, Abs format (unit mm)*
G04 Created by KiCad (PCBNEW 7.0.9) date 2024-04-18 13:08:03*
%MOMM*%
%LPD*%
G01*
G04 APERTURE LIST*
%TA.AperFunction,ComponentPad*%
%ADD10R,1.530000X1.530000*%
%TD*%
%TA.AperFunction,ComponentPad*%
%ADD11C,1.530000*%
%TD*%
%TA.AperFunction,ComponentPad*%
%ADD12O,2.000000X1.200000*%
%TD*%
%TA.AperFunction,ComponentPad*%
%ADD13R,2.600000X2.600000*%
%TD*%
%TA.AperFunction,ComponentPad*%
%ADD14C,2.600000*%
%TD*%
%TA.AperFunction,ComponentPad*%
%ADD15R,2.000000X1.905000*%
%TD*%
%TA.AperFunction,ComponentPad*%
%ADD16O,2.000000X1.905000*%
%TD*%
%TA.AperFunction,ComponentPad*%
%ADD17R,1.600000X1.600000*%
%TD*%
%TA.AperFunction,ComponentPad*%
%ADD18C,1.600000*%
%TD*%
%TA.AperFunction,Conductor*%
%ADD19C,0.250000*%
%TD*%
G04 APERTURE END LIST*
D10*
%TO.P,U2,1,3V3*%
%TO.N,VCC*%
X119380000Y-87710000D03*
D11*
%TO.P,U2,2,EN*%
%TO.N,unconnected-(U2-EN-Pad2)*%
X119380000Y-90250000D03*
%TO.P,U2,3,SENSOR_VP*%
%TO.N,unconnected-(U2-SENSOR_VP-Pad3)*%
X119380000Y-92790000D03*
%TO.P,U2,4,SENSOR_VN*%
%TO.N,unconnected-(U2-SENSOR_VN-Pad4)*%
X119380000Y-95330000D03*
%TO.P,U2,5,IO34*%
%TO.N,unconnected-(U2-IO34-Pad5)*%
X119380000Y-97870000D03*
%TO.P,U2,6,IO35*%
%TO.N,unconnected-(U2-IO35-Pad6)*%
X119380000Y-100410000D03*
%TO.P,U2,7,IO32*%
%TO.N,unconnected-(U2-IO32-Pad7)*%
X119380000Y-102950000D03*
%TO.P,U2,8,IO33*%
%TO.N,unconnected-(U2-IO33-Pad8)*%
X119380000Y-105490000D03*
%TO.P,U2,9,IO25*%
%TO.N,unconnected-(U2-IO25-Pad9)*%
X119380000Y-108030000D03*
%TO.P,U2,10,IO26*%
%TO.N,unconnected-(U2-IO26-Pad10)*%
X119380000Y-110570000D03*
%TO.P,U2,11,IO27*%
%TO.N,unconnected-(U2-IO27-Pad11)*%
X119380000Y-113110000D03*
%TO.P,U2,12,IO14*%
%TO.N,unconnected-(U2-IO14-Pad12)*%
X119380000Y-115650000D03*
%TO.P,U2,13,IO12*%
%TO.N,unconnected-(U2-IO12-Pad13)*%
X119380000Y-118190000D03*
%TO.P,U2,14,GND1*%
%TO.N,GND*%
X119380000Y-120730000D03*
%TO.P,U2,15,IO13*%
%TO.N,unconnected-(U2-IO13-Pad15)*%
X119380000Y-123270000D03*
%TO.P,U2,16,SD2*%
%TO.N,unconnected-(U2-SD2-Pad16)*%
X119380000Y-125810000D03*
%TO.P,U2,17,SD3*%
%TO.N,unconnected-(U2-SD3-Pad17)*%
X119380000Y-128350000D03*
%TO.P,U2,18,CMD*%
%TO.N,unconnected-(U2-CMD-Pad18)*%
X119380000Y-130890000D03*
%TO.P,U2,19,EXT_5V*%
%TO.N,Net-(U1-VO)*%
X119380000Y-133430000D03*
%TO.P,U2,20,CLK*%
%TO.N,unconnected-(U2-CLK-Pad20)*%
X144780000Y-133430000D03*
%TO.P,U2,21,SD0*%
%TO.N,unconnected-(U2-SD0-Pad21)*%
X144780000Y-130890000D03*
%TO.P,U2,22,SD1*%
%TO.N,unconnected-(U2-SD1-Pad22)*%
X144780000Y-128350000D03*
%TO.P,U2,23,IO15*%
%TO.N,unconnected-(U2-IO15-Pad23)*%
X144780000Y-125810000D03*
%TO.P,U2,24,IO2*%
%TO.N,AIN2*%
X144780000Y-123270000D03*
%TO.P,U2,25,IO0*%
%TO.N,AIN1*%
X144780000Y-120730000D03*
%TO.P,U2,26,IO4*%
%TO.N,BIN1*%
X144780000Y-118190000D03*
%TO.P,U2,27,IO16*%
%TO.N,BIN2*%
X144780000Y-115650000D03*
%TO.P,U2,28,IO17*%
%TO.N,PWMB*%
X144780000Y-113110000D03*
%TO.P,U2,29,IO5*%
%TO.N,unconnected-(U2-IO5-Pad29)*%
X144780000Y-110570000D03*
%TO.P,U2,30,IO18*%
%TO.N,unconnected-(U2-IO18-Pad30)*%
X144780000Y-108030000D03*
%TO.P,U2,31,IO19*%
%TO.N,unconnected-(U2-IO19-Pad31)*%
X144780000Y-105490000D03*
%TO.P,U2,32,GND2*%
%TO.N,GND*%
X144780000Y-102950000D03*
%TO.P,U2,33,IO21*%
%TO.N,Net-(U2-IO21)*%
X144780000Y-100410000D03*
%TO.P,U2,34,RXD0*%
%TO.N,unconnected-(U2-RXD0-Pad34)*%
X144780000Y-97870000D03*
%TO.P,U2,35,TXD0*%
%TO.N,unconnected-(U2-TXD0-Pad35)*%
X144780000Y-95330000D03*
%TO.P,U2,36,IO22*%
%TO.N,Net-(U2-IO22)*%
X144780000Y-92790000D03*
%TO.P,U2,37,IO23*%
%TO.N,unconnected-(U2-IO23-Pad37)*%
X144780000Y-90250000D03*
%TO.P,U2,38,GND3*%
%TO.N,GND*%
X144780000Y-87710000D03*
%TD*%
%TO.P,U4,1,VDD*%
%TO.N,VCC*%
X156273500Y-79946500D03*
%TO.P,U4,2,GND*%
%TO.N,GND*%
X156273500Y-82486500D03*
%TO.P,U4,3,SCL*%
%TO.N,Net-(U2-IO22)*%
X156273500Y-85026500D03*
%TO.P,U4,4,SDA*%
%TO.N,Net-(U2-IO21)*%
X156273500Y-87566500D03*
%TO.P,U4,5,AUX_DA*%
%TO.N,unconnected-(U4-AUX_DA-Pad5)*%
X156273500Y-90106500D03*
%TO.P,U4,6,AUX_CL*%
%TO.N,unconnected-(U4-AUX_CL-Pad6)*%
X156273500Y-92646500D03*
%TO.P,U4,7,AD0*%
%TO.N,unconnected-(U4-AD0-Pad7)*%
X156273500Y-95186500D03*
%TO.P,U4,8,INT*%
%TO.N,unconnected-(U4-INT-Pad8)*%
X156273500Y-97726500D03*
%TD*%
D12*
%TO.P,IC2,1,VM1*%
%TO.N,Net-(IC2-VM1)*%
X169990000Y-120410000D03*
%TO.P,IC2,2,VCC*%
%TO.N,VCC*%
X169990000Y-117870000D03*
%TO.P,IC2,3,GND*%
%TO.N,GND*%
X169990000Y-115330000D03*
%TO.P,IC2,4,AO1*%
%TO.N,AO1*%
X169990000Y-112790000D03*
%TO.P,IC2,5,AO2*%
%TO.N,AO2*%
X169990000Y-110250000D03*
%TO.P,IC2,6,BO1*%
%TO.N,BO1*%
X169990000Y-107710000D03*
%TO.P,IC2,7,BO2*%
%TO.N,BO2*%
X169990000Y-105170000D03*
%TO.P,IC2,8,GND*%
%TO.N,GND*%
X169990000Y-102630000D03*
%TO.P,IC2,9,GND*%
X154750000Y-102630000D03*
%TO.P,IC2,10,PWMB*%
%TO.N,PWMB*%
X154750000Y-105170000D03*
%TO.P,IC2,11,BIN2*%
%TO.N,BIN2*%
X154750000Y-107710000D03*
%TO.P,IC2,12,BIN1*%
%TO.N,BIN1*%
X154750000Y-110250000D03*
%TO.P,IC2,13,STBY*%
%TO.N,STBY*%
X154750000Y-112790000D03*
%TO.P,IC2,14,AIN2*%
%TO.N,AIN2*%
X154750000Y-115330000D03*
%TO.P,IC2,15,AIN1*%
%TO.N,AIN1*%
X154750000Y-117870000D03*
%TO.P,IC2,16,PWMA*%
%TO.N,PWMA*%
X154750000Y-120410000D03*
%TD*%
D13*
%TO.P,Pilas1,1*%
%TO.N,Net-(IC2-VM1)*%
X180340000Y-121840000D03*
D14*
%TO.P,Pilas1,2*%
%TO.N,GND*%
X180340000Y-116840000D03*
%TD*%
D15*
%TO.P,U1,1,VI*%
%TO.N,Net-(IC2-VM1)*%
X172720000Y-132080000D03*
D16*
%TO.P,U1,2,GND*%
%TO.N,GND*%
X172720000Y-129540000D03*
%TO.P,U1,3,VO*%
%TO.N,Net-(U1-VO)*%
X172720000Y-127000000D03*
%TD*%
D17*
%TO.P,C3,1*%
%TO.N,Net-(U1-VO)*%
X161600000Y-129540000D03*
D18*
%TO.P,C3,2*%
%TO.N,GND*%
X165100000Y-129540000D03*
%TD*%
D13*
%TO.P,Motor1,1*%
%TO.N,AO1*%
X180340000Y-109140000D03*
D14*
%TO.P,Motor1,2*%
%TO.N,AO2*%
X180340000Y-104140000D03*
%TD*%
D17*
%TO.P,C2,1*%
%TO.N,Net-(IC2-VM1)*%
X152400000Y-129540000D03*
D18*
%TO.P,C2,2*%
%TO.N,GND*%
X155900000Y-129540000D03*
%TD*%
D13*
%TO.P,Motor2,1*%
%TO.N,BO1*%
X180340000Y-96520000D03*
D14*
%TO.P,Motor2,2*%
%TO.N,BO2*%
X180340000Y-91520000D03*
%TD*%
D19*
%TO.N,AIN1*%
X153130000Y-117870000D02*
X154750000Y-117870000D01*
X150270000Y-120730000D02*
X153130000Y-117870000D01*
X144780000Y-120730000D02*
X150270000Y-120730000D01*
%TO.N,Net-(U1-VO)*%
X119380000Y-133430000D02*
X123110000Y-137160000D01*
X153980000Y-137160000D02*
X161600000Y-129540000D01*
X123110000Y-137160000D02*
X153980000Y-137160000D01*
%TD*%
%TA.AperFunction,Conductor*%
%TO.N,GND*%
G36*
X121863039Y-76220185D02*
G01*
X121908794Y-76272989D01*
X121920000Y-76324500D01*
X121920000Y-87630000D01*
X142240000Y-87630000D01*
X142240000Y-76324500D01*
X142259685Y-76257461D01*
X142312489Y-76211706D01*
X142364000Y-76200500D01*
X187835500Y-76200500D01*
X187902539Y-76220185D01*
X187948294Y-76272989D01*
X187959500Y-76324500D01*
X187959500Y-139575500D01*
X187939815Y-139642539D01*
X187887011Y-139688294D01*
X187835500Y-139699500D01*
X109344500Y-139699500D01*
X109277461Y-139679815D01*
X109231706Y-139627011D01*
X109220500Y-139575500D01*
X109220500Y-132147763D01*
X112445787Y-132147763D01*
X112475413Y-132417013D01*
X112475415Y-132417024D01*
X112543926Y-132679082D01*
X112543928Y-132679088D01*
X112649870Y-132928390D01*
X112779003Y-133139982D01*
X112790979Y-133159605D01*
X112790986Y-133159615D01*
X112964253Y-133367819D01*
X112964259Y-133367824D01*
X113033650Y-133429998D01*
X113165998Y-133548582D01*
X113391910Y-133698044D01*
X113637176Y-133813020D01*
X113637183Y-133813022D01*
X113637185Y-133813023D01*
X113896557Y-133891057D01*
X113896564Y-133891058D01*
X113896569Y-133891060D01*
X114164561Y-133930500D01*
X114164566Y-133930500D01*
X114367636Y-133930500D01*
X114419133Y-133926730D01*
X114570156Y-133915677D01*
X114682758Y-133890593D01*
X114834546Y-133856782D01*
X114834548Y-133856781D01*
X114834553Y-133856780D01*
X115087558Y-133760014D01*
X115323777Y-133627441D01*
X115538177Y-133461888D01*
X115568920Y-133430001D01*
X118109666Y-133430001D01*
X118128964Y-133650585D01*
X118128965Y-133650592D01*
X118186275Y-133864475D01*
X118186279Y-133864486D01*
X118217062Y-133930500D01*
X118279858Y-134065167D01*
X118406868Y-134246555D01*
X118563445Y-134403132D01*
X118744833Y-134530142D01*
X118865572Y-134586443D01*
X118945513Y-134623720D01*
X118945515Y-134623720D01*
X118945520Y-134623723D01*
X119159409Y-134681035D01*
X119316974Y-134694820D01*
X119379998Y-134700334D01*
X119380000Y-134700334D01*
X119380002Y-134700334D01*
X119435147Y-134695509D01*
X119600591Y-134681035D01*
X119646471Y-134668741D01*
X119716319Y-134670404D01*
X119766245Y-134700835D01*
X122609194Y-137543784D01*
X122619019Y-137556048D01*
X122619240Y-137555866D01*
X122624210Y-137561873D01*
X122624213Y-137561876D01*
X122624214Y-137561877D01*
X122674651Y-137609241D01*
X122695530Y-137630120D01*
X122701004Y-137634366D01*
X122705442Y-137638156D01*
X122739418Y-137670062D01*
X122739422Y-137670064D01*
X122756973Y-137679713D01*
X122773231Y-137690392D01*
X122789064Y-137702674D01*
X122811015Y-137712172D01*
X122831837Y-137721183D01*
X122837081Y-137723752D01*
X122877908Y-137746197D01*
X122897312Y-137751179D01*
X122915710Y-137757478D01*
X122934105Y-137765438D01*
X122980129Y-137772726D01*
X122985832Y-137773907D01*
X123030981Y-137785500D01*
X123051016Y-137785500D01*
X123070413Y-137787026D01*
X123090196Y-137790160D01*
X123136584Y-137785775D01*
X123142422Y-137785500D01*
X153897257Y-137785500D01*
X153912877Y-137787224D01*
X153912904Y-137786939D01*
X153920660Y-137787671D01*
X153920667Y-137787673D01*
X153989814Y-137785500D01*
X154019350Y-137785500D01*
X154026228Y-137784630D01*
X154032041Y-137784172D01*
X154078627Y-137782709D01*
X154097869Y-137777117D01*
X154116912Y-137773174D01*
X154136792Y-137770664D01*
X154180122Y-137753507D01*
X154185646Y-137751617D01*
X154189396Y-137750527D01*
X154230390Y-137738618D01*
X154247629Y-137728422D01*
X154265103Y-137719862D01*
X154283727Y-137712488D01*
X154283727Y-137712487D01*
X154283732Y-137712486D01*
X154321449Y-137685082D01*
X154326305Y-137681892D01*
X154366420Y-137658170D01*
X154380589Y-137643999D01*
X154395379Y-137631368D01*
X154411587Y-137619594D01*
X154441299Y-137583676D01*
X154445212Y-137579376D01*
X158944219Y-133080370D01*
X171219500Y-133080370D01*
X171219501Y-133080376D01*
X171225908Y-133139983D01*
X171276202Y-133274828D01*
X171276206Y-133274835D01*
X171362452Y-133390044D01*
X171362455Y-133390047D01*
X171477664Y-133476293D01*
X171477671Y-133476297D01*
X171612517Y-133526591D01*
X171612516Y-133526591D01*
X171619444Y-133527335D01*
X171672127Y-133533000D01*
X173767872Y-133532999D01*
X173827483Y-133526591D01*
X173962331Y-133476296D01*
X174077546Y-133390046D01*
X174163796Y-133274831D01*
X174214091Y-133139983D01*
X174220500Y-133080373D01*
X174220500Y-132147763D01*
X178485787Y-132147763D01*
X178515413Y-132417013D01*
X178515415Y-132417024D01*
X178583926Y-132679082D01*
X178583928Y-132679088D01*
X178689870Y-132928390D01*
X178819003Y-133139982D01*
X178830979Y-133159605D01*
X178830986Y-133159615D01*
X179004253Y-133367819D01*
X179004259Y-133367824D01*
X179073650Y-133429998D01*
X179205998Y-133548582D01*
X179431910Y-133698044D01*
X179677176Y-133813020D01*
X179677183Y-133813022D01*
X179677185Y-133813023D01*
X179936557Y-133891057D01*
X179936564Y-133891058D01*
X179936569Y-133891060D01*
X180204561Y-133930500D01*
X180204566Y-133930500D01*
X180407636Y-133930500D01*
X180459133Y-133926730D01*
X180610156Y-133915677D01*
X180722758Y-133890593D01*
X180874546Y-133856782D01*
X180874548Y-133856781D01*
X180874553Y-133856780D01*
X181127558Y-133760014D01*
X181363777Y-133627441D01*
X181578177Y-133461888D01*
X181766186Y-133266881D01*
X181923799Y-133046579D01*
X181997787Y-132902669D01*
X182047649Y-132805690D01*
X182047651Y-132805684D01*
X182047656Y-132805675D01*
X182135118Y-132549305D01*
X182184319Y-132282933D01*
X182194212Y-132012235D01*
X182164586Y-131742982D01*
X182096072Y-131480912D01*
X181990130Y-131231610D01*
X181849018Y-131000390D01*
X181759747Y-130893119D01*
X181675746Y-130792180D01*
X181675740Y-130792175D01*
X181474002Y-130611418D01*
X181248092Y-130461957D01*
X181217214Y-130447482D01*
X181002824Y-130346980D01*
X181002819Y-130346978D01*
X181002814Y-130346976D01*
X180743442Y-130268942D01*
X180743428Y-130268939D01*
X180627791Y-130251921D01*
X180475439Y-130229500D01*
X180272369Y-130229500D01*
X180272364Y-130229500D01*
X180069844Y-130244323D01*
X180069831Y-130244325D01*
X179805453Y-130303217D01*
X179805446Y-130303220D01*
X179552439Y-130399987D01*
X179316226Y-130532557D01*
X179101822Y-130698112D01*
X178913822Y-130893109D01*
X178913816Y-130893116D01*
X178756202Y-131113419D01*
X178756199Y-131113424D01*
X178632350Y-131354309D01*
X178632343Y-131354327D01*
X178544884Y-131610685D01*
X178544881Y-131610699D01*
X178495681Y-131877068D01*
X178495680Y-131877075D01*
X178485787Y-132147763D01*
X174220500Y-132147763D01*
X174220499Y-131079628D01*
X174214091Y-131020017D01*
X174206768Y-131000384D01*
X174163797Y-130885171D01*
X174163793Y-130885164D01*
X174077547Y-130769955D01*
X174077544Y-130769952D01*
X173962335Y-130683706D01*
X173962326Y-130683701D01*
X173931196Y-130672091D01*
X173875262Y-130630221D01*
X173850844Y-130564757D01*
X173865695Y-130496484D01*
X173876675Y-130479746D01*
X173987653Y-130337162D01*
X173987655Y-130337159D01*
X174102215Y-130125468D01*
X174102221Y-130125454D01*
X174180380Y-129897791D01*
X174198367Y-129790000D01*
X173214852Y-129790000D01*
X173263559Y-129652953D01*
X173273877Y-129502114D01*
X173243116Y-129354085D01*
X173209910Y-129290000D01*
X174198366Y-129290000D01*
X174198366Y-129289999D01*
X174180380Y-129182208D01*
X174102221Y-128954545D01*
X174102215Y-128954531D01*
X173987655Y-128742840D01*
X173987649Y-128742831D01*
X173839806Y-128552883D01*
X173839797Y-128552873D01*
X173662710Y-128389851D01*
X173662704Y-128389847D01*
X173638611Y-128374106D01*
X173593255Y-128320959D01*
X173583832Y-128251728D01*
X173613335Y-128188392D01*
X173638608Y-128166493D01*
X173663010Y-128150551D01*
X173840171Y-127987463D01*
X173988072Y-127797439D01*
X174102679Y-127585664D01*
X174180866Y-127357913D01*
X174220500Y-127120399D01*
X174220500Y-126879601D01*
X174180866Y-126642087D01*
X174102679Y-126414336D01*
X173988072Y-126202561D01*
X173840171Y-126012537D01*
X173663010Y-125849449D01*
X173461422Y-125717745D01*
X173461419Y-125717743D01*
X173461418Y-125717743D01*
X173240905Y-125621017D01*
X173007472Y-125561904D01*
X172863329Y-125549960D01*
X172827600Y-125547000D01*
X172612400Y-125547000D01*
X172579898Y-125549693D01*
X172432527Y-125561904D01*
X172199094Y-125621017D01*
X171978581Y-125717743D01*
X171978578Y-125717745D01*
X171776990Y-125849449D01*
X171599829Y-126012537D01*
X171556305Y-126068456D01*
X171451929Y-126202558D01*
X171337321Y-126414334D01*
X171337318Y-126414343D01*
X171259134Y-126642083D01*
X171219500Y-126879602D01*
X171219500Y-127120397D01*
X171259134Y-127357916D01*
X171337318Y-127585656D01*
X171337321Y-127585665D01*
X171451929Y-127797441D01*
X171495451Y-127853358D01*
X171599829Y-127987463D01*
X171724844Y-128102547D01*
X171776994Y-128150555D01*
X171801384Y-128166489D01*
X171846742Y-128219634D01*
X171856166Y-128288866D01*
X171826665Y-128352202D01*
X171801390Y-128374104D01*
X171777297Y-128389846D01*
X171777289Y-128389851D01*
X171600202Y-128552873D01*
X171600193Y-128552883D01*
X171452350Y-128742831D01*
X171452344Y-128742840D01*
X171337784Y-128954531D01*
X171337778Y-128954545D01*
X171259619Y-129182208D01*
X171241633Y-129289999D01*
X171241634Y-129290000D01*
X172225148Y-129290000D01*
X172176441Y-129427047D01*
X172166123Y-129577886D01*
X172196884Y-129725915D01*
X172230090Y-129790000D01*
X171241633Y-129790000D01*
X171259619Y-129897791D01*
X171337778Y-130125454D01*
X171337784Y-130125468D01*
X171452344Y-130337159D01*
X171452350Y-130337168D01*
X171563324Y-130479747D01*
X171588967Y-130544741D01*
X171575401Y-130613281D01*
X171526932Y-130663605D01*
X171508804Y-130672091D01*
X171477671Y-130683702D01*
X171477664Y-130683706D01*
X171362455Y-130769952D01*
X171362452Y-130769955D01*
X171276206Y-130885164D01*
X171276202Y-130885171D01*
X171225908Y-131020017D01*
X171219501Y-131079616D01*
X171219501Y-131079623D01*
X171219500Y-131079635D01*
X171219500Y-133080370D01*
X158944219Y-133080370D01*
X161147772Y-130876818D01*
X161209095Y-130843333D01*
X161235453Y-130840499D01*
X162447871Y-130840499D01*
X162447872Y-130840499D01*
X162507483Y-130834091D01*
X162642331Y-130783796D01*
X162757546Y-130697546D01*
X162843796Y-130582331D01*
X162894091Y-130447483D01*
X162900500Y-130387873D01*
X162900500Y-129540002D01*
X163795034Y-129540002D01*
X163814858Y-129766599D01*
X163814860Y-129766610D01*
X163873730Y-129986317D01*
X163873734Y-129986326D01*
X163969865Y-130192481D01*
X163969866Y-130192483D01*
X164020973Y-130265471D01*
X164020974Y-130265472D01*
X164702046Y-129584399D01*
X164714835Y-129665148D01*
X164772359Y-129778045D01*
X164861955Y-129867641D01*
X164974852Y-129925165D01*
X165055599Y-129937953D01*
X164374526Y-130619025D01*
X164374526Y-130619026D01*
X164447512Y-130670131D01*
X164447516Y-130670133D01*
X164653673Y-130766265D01*
X164653682Y-130766269D01*
X164873389Y-130825139D01*
X164873400Y-130825141D01*
X165099998Y-130844966D01*
X165100002Y-130844966D01*
X165326599Y-130825141D01*
X165326610Y-130825139D01*
X165546317Y-130766269D01*
X165546331Y-130766264D01*
X165752478Y-130670136D01*
X165825472Y-130619025D01*
X165144401Y-129937953D01*
X165225148Y-129925165D01*
X165338045Y-129867641D01*
X165427641Y-129778045D01*
X165485165Y-129665148D01*
X165497953Y-129584400D01*
X166179025Y-130265472D01*
X166230136Y-130192478D01*
X166326264Y-129986331D01*
X166326269Y-129986317D01*
X166385139Y-129766610D01*
X166385141Y-129766599D01*
X166404966Y-129540002D01*
X166404966Y-129539997D01*
X166385141Y-129313400D01*
X166385139Y-129313389D01*
X166326269Y-129093682D01*
X166326265Y-129093673D01*
X166230133Y-128887516D01*
X166230131Y-128887512D01*
X166179026Y-128814526D01*
X166179025Y-128814526D01*
X165497953Y-129495598D01*
X165485165Y-129414852D01*
X165427641Y-129301955D01*
X165338045Y-129212359D01*
X165225148Y-129154835D01*
X165144400Y-129142046D01*
X165825472Y-128460974D01*
X165825471Y-128460973D01*
X165752483Y-128409866D01*
X165752481Y-128409865D01*
X165546326Y-128313734D01*
X165546317Y-128313730D01*
X165326610Y-128254860D01*
X165326599Y-128254858D01*
X165100002Y-128235034D01*
X165099998Y-128235034D01*
X164873400Y-128254858D01*
X164873389Y-128254860D01*
X164653682Y-128313730D01*
X164653673Y-128313734D01*
X164447513Y-128409868D01*
X164374527Y-128460972D01*
X164374526Y-128460973D01*
X165055600Y-129142046D01*
X164974852Y-129154835D01*
X164861955Y-129212359D01*
X164772359Y-129301955D01*
X164714835Y-129414852D01*
X164702046Y-129495599D01*
X164020973Y-128814526D01*
X164020972Y-128814527D01*
X163969868Y-128887513D01*
X163873734Y-129093673D01*
X163873730Y-129093682D01*
X163814860Y-129313389D01*
X163814858Y-129313400D01*
X163795034Y-129539997D01*
X163795034Y-129540002D01*
X162900500Y-129540002D01*
X162900499Y-128692128D01*
X162894091Y-128632517D01*
X162870994Y-128570592D01*
X162843797Y-128497671D01*
X162843793Y-128497664D01*
X162757547Y-128382455D01*
X162757544Y-128382452D01*
X162642335Y-128296206D01*
X162642328Y-128296202D01*
X162507482Y-128245908D01*
X162507483Y-128245908D01*
X162447883Y-128239501D01*
X162447881Y-128239500D01*
X162447873Y-128239500D01*
X162447864Y-128239500D01*
X160752129Y-128239500D01*
X160752123Y-128239501D01*
X160692516Y-128245908D01*
X160557671Y-128296202D01*
X160557664Y-128296206D01*
X160442455Y-128382452D01*
X160442452Y-128382455D01*
X160356206Y-128497664D01*
X160356202Y-128497671D01*
X160305908Y-128632517D01*
X160299501Y-128692116D01*
X160299501Y-128692123D01*
X160299500Y-128692135D01*
X160299500Y-129904546D01*
X160279815Y-129971585D01*
X160263181Y-129992227D01*
X153757228Y-136498181D01*
X153695905Y-136531666D01*
X153669547Y-136534500D01*
X123420452Y-136534500D01*
X123353413Y-136514815D01*
X123332771Y-136498181D01*
X120650835Y-133816244D01*
X120617350Y-133754921D01*
X120618742Y-133696467D01*
X120631034Y-133650595D01*
X120631034Y-133650594D01*
X120631035Y-133650591D01*
X120650334Y-133430001D01*
X143509666Y-133430001D01*
X143528964Y-133650585D01*
X143528965Y-133650592D01*
X143586275Y-133864475D01*
X143586279Y-133864486D01*
X143617062Y-133930500D01*
X143679858Y-134065167D01*
X143806868Y-134246555D01*
X143963445Y-134403132D01*
X144144833Y-134530142D01*
X144265572Y-134586443D01*
X144345513Y-134623720D01*
X144345515Y-134623720D01*
X144345520Y-134623723D01*
X144559409Y-134681035D01*
X144716974Y-134694820D01*
X144779998Y-134700334D01*
X144780000Y-134700334D01*
X144780002Y-134700334D01*
X144835147Y-134695509D01*
X145000591Y-134681035D01*
X145214480Y-134623723D01*
X145415167Y-134530142D01*
X145596555Y-134403132D01*
X145753132Y-134246555D01*
X145880142Y-134065167D01*
X145973723Y-133864480D01*
X146031035Y-133650591D01*
X146050334Y-133430000D01*
X146031035Y-133209409D01*
X145973723Y-132995520D01*
X145880142Y-132794833D01*
X145753132Y-132613445D01*
X145596555Y-132456868D01*
X145415167Y-132329858D01*
X145291907Y-132272381D01*
X145239468Y-132226210D01*
X145220316Y-132159017D01*
X145240531Y-132092136D01*
X145291908Y-132047618D01*
X145415167Y-131990142D01*
X145596555Y-131863132D01*
X145753132Y-131706555D01*
X145880142Y-131525167D01*
X145973723Y-131324480D01*
X146031035Y-131110591D01*
X146050334Y-130890000D01*
X146049911Y-130885169D01*
X146041776Y-130792180D01*
X146031035Y-130669409D01*
X145973723Y-130455520D01*
X145969975Y-130447483D01*
X145942177Y-130387870D01*
X151099500Y-130387870D01*
X151099501Y-130387876D01*
X151105908Y-130447483D01*
X151156202Y-130582328D01*
X151156206Y-130582335D01*
X151242452Y-130697544D01*
X151242455Y-130697547D01*
X151357664Y-130783793D01*
X151357671Y-130783797D01*
X151492517Y-130834091D01*
X151492516Y-130834091D01*
X151499444Y-130834835D01*
X151552127Y-130840500D01*
X153247872Y-130840499D01*
X153307483Y-130834091D01*
X153442331Y-130783796D01*
X153557546Y-130697546D01*
X153643796Y-130582331D01*
X153694091Y-130447483D01*
X153700500Y-130387873D01*
X153700500Y-129540002D01*
X154595034Y-129540002D01*
X154614858Y-129766599D01*
X154614860Y-129766610D01*
X154673730Y-129986317D01*
X154673734Y-129986326D01*
X154769865Y-130192481D01*
X154769866Y-130192483D01*
X154820973Y-130265471D01*
X154820974Y-130265472D01*
X155502046Y-129584399D01*
X155514835Y-129665148D01*
X155572359Y-129778045D01*
X155661955Y-129867641D01*
X155774852Y-129925165D01*
X155855599Y-129937953D01*
X155174526Y-130619025D01*
X155174526Y-130619026D01*
X155247512Y-130670131D01*
X155247516Y-130670133D01*
X155453673Y-130766265D01*
X155453682Y-130766269D01*
X155673389Y-130825139D01*
X155673400Y-130825141D01*
X155899998Y-130844966D01*
X155900002Y-130844966D01*
X156126599Y-130825141D01*
X156126610Y-130825139D01*
X156346317Y-130766269D01*
X156346331Y-130766264D01*
X156552478Y-130670136D01*
X156625472Y-130619025D01*
X155944401Y-129937953D01*
X156025148Y-129925165D01*
X156138045Y-129867641D01*
X156227641Y-129778045D01*
X156285165Y-129665148D01*
X156297953Y-129584400D01*
X156979025Y-130265472D01*
X157030136Y-130192478D01*
X157126264Y-129986331D01*
X157126269Y-129986317D01*
X157185139Y-129766610D01*
X157185141Y-129766599D01*
X157204966Y-129540002D01*
X157204966Y-129539997D01*
X157185141Y-129313400D01*
X157185139Y-129313389D01*
X157126269Y-129093682D01*
X157126265Y-129093673D01*
X157030133Y-128887516D01*
X157030131Y-128887512D01*
X156979026Y-128814526D01*
X156979025Y-128814526D01*
X156297953Y-129495598D01*
X156285165Y-129414852D01*
X156227641Y-129301955D01*
X156138045Y-129212359D01*
X156025148Y-129154835D01*
X155944400Y-129142046D01*
X156625472Y-128460974D01*
X156625471Y-128460973D01*
X156552483Y-128409866D01*
X156552481Y-128409865D01*
X156346326Y-128313734D01*
X156346317Y-128313730D01*
X156126610Y-128254860D01*
X156126599Y-128254858D01*
X155900002Y-128235034D01*
X155899998Y-128235034D01*
X155673400Y-128254858D01*
X155673389Y-128254860D01*
X155453682Y-128313730D01*
X155453673Y-128313734D01*
X155247513Y-128409868D01*
X155174527Y-128460972D01*
X155174526Y-128460973D01*
X155855600Y-129142046D01*
X155774852Y-129154835D01*
X155661955Y-129212359D01*
X155572359Y-129301955D01*
X155514835Y-129414852D01*
X155502046Y-129495599D01*
X154820973Y-128814526D01*
X154820972Y-128814527D01*
X154769868Y-128887513D01*
X154673734Y-129093673D01*
X154673730Y-129093682D01*
X154614860Y-129313389D01*
X154614858Y-129313400D01*
X154595034Y-129539997D01*
X154595034Y-129540002D01*
X153700500Y-129540002D01*
X153700499Y-128692128D01*
X153694091Y-128632517D01*
X153670994Y-128570592D01*
X153643797Y-128497671D01*
X153643793Y-128497664D01*
X153557547Y-128382455D01*
X153557544Y-128382452D01*
X153442335Y-128296206D01*
X153442328Y-128296202D01*
X153307482Y-128245908D01*
X153307483Y-128245908D01*
X153247883Y-128239501D01*
X153247881Y-128239500D01*
X153247873Y-128239500D01*
X153247864Y-128239500D01*
X151552129Y-128239500D01*
X151552123Y-128239501D01*
X151492516Y-128245908D01*
X151357671Y-128296202D01*
X151357664Y-128296206D01*
X151242455Y-128382452D01*
X151242452Y-128382455D01*
X151156206Y-128497664D01*
X151156202Y-128497671D01*
X151105908Y-128632517D01*
X151099501Y-128692116D01*
X151099501Y-128692123D01*
X151099500Y-128692135D01*
X151099500Y-130387870D01*
X145942177Y-130387870D01*
X145923110Y-130346980D01*
X145880142Y-130254833D01*
X145753132Y-130073445D01*
X145596555Y-129916868D01*
X145415167Y-129789858D01*
X145365287Y-129766599D01*
X145291908Y-129732382D01*
X145239468Y-129686210D01*
X145220316Y-129619017D01*
X145240531Y-129552136D01*
X145291908Y-129507618D01*
X145415167Y-129450142D01*
X145596555Y-129323132D01*
X145753132Y-129166555D01*
X145880142Y-128985167D01*
X145973723Y-128784480D01*
X146031035Y-128570591D01*
X146050334Y-128350000D01*
X146031035Y-128129409D01*
X145973723Y-127915520D01*
X145880142Y-127714833D01*
X145753132Y-127533445D01*
X145596555Y-127376868D01*
X145415167Y-127249858D01*
X145291907Y-127192381D01*
X145239468Y-127146210D01*
X145220316Y-127079017D01*
X145240531Y-127012136D01*
X145291908Y-126967618D01*
X145415167Y-126910142D01*
X145596555Y-126783132D01*
X145753132Y-126626555D01*
X145880142Y-126445167D01*
X145973723Y-126244480D01*
X146031035Y-126030591D01*
X146050334Y-125810000D01*
X146031035Y-125589409D01*
X145973723Y-125375520D01*
X145880142Y-125174833D01*
X145753132Y-124993445D01*
X145596555Y-124836868D01*
X145415167Y-124709858D01*
X145291907Y-124652381D01*
X145239468Y-124606210D01*
X145220316Y-124539017D01*
X145240531Y-124472136D01*
X145291908Y-124427618D01*
X145415167Y-124370142D01*
X145596555Y-124243132D01*
X145753132Y-124086555D01*
X145880142Y-123905167D01*
X145973723Y-123704480D01*
X146031035Y-123490591D01*
X146050334Y-123270000D01*
X146043149Y-123187870D01*
X178539500Y-123187870D01*
X178539501Y-123187876D01*
X178545908Y-123247483D01*
X178596202Y-123382328D01*
X178596206Y-123382335D01*
X178682452Y-123497544D01*
X178682455Y-123497547D01*
X178797664Y-123583793D01*
X178797671Y-123583797D01*
X178932517Y-123634091D01*
X178932516Y-123634091D01*
X178939444Y-123634835D01*
X178992127Y-123640500D01*
X181687872Y-123640499D01*
X181747483Y-123634091D01*
X181882331Y-123583796D01*
X181997546Y-123497546D01*
X182083796Y-123382331D01*
X182134091Y-123247483D01*
X182140500Y-123187873D01*
X182140499Y-120492128D01*
X182134091Y-120432517D01*
X182113178Y-120376447D01*
X182083797Y-120297671D01*
X182083793Y-120297664D01*
X181997547Y-120182455D01*
X181997544Y-120182452D01*
X181882335Y-120096206D01*
X181882328Y-120096202D01*
X181747482Y-120045908D01*
X181747483Y-120045908D01*
X181687883Y-120039501D01*
X181687881Y-120039500D01*
X181687873Y-120039500D01*
X181687864Y-120039500D01*
X178992129Y-120039500D01*
X178992123Y-120039501D01*
X178932516Y-120045908D01*
X178797671Y-120096202D01*
X178797664Y-120096206D01*
X178682455Y-120182452D01*
X178682452Y-120182455D01*
X178596206Y-120297664D01*
X178596202Y-120297671D01*
X178545908Y-120432517D01*
X178542674Y-120462602D01*
X178539501Y-120492123D01*
X178539500Y-120492135D01*
X178539500Y-123187870D01*
X146043149Y-123187870D01*
X146031035Y-123049409D01*
X145973723Y-122835520D01*
X145880142Y-122634833D01*
X145753132Y-122453445D01*
X145596555Y-122296868D01*
X145415167Y-122169858D01*
X145291907Y-122112381D01*
X145239468Y-122066210D01*
X145220316Y-121999017D01*
X145240531Y-121932136D01*
X145291908Y-121887618D01*
X145292500Y-121887342D01*
X145415167Y-121830142D01*
X145596555Y-121703132D01*
X145753132Y-121546555D01*
X145849887Y-121408374D01*
X145904463Y-121364751D01*
X145951461Y-121355500D01*
X150187257Y-121355500D01*
X150202877Y-121357224D01*
X150202904Y-121356939D01*
X150210660Y-121357671D01*
X150210667Y-121357673D01*
X150279814Y-121355500D01*
X150309350Y-121355500D01*
X150316228Y-121354630D01*
X150322041Y-121354172D01*
X150368627Y-121352709D01*
X150387869Y-121347117D01*
X150406912Y-121343174D01*
X150426792Y-121340664D01*
X150470122Y-121323507D01*
X150475646Y-121321617D01*
X150479396Y-121320527D01*
X150520390Y-121308618D01*
X150537629Y-121298422D01*
X150555103Y-121289862D01*
X150573727Y-121282488D01*
X150573727Y-121282487D01*
X150573732Y-121282486D01*
X150611449Y-121255082D01*
X150616305Y-121251892D01*
X150656420Y-121228170D01*
X150670589Y-121213999D01*
X150685379Y-121201368D01*
X150701587Y-121189594D01*
X150731299Y-121153676D01*
X150735212Y-121149376D01*
X151527187Y-120357401D01*
X153245746Y-120357401D01*
X153255745Y-120567327D01*
X153305296Y-120771578D01*
X153305298Y-120771582D01*
X153392598Y-120962743D01*
X153392601Y-120962748D01*
X153392602Y-120962750D01*
X153392604Y-120962753D01*
X153455627Y-121051256D01*
X153514515Y-121133953D01*
X153514520Y-121133959D01*
X153666620Y-121278985D01*
X153788362Y-121357224D01*
X153843428Y-121392613D01*
X154038543Y-121470725D01*
X154141729Y-121490612D01*
X154244914Y-121510500D01*
X154244915Y-121510500D01*
X155202419Y-121510500D01*
X155202425Y-121510500D01*
X155359218Y-121495528D01*
X155560875Y-121436316D01*
X155747682Y-121340011D01*
X155912886Y-121210092D01*
X156050519Y-121051256D01*
X156108686Y-120950509D01*
X156155601Y-120869249D01*
X156155600Y-120869249D01*
X156155604Y-120869244D01*
X156224344Y-120670633D01*
X156254254Y-120462602D01*
X156249243Y-120357401D01*
X168485746Y-120357401D01*
X168495745Y-120567327D01*
X168545296Y-120771578D01*
X168545298Y-120771582D01*
X168632598Y-120962743D01*
X168632601Y-120962748D01*
X168632602Y-120962750D01*
X168632604Y-120962753D01*
X168695627Y-121051256D01*
X168754515Y-121133953D01*
X168754520Y-121133959D01*
X168906620Y-121278985D01*
X169028362Y-121357224D01*
X169083428Y-121392613D01*
X169278543Y-121470725D01*
X169381729Y-121490612D01*
X169484914Y-121510500D01*
X169484915Y-121510500D01*
X170442419Y-121510500D01*
X170442425Y-121510500D01*
X170599218Y-121495528D01*
X170800875Y-121436316D01*
X170987682Y-121340011D01*
X171152886Y-121210092D01*
X171290519Y-121051256D01*
X171348686Y-120950509D01*
X171395601Y-120869249D01*
X171395600Y-120869249D01*
X171395604Y-120869244D01*
X171464344Y-120670633D01*
X171494254Y-120462602D01*
X171484254Y-120252670D01*
X171434704Y-120048424D01*
X171434701Y-120048417D01*
X171347401Y-119857256D01*
X171347398Y-119857251D01*
X171347397Y-119857250D01*
X171347396Y-119857247D01*
X171225486Y-119686048D01*
X171225484Y-119686046D01*
X171225479Y-119686040D01*
X171073379Y-119541014D01*
X170896574Y-119427388D01*
X170701455Y-119349274D01*
X170495086Y-119309500D01*
X170495085Y-119309500D01*
X169537575Y-119309500D01*
X169380782Y-119324472D01*
X169380778Y-119324473D01*
X169179127Y-119383683D01*
X168992313Y-119479991D01*
X168827116Y-119609905D01*
X168827112Y-119609909D01*
X168689478Y-119768746D01*
X168584398Y-119950750D01*
X168515656Y-120149365D01*
X168515656Y-120149367D01*
X168494334Y-120297671D01*
X168485746Y-120357401D01*
X156249243Y-120357401D01*
X156244254Y-120252670D01*
X156194704Y-120048424D01*
X156194701Y-120048417D01*
X156107401Y-119857256D01*
X156107398Y-119857251D01*
X156107397Y-119857250D01*
X156107396Y-119857247D01*
X155985486Y-119686048D01*
X155985484Y-119686046D01*
X155985479Y-119686040D01*
X155833379Y-119541014D01*
X155656574Y-119427388D01*
X155461455Y-119349274D01*
X155255086Y-119309500D01*
X155255085Y-119309500D01*
X154297575Y-119309500D01*
X154140782Y-119324472D01*
X154140778Y-119324473D01*
X153939127Y-119383683D01*
X153752313Y-119479991D01*
X153587116Y-119609905D01*
X153587112Y-119609909D01*
X153449478Y-119768746D01*
X153344398Y-119950750D01*
X153275656Y-120149365D01*
X153275656Y-120149367D01*
X153254334Y-120297671D01*
X153245746Y-120357401D01*
X151527187Y-120357401D01*
X153317744Y-118566845D01*
X153379065Y-118533362D01*
X153448757Y-118538346D01*
X153504690Y-118580218D01*
X153506429Y-118582599D01*
X153514511Y-118593949D01*
X153514520Y-118593959D01*
X153666620Y-118738985D01*
X153761578Y-118800011D01*
X153843428Y-118852613D01*
X154038543Y-118930725D01*
X154141729Y-118950612D01*
X154244914Y-118970500D01*
X154244915Y-118970500D01*
X155202419Y-118970500D01*
X155202425Y-118970500D01*
X155359218Y-118955528D01*
X155560875Y-118896316D01*
X155747682Y-118800011D01*
X155912886Y-118670092D01*
X156050519Y-118511256D01*
X156155604Y-118329244D01*
X156224344Y-118130633D01*
X156254254Y-117922602D01*
X156249243Y-117817401D01*
X168485746Y-117817401D01*
X168495745Y-118027327D01*
X168545296Y-118231578D01*
X168545298Y-118231582D01*
X168632598Y-118422743D01*
X168632601Y-118422748D01*
X168632602Y-118422750D01*
X168632604Y-118422753D01*
X168735213Y-118566847D01*
X168754515Y-118593953D01*
X168754520Y-118593959D01*
X168906620Y-118738985D01*
X169001578Y-118800011D01*
X169083428Y-118852613D01*
X169278543Y-118930725D01*
X169381729Y-118950612D01*
X169484914Y-118970500D01*
X169484915Y-118970500D01*
X170442419Y-118970500D01*
X170442425Y-118970500D01*
X170599218Y-118955528D01*
X170800875Y-118896316D01*
X170987682Y-118800011D01*
X171152886Y-118670092D01*
X171290519Y-118511256D01*
X171395604Y-118329244D01*
X171464344Y-118130633D01*
X171494254Y-117922602D01*
X171484254Y-117712670D01*
X171434704Y-117508424D01*
X171426290Y-117490000D01*
X171347401Y-117317256D01*
X171347398Y-117317251D01*
X171347397Y-117317250D01*
X171347396Y-117317247D01*
X171225486Y-117146048D01*
X171225484Y-117146046D01*
X171225479Y-117146040D01*
X171073379Y-117001014D01*
X170896574Y-116887388D01*
X170880962Y-116881138D01*
X170778214Y-116840004D01*
X178534953Y-116840004D01*
X178555113Y-117109026D01*
X178555113Y-117109028D01*
X178615142Y-117372033D01*
X178615148Y-117372052D01*
X178713709Y-117623181D01*
X178713708Y-117623181D01*
X178848602Y-117856822D01*
X178902294Y-117924151D01*
X179737452Y-117088992D01*
X179747188Y-117118956D01*
X179835186Y-117257619D01*
X179954903Y-117370040D01*
X180089510Y-117444041D01*
X179254848Y-118278702D01*
X179437483Y-118403220D01*
X179437485Y-118403221D01*
X179680539Y-118520269D01*
X179680537Y-118520269D01*
X179938337Y-118599790D01*
X179938343Y-118599792D01*
X180205101Y-118639999D01*
X180205110Y-118640000D01*
X180474890Y-118640000D01*
X180474898Y-118639999D01*
X180741656Y-118599792D01*
X180741662Y-118599790D01*
X180999461Y-118520269D01*
X181242521Y-118403218D01*
X181425150Y-118278702D01*
X180587534Y-117441086D01*
X180655629Y-117414126D01*
X180788492Y-117317595D01*
X180893175Y-117191055D01*
X180941631Y-117088079D01*
X181777703Y-117924151D01*
X181777704Y-117924150D01*
X181831393Y-117856828D01*
X181831400Y-117856817D01*
X181966290Y-117623181D01*
X182064851Y-117372052D01*
X182064857Y-117372033D01*
X182124886Y-117109028D01*
X182124886Y-117109026D01*
X182145047Y-116840004D01*
X182145047Y-116839995D01*
X182124886Y-116570973D01*
X182124886Y-116570971D01*
X182064857Y-116307966D01*
X182064851Y-116307947D01*
X181966290Y-116056818D01*
X181966291Y-116056818D01*
X181831397Y-115823177D01*
X181777704Y-115755847D01*
X180942546Y-116591004D01*
X180932812Y-116561044D01*
X180844814Y-116422381D01*
X180725097Y-116309960D01*
X180590489Y-116235958D01*
X181425150Y-115401296D01*
X181242517Y-115276779D01*
X181242516Y-115276778D01*
X180999460Y-115159730D01*
X180999462Y-115159730D01*
X180741662Y-115080209D01*
X180741656Y-115080207D01*
X180474898Y-115040000D01*
X180205101Y-115040000D01*
X179938343Y-115080207D01*
X179938337Y-115080209D01*
X179680538Y-115159730D01*
X179437485Y-115276778D01*
X179437476Y-115276783D01*
X179254848Y-115401296D01*
X180092465Y-116238913D01*
X180024371Y-116265874D01*
X179891508Y-116362405D01*
X179786825Y-116488945D01*
X179738368Y-116591921D01*
X178902295Y-115755848D01*
X178848600Y-115823180D01*
X178713709Y-116056818D01*
X178615148Y-116307947D01*
X178615142Y-116307966D01*
X178555113Y-116570971D01*
X178555113Y-116570973D01*
X178534953Y-116839995D01*
X178534953Y-116840004D01*
X170778214Y-116840004D01*
X170701457Y-116809275D01*
X170701455Y-116809274D01*
X170495086Y-116769500D01*
X170495085Y-116769500D01*
X169537575Y-116769500D01*
X169380782Y-116784472D01*
X169380778Y-116784473D01*
X169179127Y-116843683D01*
X168992313Y-116939991D01*
X168827116Y-117069905D01*
X168827112Y-117069909D01*
X168689478Y-117228746D01*
X168584398Y-117410750D01*
X168515656Y-117609365D01*
X168515656Y-117609367D01*
X168500804Y-117712670D01*
X168485746Y-117817401D01*
X156249243Y-117817401D01*
X156244254Y-117712670D01*
X156194704Y-117508424D01*
X156186290Y-117490000D01*
X156107401Y-117317256D01*
X156107398Y-117317251D01*
X156107397Y-117317250D01*
X156107396Y-117317247D01*
X155985486Y-117146048D01*
X155985484Y-117146046D01*
X155985479Y-117146040D01*
X155833379Y-117001014D01*
X155656574Y-116887388D01*
X155640962Y-116881138D01*
X155461457Y-116809275D01*
X155461455Y-116809274D01*
X155255086Y-116769500D01*
X155255085Y-116769500D01*
X154297575Y-116769500D01*
X154140782Y-116784472D01*
X154140778Y-116784473D01*
X153939127Y-116843683D01*
X153752313Y-116939991D01*
X153587116Y-117069905D01*
X153587112Y-117069909D01*
X153472912Y-117201703D01*
X153414133Y-117239477D01*
X153379199Y-117244500D01*
X153212743Y-117244500D01*
X153197122Y-117242775D01*
X153197096Y-117243061D01*
X153189334Y-117242327D01*
X153189333Y-117242327D01*
X153120186Y-117244500D01*
X153090649Y-117244500D01*
X153083766Y-117245369D01*
X153077949Y-117245826D01*
X153031373Y-117247290D01*
X153012129Y-117252881D01*
X152993079Y-117256825D01*
X152973211Y-117259334D01*
X152929884Y-117276488D01*
X152924358Y-117278379D01*
X152879614Y-117291379D01*
X152879610Y-117291381D01*
X152862366Y-117301579D01*
X152844905Y-117310133D01*
X152826274Y-117317510D01*
X152826262Y-117317517D01*
X152788570Y-117344902D01*
X152783687Y-117348109D01*
X152743580Y-117371829D01*
X152729414Y-117385995D01*
X152714624Y-117398627D01*
X152698414Y-117410404D01*
X152698411Y-117410407D01*
X152668710Y-117446309D01*
X152664777Y-117450631D01*
X150047228Y-120068181D01*
X149985905Y-120101666D01*
X149959547Y-120104500D01*
X145951461Y-120104500D01*
X145884422Y-120084815D01*
X145849887Y-120051625D01*
X145753132Y-119913445D01*
X145596555Y-119756868D01*
X145415167Y-119629858D01*
X145291907Y-119572381D01*
X145239468Y-119526210D01*
X145220316Y-119459017D01*
X145240531Y-119392136D01*
X145291908Y-119347618D01*
X145415167Y-119290142D01*
X145596555Y-119163132D01*
X145753132Y-119006555D01*
X145880142Y-118825167D01*
X145973723Y-118624480D01*
X146031035Y-118410591D01*
X146050334Y-118190000D01*
X146031035Y-117969409D01*
X145973723Y-117755520D01*
X145880142Y-117554833D01*
X145753132Y-117373445D01*
X145596555Y-117216868D01*
X145415167Y-117089858D01*
X145291907Y-117032381D01*
X145239468Y-116986210D01*
X145220316Y-116919017D01*
X145240531Y-116852136D01*
X145291908Y-116807618D01*
X145415167Y-116750142D01*
X145596555Y-116623132D01*
X145753132Y-116466555D01*
X145880142Y-116285167D01*
X145973723Y-116084480D01*
X146031035Y-115870591D01*
X146050334Y-115650000D01*
X146031035Y-115429409D01*
X145990304Y-115277401D01*
X153245746Y-115277401D01*
X153255745Y-115487327D01*
X153305296Y-115691578D01*
X153305298Y-115691582D01*
X153392598Y-115882743D01*
X153392601Y-115882748D01*
X153392602Y-115882750D01*
X153392604Y-115882753D01*
X153455627Y-115971256D01*
X153514515Y-116053953D01*
X153514520Y-116053959D01*
X153666620Y-116198985D01*
X153761578Y-116260011D01*
X153843428Y-116312613D01*
X154038543Y-116390725D01*
X154141729Y-116410612D01*
X154244914Y-116430500D01*
X154244915Y-116430500D01*
X155202419Y-116430500D01*
X155202425Y-116430500D01*
X155359218Y-116415528D01*
X155560875Y-116356316D01*
X155747682Y-116260011D01*
X155748223Y-116259586D01*
X155912883Y-116130094D01*
X155912886Y-116130092D01*
X156050519Y-115971256D01*
X156155604Y-115789244D01*
X156224344Y-115590633D01*
X156254254Y-115382602D01*
X156244254Y-115172670D01*
X156221772Y-115080000D01*
X168514632Y-115080000D01*
X169674314Y-115080000D01*
X169662359Y-115091955D01*
X169604835Y-115204852D01*
X169585014Y-115330000D01*
X169604835Y-115455148D01*
X169662359Y-115568045D01*
X169674314Y-115580000D01*
X168518742Y-115580000D01*
X168545770Y-115691409D01*
X168633040Y-115882507D01*
X168754889Y-116053619D01*
X168754895Y-116053625D01*
X168906932Y-116198592D01*
X169083657Y-116312166D01*
X169278685Y-116390244D01*
X169484962Y-116430000D01*
X169740000Y-116430000D01*
X169740000Y-115645686D01*
X169751955Y-115657641D01*
X169864852Y-115715165D01*
X169958519Y-115730000D01*
X170021481Y-115730000D01*
X170115148Y-115715165D01*
X170228045Y-115657641D01*
X170240000Y-115645686D01*
X170240000Y-116430000D01*
X170442398Y-116430000D01*
X170599122Y-116415034D01*
X170599126Y-116415033D01*
X170800686Y-116355850D01*
X170987414Y-116259586D01*
X171152537Y-116129731D01*
X171152540Y-116129728D01*
X171290105Y-115970969D01*
X171290114Y-115970958D01*
X171395144Y-115789039D01*
X171395147Y-115789032D01*
X171463855Y-115590517D01*
X171463855Y-115590515D01*
X171465368Y-115580000D01*
X170305686Y-115580000D01*
X170317641Y-115568045D01*
X170375165Y-115455148D01*
X170394986Y-115330000D01*
X170375165Y-115204852D01*
X170317641Y-115091955D01*
X170305686Y-115080000D01*
X171461257Y-115080000D01*
X171434229Y-114968590D01*
X171346959Y-114777492D01*
X171225110Y-114606380D01*
X171225104Y-114606374D01*
X171073067Y-114461407D01*
X170896342Y-114347833D01*
X170701314Y-114269755D01*
X170495038Y-114230000D01*
X170240000Y-114230000D01*
X170240000Y-115014314D01*
X170228045Y-115002359D01*
X170115148Y-114944835D01*
X170021481Y-114930000D01*
X169958519Y-114930000D01*
X169864852Y-114944835D01*
X169751955Y-115002359D01*
X169740000Y-115014314D01*
X169740000Y-114230000D01*
X169537602Y-114230000D01*
X169380877Y-114244965D01*
X169380873Y-114244966D01*
X169179313Y-114304149D01*
X168992585Y-114400413D01*
X168827462Y-114530268D01*
X168827459Y-114530271D01*
X168689894Y-114689030D01*
X168689885Y-114689041D01*
X168584855Y-114870960D01*
X168584852Y-114870967D01*
X168516144Y-115069482D01*
X168516144Y-115069484D01*
X168514632Y-115080000D01*
X156221772Y-115080000D01*
X156194704Y-114968424D01*
X156183931Y-114944835D01*
X156107401Y-114777256D01*
X156107398Y-114777251D01*
X156107397Y-114777250D01*
X156107396Y-114777247D01*
X155985486Y-114606048D01*
X155985484Y-114606046D01*
X155985479Y-114606040D01*
X155833379Y-114461014D01*
X155656574Y-114347388D01*
X155461455Y-114269274D01*
X155255086Y-114229500D01*
X155255085Y-114229500D01*
X154297575Y-114229500D01*
X154140782Y-114244472D01*
X154140778Y-114244473D01*
X153939127Y-114303683D01*
X153752313Y-114399991D01*
X153587116Y-114529905D01*
X153587112Y-114529909D01*
X153449478Y-114688746D01*
X153344398Y-114870750D01*
X153275656Y-115069365D01*
X153275656Y-115069367D01*
X153245835Y-115276783D01*
X153245746Y-115277401D01*
X145990304Y-115277401D01*
X145973723Y-115215520D01*
X145968748Y-115204852D01*
X145910626Y-115080207D01*
X145880142Y-115014833D01*
X145753132Y-114833445D01*
X145596555Y-114676868D01*
X145415167Y-114549858D01*
X145291907Y-114492381D01*
X145239468Y-114446210D01*
X145220316Y-114379017D01*
X145240531Y-114312136D01*
X145291908Y-114267618D01*
X145415167Y-114210142D01*
X145596555Y-114083132D01*
X145753132Y-113926555D01*
X145880142Y-113745167D01*
X145973723Y-113544480D01*
X146031035Y-113330591D01*
X146050334Y-113110000D01*
X146031035Y-112889409D01*
X145990304Y-112737401D01*
X153245746Y-112737401D01*
X153255745Y-112947327D01*
X153305296Y-113151578D01*
X153305298Y-113151582D01*
X153392598Y-113342743D01*
X153392601Y-113342748D01*
X153392602Y-113342750D01*
X153392604Y-113342753D01*
X153455627Y-113431256D01*
X153514515Y-113513953D01*
X153514520Y-113513959D01*
X153666620Y-113658985D01*
X153761578Y-113720011D01*
X153843428Y-113772613D01*
X154038543Y-113850725D01*
X154141729Y-113870612D01*
X154244914Y-113890500D01*
X154244915Y-113890500D01*
X155202419Y-113890500D01*
X155202425Y-113890500D01*
X155359218Y-113875528D01*
X155560875Y-113816316D01*
X155747682Y-113720011D01*
X155912886Y-113590092D01*
X156050519Y-113431256D01*
X156155604Y-113249244D01*
X156224344Y-113050633D01*
X156254254Y-112842602D01*
X156249243Y-112737401D01*
X168485746Y-112737401D01*
X168495745Y-112947327D01*
X168545296Y-113151578D01*
X168545298Y-113151582D01*
X168632598Y-113342743D01*
X168632601Y-113342748D01*
X168632602Y-113342750D01*
X168632604Y-113342753D01*
X168695627Y-113431256D01*
X168754515Y-113513953D01*
X168754520Y-113513959D01*
X168906620Y-113658985D01*
X169001578Y-113720011D01*
X169083428Y-113772613D01*
X169278543Y-113850725D01*
X169381729Y-113870612D01*
X169484914Y-113890500D01*
X169484915Y-113890500D01*
X170442419Y-113890500D01*
X170442425Y-113890500D01*
X170599218Y-113875528D01*
X170800875Y-113816316D01*
X170987682Y-113720011D01*
X171152886Y-113590092D01*
X171290519Y-113431256D01*
X171395604Y-113249244D01*
X171464344Y-113050633D01*
X171494254Y-112842602D01*
X171484254Y-112632670D01*
X171434704Y-112428424D01*
X171434701Y-112428417D01*
X171347401Y-112237256D01*
X171347398Y-112237251D01*
X171347397Y-112237250D01*
X171347396Y-112237247D01*
X171225486Y-112066048D01*
X171225484Y-112066046D01*
X171225479Y-112066040D01*
X171073379Y-111921014D01*
X170896574Y-111807388D01*
X170701455Y-111729274D01*
X170495086Y-111689500D01*
X170495085Y-111689500D01*
X169537575Y-111689500D01*
X169380782Y-111704472D01*
X169380778Y-111704473D01*
X169179127Y-111763683D01*
X168992313Y-111859991D01*
X168827116Y-111989905D01*
X168827112Y-111989909D01*
X168689478Y-112148746D01*
X168584398Y-112330750D01*
X168515656Y-112529365D01*
X168515656Y-112529367D01*
X168500804Y-112632670D01*
X168485746Y-112737401D01*
X156249243Y-112737401D01*
X156244254Y-112632670D01*
X156194704Y-112428424D01*
X156194701Y-112428417D01*
X156107401Y-112237256D01*
X156107398Y-112237251D01*
X156107397Y-112237250D01*
X156107396Y-112237247D01*
X155985486Y-112066048D01*
X155985484Y-112066046D01*
X155985479Y-112066040D01*
X155833379Y-111921014D01*
X155656574Y-111807388D01*
X155461455Y-111729274D01*
X155255086Y-111689500D01*
X155255085Y-111689500D01*
X154297575Y-111689500D01*
X154140782Y-111704472D01*
X154140778Y-111704473D01*
X153939127Y-111763683D01*
X153752313Y-111859991D01*
X153587116Y-111989905D01*
X153587112Y-111989909D01*
X153449478Y-112148746D01*
X153344398Y-112330750D01*
X153275656Y-112529365D01*
X153275656Y-112529367D01*
X153260804Y-112632670D01*
X153245746Y-112737401D01*
X145990304Y-112737401D01*
X145973723Y-112675520D01*
X145880142Y-112474833D01*
X145753132Y-112293445D01*
X145596555Y-112136868D01*
X145415167Y-112009858D01*
X145291907Y-111952381D01*
X145239468Y-111906210D01*
X145220316Y-111839017D01*
X145240531Y-111772136D01*
X145291908Y-111727618D01*
X145415167Y-111670142D01*
X145596555Y-111543132D01*
X145753132Y-111386555D01*
X145880142Y-111205167D01*
X145973723Y-111004480D01*
X146031035Y-110790591D01*
X146050334Y-110570000D01*
X146031035Y-110349409D01*
X145990304Y-110197401D01*
X153245746Y-110197401D01*
X153255745Y-110407327D01*
X153305296Y-110611578D01*
X153305298Y-110611582D01*
X153392598Y-110802743D01*
X153392601Y-110802748D01*
X153392602Y-110802750D01*
X153392604Y-110802753D01*
X153490693Y-110940500D01*
X153514515Y-110973953D01*
X153514520Y-110973959D01*
X153666620Y-111118985D01*
X153761578Y-111180011D01*
X153843428Y-111232613D01*
X154038543Y-111310725D01*
X154141729Y-111330612D01*
X154244914Y-111350500D01*
X154244915Y-111350500D01*
X155202419Y-111350500D01*
X155202425Y-111350500D01*
X155359218Y-111335528D01*
X155560875Y-111276316D01*
X155747682Y-111180011D01*
X155912886Y-111050092D01*
X156050519Y-110891256D01*
X156054826Y-110883797D01*
X156155601Y-110709249D01*
X156155600Y-110709249D01*
X156155604Y-110709244D01*
X156224344Y-110510633D01*
X156254254Y-110302602D01*
X156249243Y-110197401D01*
X168485746Y-110197401D01*
X168495745Y-110407327D01*
X168545296Y-110611578D01*
X168545298Y-110611582D01*
X168632598Y-110802743D01*
X168632601Y-110802748D01*
X168632602Y-110802750D01*
X168632604Y-110802753D01*
X168730693Y-110940500D01*
X168754515Y-110973953D01*
X168754520Y-110973959D01*
X168906620Y-111118985D01*
X169001578Y-111180011D01*
X169083428Y-111232613D01*
X169278543Y-111310725D01*
X169381729Y-111330612D01*
X169484914Y-111350500D01*
X169484915Y-111350500D01*
X170442419Y-111350500D01*
X170442425Y-111350500D01*
X170599218Y-111335528D01*
X170800875Y-111276316D01*
X170987682Y-111180011D01*
X171152886Y-111050092D01*
X171290519Y-110891256D01*
X171294826Y-110883797D01*
X171395601Y-110709249D01*
X171395600Y-110709249D01*
X171395604Y-110709244D01*
X171464344Y-110510633D01*
X171467617Y-110487870D01*
X178539500Y-110487870D01*
X178539501Y-110487876D01*
X178545908Y-110547483D01*
X178596202Y-110682328D01*
X178596206Y-110682335D01*
X178682452Y-110797544D01*
X178682455Y-110797547D01*
X178797664Y-110883793D01*
X178797671Y-110883797D01*
X178932517Y-110934091D01*
X178932516Y-110934091D01*
X178939444Y-110934835D01*
X178992127Y-110940500D01*
X181687872Y-110940499D01*
X181747483Y-110934091D01*
X181882331Y-110883796D01*
X181997546Y-110797546D01*
X182083796Y-110682331D01*
X182134091Y-110547483D01*
X182140500Y-110487873D01*
X182140499Y-107792128D01*
X182134091Y-107732517D01*
X182106073Y-107657398D01*
X182083797Y-107597671D01*
X182083793Y-107597664D01*
X181997547Y-107482455D01*
X181997544Y-107482452D01*
X181882335Y-107396206D01*
X181882328Y-107396202D01*
X181747482Y-107345908D01*
X181747483Y-107345908D01*
X181687883Y-107339501D01*
X181687881Y-107339500D01*
X181687873Y-107339500D01*
X181687864Y-107339500D01*
X178992129Y-107339500D01*
X178992123Y-107339501D01*
X178932516Y-107345908D01*
X178797671Y-107396202D01*
X178797664Y-107396206D01*
X178682455Y-107482452D01*
X178682452Y-107482455D01*
X178596206Y-107597664D01*
X178596202Y-107597671D01*
X178545908Y-107732517D01*
X178542674Y-107762602D01*
X178539501Y-107792123D01*
X178539500Y-107792135D01*
X178539500Y-110487870D01*
X171467617Y-110487870D01*
X171494254Y-110302602D01*
X171484254Y-110092670D01*
X171434704Y-109888424D01*
X171434701Y-109888417D01*
X171347401Y-109697256D01*
X171347398Y-109697251D01*
X171347397Y-109697250D01*
X171347396Y-109697247D01*
X171225486Y-109526048D01*
X171225484Y-109526046D01*
X171225479Y-109526040D01*
X171073379Y-109381014D01*
X170896574Y-109267388D01*
X170701455Y-109189274D01*
X170495086Y-109149500D01*
X170495085Y-109149500D01*
X169537575Y-109149500D01*
X169380782Y-109164472D01*
X169380778Y-109164473D01*
X169179127Y-109223683D01*
X168992313Y-109319991D01*
X168827116Y-109449905D01*
X168827112Y-109449909D01*
X168689478Y-109608746D01*
X168584398Y-109790750D01*
X168515656Y-109989365D01*
X168515656Y-109989367D01*
X168500804Y-110092670D01*
X168485746Y-110197401D01*
X156249243Y-110197401D01*
X156244254Y-110092670D01*
X156194704Y-109888424D01*
X156194701Y-109888417D01*
X156107401Y-109697256D01*
X156107398Y-109697251D01*
X156107397Y-109697250D01*
X156107396Y-109697247D01*
X155985486Y-109526048D01*
X155985484Y-109526046D01*
X155985479Y-109526040D01*
X155833379Y-109381014D01*
X155656574Y-109267388D01*
X155461455Y-109189274D01*
X155255086Y-109149500D01*
X155255085Y-109149500D01*
X154297575Y-109149500D01*
X154140782Y-109164472D01*
X154140778Y-109164473D01*
X153939127Y-109223683D01*
X153752313Y-109319991D01*
X153587116Y-109449905D01*
X153587112Y-109449909D01*
X153449478Y-109608746D01*
X153344398Y-109790750D01*
X153275656Y-109989365D01*
X153275656Y-109989367D01*
X153260804Y-110092670D01*
X153245746Y-110197401D01*
X145990304Y-110197401D01*
X145973723Y-110135520D01*
X145880142Y-109934833D01*
X145753132Y-109753445D01*
X145596555Y-109596868D01*
X145415167Y-109469858D01*
X145291907Y-109412381D01*
X145239468Y-109366210D01*
X145220316Y-109299017D01*
X145240531Y-109232136D01*
X145291908Y-109187618D01*
X145415167Y-109130142D01*
X145596555Y-109003132D01*
X145753132Y-108846555D01*
X145880142Y-108665167D01*
X145973723Y-108464480D01*
X146031035Y-108250591D01*
X146050334Y-108030000D01*
X146031035Y-107809409D01*
X145990304Y-107657401D01*
X153245746Y-107657401D01*
X153255745Y-107867327D01*
X153305296Y-108071578D01*
X153305298Y-108071582D01*
X153392598Y-108262743D01*
X153392601Y-108262748D01*
X153392602Y-108262750D01*
X153392604Y-108262753D01*
X153455627Y-108351256D01*
X153514515Y-108433953D01*
X153514520Y-108433959D01*
X153666620Y-108578985D01*
X153761578Y-108640011D01*
X153843428Y-108692613D01*
X154038543Y-108770725D01*
X154141729Y-108790612D01*
X154244914Y-108810500D01*
X154244915Y-108810500D01*
X155202419Y-108810500D01*
X155202425Y-108810500D01*
X155359218Y-108795528D01*
X155560875Y-108736316D01*
X155747682Y-108640011D01*
X155912886Y-108510092D01*
X156050519Y-108351256D01*
X156155604Y-108169244D01*
X156224344Y-107970633D01*
X156254254Y-107762602D01*
X156249243Y-107657401D01*
X168485746Y-107657401D01*
X168495745Y-107867327D01*
X168545296Y-108071578D01*
X168545298Y-108071582D01*
X168632598Y-108262743D01*
X168632601Y-108262748D01*
X168632602Y-108262750D01*
X168632604Y-108262753D01*
X168695627Y-108351256D01*
X168754515Y-108433953D01*
X168754520Y-108433959D01*
X168906620Y-108578985D01*
X169001578Y-108640011D01*
X169083428Y-108692613D01*
X169278543Y-108770725D01*
X169381729Y-108790612D01*
X169484914Y-108810500D01*
X169484915Y-108810500D01*
X170442419Y-108810500D01*
X170442425Y-108810500D01*
X170599218Y-108795528D01*
X170800875Y-108736316D01*
X170987682Y-108640011D01*
X171152886Y-108510092D01*
X171290519Y-108351256D01*
X171395604Y-108169244D01*
X171464344Y-107970633D01*
X171494254Y-107762602D01*
X171484254Y-107552670D01*
X171434704Y-107348424D01*
X171434701Y-107348417D01*
X171347401Y-107157256D01*
X171347398Y-107157251D01*
X171347397Y-107157250D01*
X171347396Y-107157247D01*
X171225486Y-106986048D01*
X171225484Y-106986046D01*
X171225479Y-106986040D01*
X171073379Y-106841014D01*
X170896574Y-106727388D01*
X170701455Y-106649274D01*
X170495086Y-106609500D01*
X170495085Y-106609500D01*
X169537575Y-106609500D01*
X169380782Y-106624472D01*
X169380778Y-106624473D01*
X169179127Y-106683683D01*
X168992313Y-106779991D01*
X168827116Y-106909905D01*
X168827112Y-106909909D01*
X168689478Y-107068746D01*
X168584398Y-107250750D01*
X168515656Y-107449365D01*
X168515656Y-107449367D01*
X168494334Y-107597671D01*
X168485746Y-107657401D01*
X156249243Y-107657401D01*
X156244254Y-107552670D01*
X156194704Y-107348424D01*
X156194701Y-107348417D01*
X156107401Y-107157256D01*
X156107398Y-107157251D01*
X156107397Y-107157250D01*
X156107396Y-107157247D01*
X155985486Y-106986048D01*
X155985484Y-106986046D01*
X155985479Y-106986040D01*
X155833379Y-106841014D01*
X155656574Y-106727388D01*
X155461455Y-106649274D01*
X155255086Y-106609500D01*
X155255085Y-106609500D01*
X154297575Y-106609500D01*
X154140782Y-106624472D01*
X154140778Y-106624473D01*
X153939127Y-106683683D01*
X153752313Y-106779991D01*
X153587116Y-106909905D01*
X153587112Y-106909909D01*
X153449478Y-107068746D01*
X153344398Y-107250750D01*
X153275656Y-107449365D01*
X153275656Y-107449367D01*
X153254334Y-107597671D01*
X153245746Y-107657401D01*
X145990304Y-107657401D01*
X145973723Y-107595520D01*
X145880142Y-107394833D01*
X145753132Y-107213445D01*
X145596555Y-107056868D01*
X145415167Y-106929858D01*
X145291907Y-106872381D01*
X145239468Y-106826210D01*
X145220316Y-106759017D01*
X145240531Y-106692136D01*
X145291908Y-106647618D01*
X145415167Y-106590142D01*
X145596555Y-106463132D01*
X145753132Y-106306555D01*
X145880142Y-106125167D01*
X145973723Y-105924480D01*
X146031035Y-105710591D01*
X146050334Y-105490000D01*
X146031035Y-105269409D01*
X145990304Y-105117401D01*
X153245746Y-105117401D01*
X153255745Y-105327327D01*
X153305296Y-105531578D01*
X153305298Y-105531582D01*
X153392598Y-105722743D01*
X153392601Y-105722748D01*
X153392602Y-105722750D01*
X153392604Y-105722753D01*
X153462378Y-105820737D01*
X153514515Y-105893953D01*
X153514520Y-105893959D01*
X153666620Y-106038985D01*
X153761578Y-106100011D01*
X153843428Y-106152613D01*
X154038543Y-106230725D01*
X154141729Y-106250612D01*
X154244914Y-106270500D01*
X154244915Y-106270500D01*
X155202419Y-106270500D01*
X155202425Y-106270500D01*
X155359218Y-106255528D01*
X155560875Y-106196316D01*
X155747682Y-106100011D01*
X155912886Y-105970092D01*
X156050519Y-105811256D01*
X156155604Y-105629244D01*
X156224344Y-105430633D01*
X156254254Y-105222602D01*
X156249243Y-105117401D01*
X168485746Y-105117401D01*
X168495745Y-105327327D01*
X168545296Y-105531578D01*
X168545298Y-105531582D01*
X168632598Y-105722743D01*
X168632601Y-105722748D01*
X168632602Y-105722750D01*
X168632604Y-105722753D01*
X168702378Y-105820737D01*
X168754515Y-105893953D01*
X168754520Y-105893959D01*
X168906620Y-106038985D01*
X169001578Y-106100011D01*
X169083428Y-106152613D01*
X169278543Y-106230725D01*
X169381729Y-106250612D01*
X169484914Y-106270500D01*
X169484915Y-106270500D01*
X170442419Y-106270500D01*
X170442425Y-106270500D01*
X170599218Y-106255528D01*
X170800875Y-106196316D01*
X170987682Y-106100011D01*
X171152886Y-105970092D01*
X171290519Y-105811256D01*
X171395604Y-105629244D01*
X171464344Y-105430633D01*
X171494254Y-105222602D01*
X171484254Y-105012670D01*
X171434704Y-104808424D01*
X171434701Y-104808417D01*
X171347401Y-104617256D01*
X171347398Y-104617251D01*
X171347397Y-104617250D01*
X171347396Y-104617247D01*
X171225486Y-104446048D01*
X171225484Y-104446046D01*
X171225479Y-104446040D01*
X171073379Y-104301014D01*
X170896574Y-104187388D01*
X170778215Y-104140004D01*
X178534451Y-104140004D01*
X178554616Y-104409101D01*
X178614664Y-104672188D01*
X178614666Y-104672195D01*
X178707750Y-104909368D01*
X178713257Y-104923398D01*
X178848185Y-105157102D01*
X178900417Y-105222598D01*
X179016442Y-105368089D01*
X179192643Y-105531578D01*
X179214259Y-105551635D01*
X179437226Y-105703651D01*
X179437229Y-105703652D01*
X179437230Y-105703653D01*
X179451637Y-105710591D01*
X179680359Y-105820738D01*
X179938228Y-105900280D01*
X179938229Y-105900280D01*
X179938232Y-105900281D01*
X180205063Y-105940499D01*
X180205068Y-105940499D01*
X180205071Y-105940500D01*
X180205072Y-105940500D01*
X180474928Y-105940500D01*
X180474929Y-105940500D01*
X180474936Y-105940499D01*
X180741767Y-105900281D01*
X180741768Y-105900280D01*
X180741772Y-105900280D01*
X180999641Y-105820738D01*
X181228364Y-105710591D01*
X181242767Y-105703655D01*
X181242767Y-105703654D01*
X181242775Y-105703651D01*
X181465741Y-105551635D01*
X181663561Y-105368085D01*
X181831815Y-105157102D01*
X181966743Y-104923398D01*
X182065334Y-104672195D01*
X182125383Y-104409103D01*
X182144516Y-104153790D01*
X182145549Y-104140004D01*
X182145549Y-104139995D01*
X182125383Y-103870898D01*
X182125383Y-103870897D01*
X182065334Y-103607805D01*
X181966743Y-103356602D01*
X181831815Y-103122898D01*
X181663561Y-102911915D01*
X181663560Y-102911914D01*
X181663557Y-102911910D01*
X181465741Y-102728365D01*
X181321466Y-102630000D01*
X181242775Y-102576349D01*
X181242769Y-102576346D01*
X181242768Y-102576345D01*
X181242767Y-102576344D01*
X180999643Y-102459263D01*
X180999645Y-102459263D01*
X180741773Y-102379720D01*
X180741767Y-102379718D01*
X180474936Y-102339500D01*
X180474929Y-102339500D01*
X180205071Y-102339500D01*
X180205063Y-102339500D01*
X179938232Y-102379718D01*
X179938226Y-102379720D01*
X179680358Y-102459262D01*
X179437230Y-102576346D01*
X179214258Y-102728365D01*
X179016442Y-102911910D01*
X178848185Y-103122898D01*
X178713258Y-103356599D01*
X178713256Y-103356603D01*
X178614666Y-103607804D01*
X178614664Y-103607811D01*
X178554616Y-103870898D01*
X178534451Y-104139995D01*
X178534451Y-104140004D01*
X170778215Y-104140004D01*
X170701455Y-104109274D01*
X170495086Y-104069500D01*
X170495085Y-104069500D01*
X169537575Y-104069500D01*
X169380782Y-104084472D01*
X169380778Y-104084473D01*
X169179127Y-104143683D01*
X168992313Y-104239991D01*
X168827116Y-104369905D01*
X168827112Y-104369909D01*
X168689478Y-104528746D01*
X168584398Y-104710750D01*
X168515656Y-104909365D01*
X168515656Y-104909367D01*
X168500804Y-105012670D01*
X168485746Y-105117401D01*
X156249243Y-105117401D01*
X156244254Y-105012670D01*
X156194704Y-104808424D01*
X156194701Y-104808417D01*
X156107401Y-104617256D01*
X156107398Y-104617251D01*
X156107397Y-104617250D01*
X156107396Y-104617247D01*
X155985486Y-104446048D01*
X155985484Y-104446046D01*
X155985479Y-104446040D01*
X155833379Y-104301014D01*
X155656574Y-104187388D01*
X155461455Y-104109274D01*
X155255086Y-104069500D01*
X155255085Y-104069500D01*
X154297575Y-104069500D01*
X154140782Y-104084472D01*
X154140778Y-104084473D01*
X153939127Y-104143683D01*
X153752313Y-104239991D01*
X153587116Y-104369905D01*
X153587112Y-104369909D01*
X153449478Y-104528746D01*
X153344398Y-104710750D01*
X153275656Y-104909365D01*
X153275656Y-104909367D01*
X153260804Y-105012670D01*
X153245746Y-105117401D01*
X145990304Y-105117401D01*
X145973723Y-105055520D01*
X145880142Y-104854833D01*
X145753132Y-104673445D01*
X145596555Y-104516868D01*
X145415167Y-104389858D01*
X145372384Y-104369908D01*
X145291317Y-104332106D01*
X145238877Y-104285934D01*
X145219725Y-104218741D01*
X145239941Y-104151859D01*
X145291317Y-104107342D01*
X145414912Y-104049708D01*
X145414914Y-104049707D01*
X145480342Y-104003894D01*
X144921366Y-103444918D01*
X144925161Y-103444373D01*
X145058562Y-103383451D01*
X145169395Y-103287413D01*
X145248682Y-103164040D01*
X145271133Y-103087580D01*
X145833894Y-103650342D01*
X145879706Y-103584915D01*
X145973250Y-103384309D01*
X145973254Y-103384300D01*
X146030538Y-103170509D01*
X146030540Y-103170499D01*
X146049832Y-102950000D01*
X146049832Y-102949999D01*
X146030540Y-102729500D01*
X146030538Y-102729490D01*
X145973254Y-102515699D01*
X145973250Y-102515690D01*
X145909977Y-102380000D01*
X153274632Y-102380000D01*
X154434314Y-102380000D01*
X154422359Y-102391955D01*
X154364835Y-102504852D01*
X154345014Y-102630000D01*
X154364835Y-102755148D01*
X154422359Y-102868045D01*
X154434314Y-102880000D01*
X153278742Y-102880000D01*
X153305770Y-102991409D01*
X153393040Y-103182507D01*
X153514889Y-103353619D01*
X153514895Y-103353625D01*
X153666932Y-103498592D01*
X153843657Y-103612166D01*
X154038685Y-103690244D01*
X154244962Y-103730000D01*
X154500000Y-103730000D01*
X154500000Y-102945686D01*
X154511955Y-102957641D01*
X154624852Y-103015165D01*
X154718519Y-103030000D01*
X154781481Y-103030000D01*
X154875148Y-103015165D01*
X154988045Y-102957641D01*
X155000000Y-102945686D01*
X155000000Y-103730000D01*
X155202398Y-103730000D01*
X155359122Y-103715034D01*
X155359126Y-103715033D01*
X155560686Y-103655850D01*
X155747414Y-103559586D01*
X155912537Y-103429731D01*
X155912540Y-103429728D01*
X156050105Y-103270969D01*
X156050114Y-103270958D01*
X156155144Y-103089039D01*
X156155147Y-103089032D01*
X156223855Y-102890517D01*
X156223855Y-102890515D01*
X156225368Y-102880000D01*
X155065686Y-102880000D01*
X155077641Y-102868045D01*
X155135165Y-102755148D01*
X155154986Y-102630000D01*
X155135165Y-102504852D01*
X155077641Y-102391955D01*
X155065686Y-102380000D01*
X156221257Y-102380000D01*
X168514632Y-102380000D01*
X169674314Y-102380000D01*
X169662359Y-102391955D01*
X169604835Y-102504852D01*
X169585014Y-102630000D01*
X169604835Y-102755148D01*
X169662359Y-102868045D01*
X169674314Y-102880000D01*
X168518742Y-102880000D01*
X168545770Y-102991409D01*
X168633040Y-103182507D01*
X168754889Y-103353619D01*
X168754895Y-103353625D01*
X168906932Y-103498592D01*
X169083657Y-103612166D01*
X169278685Y-103690244D01*
X169484962Y-103730000D01*
X169740000Y-103730000D01*
X169740000Y-102945686D01*
X169751955Y-102957641D01*
X169864852Y-103015165D01*
X169958519Y-103030000D01*
X170021481Y-103030000D01*
X170115148Y-103015165D01*
X170228045Y-102957641D01*
X170240000Y-102945686D01*
X170240000Y-103730000D01*
X170442398Y-103730000D01*
X170599122Y-103715034D01*
X170599126Y-103715033D01*
X170800686Y-103655850D01*
X170987414Y-103559586D01*
X171152537Y-103429731D01*
X171152540Y-103429728D01*
X171290105Y-103270969D01*
X171290114Y-103270958D01*
X171395144Y-103089039D01*
X171395147Y-103089032D01*
X171463855Y-102890517D01*
X171463855Y-102890515D01*
X171465368Y-102880000D01*
X170305686Y-102880000D01*
X170317641Y-102868045D01*
X170375165Y-102755148D01*
X170394986Y-102630000D01*
X170375165Y-102504852D01*
X170317641Y-102391955D01*
X170305686Y-102380000D01*
X171461257Y-102380000D01*
X171434229Y-102268590D01*
X171346959Y-102077492D01*
X171225110Y-101906380D01*
X171225104Y-101906374D01*
X171073067Y-101761407D01*
X170896342Y-101647833D01*
X170701314Y-101569755D01*
X170495038Y-101530000D01*
X170240000Y-101530000D01*
X170240000Y-102314314D01*
X170228045Y-102302359D01*
X170115148Y-102244835D01*
X170021481Y-102230000D01*
X169958519Y-102230000D01*
X169864852Y-102244835D01*
X169751955Y-102302359D01*
X169740000Y-102314314D01*
X169740000Y-101530000D01*
X169537602Y-101530000D01*
X169380877Y-101544965D01*
X169380873Y-101544966D01*
X169179313Y-101604149D01*
X168992585Y-101700413D01*
X168827462Y-101830268D01*
X168827459Y-101830271D01*
X168689894Y-101989030D01*
X168689885Y-101989041D01*
X168584855Y-102170960D01*
X168584852Y-102170967D01*
X168516144Y-102369482D01*
X168516144Y-102369484D01*
X168514632Y-102380000D01*
X156221257Y-102380000D01*
X156194229Y-102268590D01*
X156106959Y-102077492D01*
X155985110Y-101906380D01*
X155985104Y-101906374D01*
X155833067Y-101761407D01*
X155656342Y-101647833D01*
X155461314Y-101569755D01*
X155255038Y-101530000D01*
X155000000Y-101530000D01*
X155000000Y-102314314D01*
X154988045Y-102302359D01*
X154875148Y-102244835D01*
X154781481Y-102230000D01*
X154718519Y-102230000D01*
X154624852Y-102244835D01*
X154511955Y-102302359D01*
X154500000Y-102314314D01*
X154500000Y-101530000D01*
X154297602Y-101530000D01*
X154140877Y-101544965D01*
X154140873Y-101544966D01*
X153939313Y-101604149D01*
X153752585Y-101700413D01*
X153587462Y-101830268D01*
X153587459Y-101830271D01*
X153449894Y-101989030D01*
X153449885Y-101989041D01*
X153344855Y-102170960D01*
X153344852Y-102170967D01*
X153276144Y-102369482D01*
X153276144Y-102369484D01*
X153274632Y-102380000D01*
X145909977Y-102380000D01*
X145879707Y-102315085D01*
X145879706Y-102315083D01*
X145833894Y-102249657D01*
X145833894Y-102249656D01*
X145271132Y-102812418D01*
X145248682Y-102735960D01*
X145169395Y-102612587D01*
X145058562Y-102516549D01*
X144925161Y-102455627D01*
X144921366Y-102455081D01*
X145480342Y-101896105D01*
X145480341Y-101896103D01*
X145414919Y-101850295D01*
X145291316Y-101792657D01*
X145238877Y-101746484D01*
X145219725Y-101679291D01*
X145239941Y-101612410D01*
X145291312Y-101567895D01*
X145415167Y-101510142D01*
X145596555Y-101383132D01*
X145753132Y-101226555D01*
X145880142Y-101045167D01*
X145973723Y-100844480D01*
X146031035Y-100630591D01*
X146050334Y-100410000D01*
X146031035Y-100189409D01*
X145973723Y-99975520D01*
X145880142Y-99774833D01*
X145753132Y-99593445D01*
X145596555Y-99436868D01*
X145415167Y-99309858D01*
X145291907Y-99252381D01*
X145239468Y-99206210D01*
X145220316Y-99139017D01*
X145240531Y-99072136D01*
X145291908Y-99027618D01*
X145415167Y-98970142D01*
X145596555Y-98843132D01*
X145753132Y-98686555D01*
X145880142Y-98505167D01*
X145973723Y-98304480D01*
X146031035Y-98090591D01*
X146050334Y-97870000D01*
X146037780Y-97726501D01*
X155003166Y-97726501D01*
X155022464Y-97947085D01*
X155022465Y-97947092D01*
X155079775Y-98160975D01*
X155079779Y-98160986D01*
X155173356Y-98361663D01*
X155173358Y-98361667D01*
X155300368Y-98543055D01*
X155456945Y-98699632D01*
X155638333Y-98826642D01*
X155759072Y-98882943D01*
X155839013Y-98920220D01*
X155839015Y-98920220D01*
X155839020Y-98920223D01*
X156052909Y-98977535D01*
X156210474Y-98991320D01*
X156273498Y-98996834D01*
X156273500Y-98996834D01*
X156273502Y-98996834D01*
X156328647Y-98992009D01*
X156494091Y-98977535D01*
X156707980Y-98920223D01*
X156908667Y-98826642D01*
X157090055Y-98699632D01*
X157246632Y-98543055D01*
X157373642Y-98361667D01*
X157467223Y-98160980D01*
X157524535Y-97947091D01*
X157531466Y-97867870D01*
X178539500Y-97867870D01*
X178539501Y-97867876D01*
X178545908Y-97927483D01*
X178596202Y-98062328D01*
X178596206Y-98062335D01*
X178682452Y-98177544D01*
X178682455Y-98177547D01*
X178797664Y-98263793D01*
X178797671Y-98263797D01*
X178932517Y-98314091D01*
X178932516Y-98314091D01*
X178939444Y-98314835D01*
X178992127Y-98320500D01*
X181687872Y-98320499D01*
X181747483Y-98314091D01*
X181882331Y-98263796D01*
X181997546Y-98177546D01*
X182083796Y-98062331D01*
X182134091Y-97927483D01*
X182140500Y-97867873D01*
X182140499Y-95172128D01*
X182134091Y-95112517D01*
X182083796Y-94977669D01*
X182083795Y-94977668D01*
X182083793Y-94977664D01*
X181997547Y-94862455D01*
X181997544Y-94862452D01*
X181882335Y-94776206D01*
X181882328Y-94776202D01*
X181747482Y-94725908D01*
X181747483Y-94725908D01*
X181687883Y-94719501D01*
X181687881Y-94719500D01*
X181687873Y-94719500D01*
X181687864Y-94719500D01*
X178992129Y-94719500D01*
X178992123Y-94719501D01*
X178932516Y-94725908D01*
X178797671Y-94776202D01*
X178797664Y-94776206D01*
X178682455Y-94862452D01*
X178682452Y-94862455D01*
X178596206Y-94977664D01*
X178596202Y-94977671D01*
X178545908Y-95112517D01*
X178539501Y-95172116D01*
X178539501Y-95172123D01*
X178539500Y-95172135D01*
X178539500Y-97867870D01*
X157531466Y-97867870D01*
X157543834Y-97726500D01*
X157524535Y-97505909D01*
X157467223Y-97292020D01*
X157373642Y-97091333D01*
X157246632Y-96909945D01*
X157090055Y-96753368D01*
X156908667Y-96626358D01*
X156850033Y-96599017D01*
X156785408Y-96568882D01*
X156732968Y-96522710D01*
X156713816Y-96455517D01*
X156734031Y-96388636D01*
X156785408Y-96344118D01*
X156908667Y-96286642D01*
X157090055Y-96159632D01*
X157246632Y-96003055D01*
X157373642Y-95821667D01*
X157467223Y-95620980D01*
X157524535Y-95407091D01*
X157543834Y-95186500D01*
X157524535Y-94965909D01*
X157467223Y-94752020D01*
X157455047Y-94725909D01*
X157373643Y-94551336D01*
X157373642Y-94551334D01*
X157373642Y-94551333D01*
X157246632Y-94369945D01*
X157090055Y-94213368D01*
X156908667Y-94086358D01*
X156850033Y-94059017D01*
X156785408Y-94028882D01*
X156732968Y-93982710D01*
X156713816Y-93915517D01*
X156734031Y-93848636D01*
X156785408Y-93804118D01*
X156908667Y-93746642D01*
X157090055Y-93619632D01*
X157246632Y-93463055D01*
X157373642Y-93281667D01*
X157467223Y-93080980D01*
X157524535Y-92867091D01*
X157543834Y-92646500D01*
X157524535Y-92425909D01*
X157467223Y-92212020D01*
X157373642Y-92011333D01*
X157246632Y-91829945D01*
X157090055Y-91673368D01*
X156908667Y-91546358D01*
X156852150Y-91520004D01*
X178534451Y-91520004D01*
X178554616Y-91789101D01*
X178614664Y-92052188D01*
X178614666Y-92052195D01*
X178677390Y-92212013D01*
X178713257Y-92303398D01*
X178848185Y-92537102D01*
X178935428Y-92646501D01*
X179016442Y-92748089D01*
X179144697Y-92867091D01*
X179214259Y-92931635D01*
X179437226Y-93083651D01*
X179680359Y-93200738D01*
X179938228Y-93280280D01*
X179938229Y-93280280D01*
X179938232Y-93280281D01*
X180205063Y-93320499D01*
X180205068Y-93320499D01*
X180205071Y-93320500D01*
X180205072Y-93320500D01*
X180474928Y-93320500D01*
X180474929Y-93320500D01*
X180474936Y-93320499D01*
X180741767Y-93280281D01*
X180741768Y-93280280D01*
X180741772Y-93280280D01*
X180999641Y-93200738D01*
X181242775Y-93083651D01*
X181465741Y-92931635D01*
X181663561Y-92748085D01*
X181831815Y-92537102D01*
X181966743Y-92303398D01*
X182065334Y-92052195D01*
X182125383Y-91789103D01*
X182139833Y-91596277D01*
X182145549Y-91520004D01*
X182145549Y-91519995D01*
X182125383Y-91250898D01*
X182119046Y-91223132D01*
X182065334Y-90987805D01*
X181966743Y-90736602D01*
X181831815Y-90502898D01*
X181663561Y-90291915D01*
X181663560Y-90291914D01*
X181663557Y-90291910D01*
X181465741Y-90108365D01*
X181349941Y-90029414D01*
X181242775Y-89956349D01*
X181242769Y-89956346D01*
X181242768Y-89956345D01*
X181242767Y-89956344D01*
X180999643Y-89839263D01*
X180999645Y-89839263D01*
X180741773Y-89759720D01*
X180741767Y-89759718D01*
X180474936Y-89719500D01*
X180474929Y-89719500D01*
X180205071Y-89719500D01*
X180205063Y-89719500D01*
X179938232Y-89759718D01*
X179938226Y-89759720D01*
X179680358Y-89839262D01*
X179437230Y-89956346D01*
X179214258Y-90108365D01*
X179016442Y-90291910D01*
X178848185Y-90502898D01*
X178713258Y-90736599D01*
X178713256Y-90736603D01*
X178614666Y-90987804D01*
X178614664Y-90987811D01*
X178554616Y-91250898D01*
X178534451Y-91519995D01*
X178534451Y-91520004D01*
X156852150Y-91520004D01*
X156850033Y-91519017D01*
X156785408Y-91488882D01*
X156732968Y-91442710D01*
X156713816Y-91375517D01*
X156734031Y-91308636D01*
X156785408Y-91264118D01*
X156908667Y-91206642D01*
X157090055Y-91079632D01*
X157246632Y-90923055D01*
X157373642Y-90741667D01*
X157467223Y-90540980D01*
X157524535Y-90327091D01*
X157543834Y-90106500D01*
X157524535Y-89885909D01*
X157467223Y-89672020D01*
X157373642Y-89471333D01*
X157246632Y-89289945D01*
X157090055Y-89133368D01*
X156908667Y-89006358D01*
X156785407Y-88948881D01*
X156732968Y-88902710D01*
X156713816Y-88835517D01*
X156734031Y-88768636D01*
X156785408Y-88724118D01*
X156799969Y-88717328D01*
X156908667Y-88666642D01*
X157090055Y-88539632D01*
X157246632Y-88383055D01*
X157373642Y-88201667D01*
X157467223Y-88000980D01*
X157524535Y-87787091D01*
X157543834Y-87566500D01*
X157524535Y-87345909D01*
X157467223Y-87132020D01*
X157373642Y-86931333D01*
X157246632Y-86749945D01*
X157090055Y-86593368D01*
X156908667Y-86466358D01*
X156785407Y-86408881D01*
X156732968Y-86362710D01*
X156713816Y-86295517D01*
X156734031Y-86228636D01*
X156785408Y-86184118D01*
X156908667Y-86126642D01*
X157090055Y-85999632D01*
X157246632Y-85843055D01*
X157373642Y-85661667D01*
X157467223Y-85460980D01*
X157524535Y-85247091D01*
X157543834Y-85026500D01*
X157524535Y-84805909D01*
X157467223Y-84592020D01*
X157373642Y-84391333D01*
X157246632Y-84209945D01*
X157090055Y-84053368D01*
X156908667Y-83926358D01*
X156908663Y-83926356D01*
X156784817Y-83868606D01*
X156732377Y-83822434D01*
X156713225Y-83755241D01*
X156733441Y-83688359D01*
X156784817Y-83643842D01*
X156908412Y-83586208D01*
X156908414Y-83586207D01*
X156973842Y-83540394D01*
X156414866Y-82981418D01*
X156418661Y-82980873D01*
X156552062Y-82919951D01*
X156662895Y-82823913D01*
X156742182Y-82700540D01*
X156764633Y-82624080D01*
X157327394Y-83186842D01*
X157373206Y-83121415D01*
X157466750Y-82920809D01*
X157466754Y-82920800D01*
X157524038Y-82707009D01*
X157524040Y-82706999D01*
X157543332Y-82486500D01*
X157543332Y-82486499D01*
X157524040Y-82266000D01*
X157524038Y-82265990D01*
X157466754Y-82052199D01*
X157466750Y-82052190D01*
X157373207Y-81851585D01*
X157373206Y-81851583D01*
X157327394Y-81786157D01*
X157327394Y-81786156D01*
X156764632Y-82348918D01*
X156742182Y-82272460D01*
X156662895Y-82149087D01*
X156552062Y-82053049D01*
X156418661Y-81992127D01*
X156414866Y-81991581D01*
X156973842Y-81432605D01*
X156973841Y-81432603D01*
X156908419Y-81386795D01*
X156824716Y-81347763D01*
X178485787Y-81347763D01*
X178515413Y-81617013D01*
X178515415Y-81617024D01*
X178583926Y-81879082D01*
X178583928Y-81879088D01*
X178689870Y-82128390D01*
X178777795Y-82272460D01*
X178830979Y-82359605D01*
X178830986Y-82359615D01*
X179004253Y-82567819D01*
X179004259Y-82567824D01*
X179205998Y-82748582D01*
X179431910Y-82898044D01*
X179677176Y-83013020D01*
X179677183Y-83013022D01*
X179677185Y-83013023D01*
X179936557Y-83091057D01*
X179936564Y-83091058D01*
X179936569Y-83091060D01*
X180204561Y-83130500D01*
X180204566Y-83130500D01*
X180407636Y-83130500D01*
X180459133Y-83126730D01*
X180610156Y-83115677D01*
X180722758Y-83090593D01*
X180874546Y-83056782D01*
X180874548Y-83056781D01*
X180874553Y-83056780D01*
X181127558Y-82960014D01*
X181363777Y-82827441D01*
X181578177Y-82661888D01*
X181766186Y-82466881D01*
X181923799Y-82246579D01*
X181997787Y-82102669D01*
X182047649Y-82005690D01*
X182047651Y-82005684D01*
X182047656Y-82005675D01*
X182135118Y-81749305D01*
X182184319Y-81482933D01*
X182194212Y-81212235D01*
X182164586Y-80942982D01*
X182096072Y-80680912D01*
X181990130Y-80431610D01*
X181849018Y-80200390D01*
X181821307Y-80167092D01*
X181675746Y-79992180D01*
X181675740Y-79992175D01*
X181474002Y-79811418D01*
X181248092Y-79661957D01*
X181248090Y-79661956D01*
X181002824Y-79546980D01*
X181002819Y-79546978D01*
X181002814Y-79546976D01*
X180743442Y-79468942D01*
X180743428Y-79468939D01*
X180627791Y-79451921D01*
X180475439Y-79429500D01*
X180272369Y-79429500D01*
X180272364Y-79429500D01*
X180069844Y-79444323D01*
X180069831Y-79444325D01*
X179805453Y-79503217D01*
X179805446Y-79503220D01*
X179552439Y-79599987D01*
X179316226Y-79732557D01*
X179101822Y-79898112D01*
X178913822Y-80093109D01*
X178913816Y-80093116D01*
X178756202Y-80313419D01*
X178756199Y-80313424D01*
X178632350Y-80554309D01*
X178632343Y-80554327D01*
X178544884Y-80810685D01*
X178544881Y-80810699D01*
X178495681Y-81077068D01*
X178495680Y-81077075D01*
X178485787Y-81347763D01*
X156824716Y-81347763D01*
X156784816Y-81329157D01*
X156732377Y-81282984D01*
X156713225Y-81215791D01*
X156733441Y-81148910D01*
X156784812Y-81104395D01*
X156908667Y-81046642D01*
X157090055Y-80919632D01*
X157246632Y-80763055D01*
X157373642Y-80581667D01*
X157467223Y-80380980D01*
X157524535Y-80167091D01*
X157543834Y-79946500D01*
X157524535Y-79725909D01*
X157467223Y-79512020D01*
X157373642Y-79311333D01*
X157246632Y-79129945D01*
X157090055Y-78973368D01*
X156908667Y-78846358D01*
X156908663Y-78846356D01*
X156707986Y-78752779D01*
X156707975Y-78752775D01*
X156494092Y-78695465D01*
X156494085Y-78695464D01*
X156273502Y-78676166D01*
X156273498Y-78676166D01*
X156052914Y-78695464D01*
X156052907Y-78695465D01*
X155839024Y-78752775D01*
X155839013Y-78752779D01*
X155638336Y-78846356D01*
X155638334Y-78846357D01*
X155456944Y-78973368D01*
X155300368Y-79129944D01*
X155173357Y-79311334D01*
X155173356Y-79311336D01*
X155079779Y-79512013D01*
X155079775Y-79512024D01*
X155022465Y-79725907D01*
X155022464Y-79725914D01*
X155003166Y-79946498D01*
X155003166Y-79946501D01*
X155022464Y-80167085D01*
X155022465Y-80167092D01*
X155079775Y-80380975D01*
X155079779Y-80380986D01*
X155160601Y-80554309D01*
X155173358Y-80581667D01*
X155300368Y-80763055D01*
X155456945Y-80919632D01*
X155638333Y-81046642D01*
X155762182Y-81104393D01*
X155814622Y-81150565D01*
X155833774Y-81217758D01*
X155813559Y-81284639D01*
X155762183Y-81329157D01*
X155638584Y-81386793D01*
X155573157Y-81432604D01*
X156132134Y-81991581D01*
X156128339Y-81992127D01*
X155994938Y-82053049D01*
X155884105Y-82149087D01*
X155804818Y-82272460D01*
X155782366Y-82348919D01*
X155219604Y-81786157D01*
X155173793Y-81851584D01*
X155080249Y-82052190D01*
X155080245Y-82052199D01*
X155022961Y-82265990D01*
X155022959Y-82266000D01*
X155003668Y-82486499D01*
X155003668Y-82486500D01*
X155022959Y-82706999D01*
X155022961Y-82707009D01*
X155080245Y-82920800D01*
X155080249Y-82920809D01*
X155173795Y-83121419D01*
X155219603Y-83186841D01*
X155219605Y-83186842D01*
X155782366Y-82624080D01*
X155804818Y-82700540D01*
X155884105Y-82823913D01*
X155994938Y-82919951D01*
X156128339Y-82980873D01*
X156132133Y-82981418D01*
X155573156Y-83540394D01*
X155638583Y-83586206D01*
X155638585Y-83586207D01*
X155762183Y-83643842D01*
X155814622Y-83690014D01*
X155833774Y-83757208D01*
X155813558Y-83824089D01*
X155762183Y-83868606D01*
X155638333Y-83926357D01*
X155456944Y-84053368D01*
X155300368Y-84209944D01*
X155173357Y-84391334D01*
X155173356Y-84391336D01*
X155079779Y-84592013D01*
X155079775Y-84592024D01*
X155022465Y-84805907D01*
X155022464Y-84805914D01*
X155003166Y-85026498D01*
X155003166Y-85026501D01*
X155022464Y-85247085D01*
X155022465Y-85247092D01*
X155079775Y-85460975D01*
X155079779Y-85460986D01*
X155173356Y-85661663D01*
X155173358Y-85661667D01*
X155300368Y-85843055D01*
X155456945Y-85999632D01*
X155638333Y-86126642D01*
X155700328Y-86155550D01*
X155761591Y-86184118D01*
X155814031Y-86230290D01*
X155833183Y-86297483D01*
X155812967Y-86364365D01*
X155761591Y-86408882D01*
X155638336Y-86466356D01*
X155638334Y-86466357D01*
X155456944Y-86593368D01*
X155300368Y-86749944D01*
X155173357Y-86931334D01*
X155173356Y-86931336D01*
X155079779Y-87132013D01*
X155079775Y-87132024D01*
X155022465Y-87345907D01*
X155022464Y-87345914D01*
X155003166Y-87566498D01*
X155003166Y-87566501D01*
X155022464Y-87787085D01*
X155022465Y-87787092D01*
X155079775Y-88000975D01*
X155079779Y-88000986D01*
X155173356Y-88201663D01*
X155173358Y-88201667D01*
X155300368Y-88383055D01*
X155456945Y-88539632D01*
X155638333Y-88666642D01*
X155700328Y-88695550D01*
X155761591Y-88724118D01*
X155814031Y-88770290D01*
X155833183Y-88837483D01*
X155812967Y-88904365D01*
X155761591Y-88948882D01*
X155638336Y-89006356D01*
X155638334Y-89006357D01*
X155456944Y-89133368D01*
X155300368Y-89289944D01*
X155173357Y-89471334D01*
X155173356Y-89471336D01*
X155079779Y-89672013D01*
X155079775Y-89672024D01*
X155022465Y-89885907D01*
X155022464Y-89885914D01*
X155003166Y-90106498D01*
X155003166Y-90106501D01*
X155022464Y-90327085D01*
X155022465Y-90327092D01*
X155079775Y-90540975D01*
X155079779Y-90540986D01*
X155173356Y-90741663D01*
X155173358Y-90741667D01*
X155300368Y-90923055D01*
X155456945Y-91079632D01*
X155638333Y-91206642D01*
X155700328Y-91235550D01*
X155761591Y-91264118D01*
X155814031Y-91310290D01*
X155833183Y-91377483D01*
X155812967Y-91444365D01*
X155761591Y-91488882D01*
X155638336Y-91546356D01*
X155638334Y-91546357D01*
X155456944Y-91673368D01*
X155300368Y-91829944D01*
X155173357Y-92011334D01*
X155173356Y-92011336D01*
X155079779Y-92212013D01*
X155079775Y-92212024D01*
X155022465Y-92425907D01*
X155022464Y-92425914D01*
X155003166Y-92646498D01*
X155003166Y-92646501D01*
X155022464Y-92867085D01*
X155022465Y-92867092D01*
X155079775Y-93080975D01*
X155079779Y-93080986D01*
X155146694Y-93224486D01*
X155173358Y-93281667D01*
X155300368Y-93463055D01*
X155456945Y-93619632D01*
X155638333Y-93746642D01*
X155700328Y-93775550D01*
X155761591Y-93804118D01*
X155814031Y-93850290D01*
X155833183Y-93917483D01*
X155812967Y-93984365D01*
X155761591Y-94028882D01*
X155638336Y-94086356D01*
X155638334Y-94086357D01*
X155456944Y-94213368D01*
X155300368Y-94369944D01*
X155173357Y-94551334D01*
X155173356Y-94551336D01*
X155079779Y-94752013D01*
X155079775Y-94752024D01*
X155022465Y-94965907D01*
X155022464Y-94965914D01*
X155003166Y-95186498D01*
X155003166Y-95186501D01*
X155022464Y-95407085D01*
X155022465Y-95407092D01*
X155079775Y-95620975D01*
X155079779Y-95620986D01*
X155146694Y-95764486D01*
X155173358Y-95821667D01*
X155300368Y-96003055D01*
X155456945Y-96159632D01*
X155638333Y-96286642D01*
X155700328Y-96315550D01*
X155761591Y-96344118D01*
X155814031Y-96390290D01*
X155833183Y-96457483D01*
X155812967Y-96524365D01*
X155761591Y-96568882D01*
X155638336Y-96626356D01*
X155638334Y-96626357D01*
X155456944Y-96753368D01*
X155300368Y-96909944D01*
X155173357Y-97091334D01*
X155173356Y-97091336D01*
X155079779Y-97292013D01*
X155079775Y-97292024D01*
X155022465Y-97505907D01*
X155022464Y-97505914D01*
X155003166Y-97726498D01*
X155003166Y-97726501D01*
X146037780Y-97726501D01*
X146031035Y-97649409D01*
X145973723Y-97435520D01*
X145880142Y-97234833D01*
X145753132Y-97053445D01*
X145596555Y-96896868D01*
X145415167Y-96769858D01*
X145291907Y-96712381D01*
X145239468Y-96666210D01*
X145220316Y-96599017D01*
X145240531Y-96532136D01*
X145291908Y-96487618D01*
X145415167Y-96430142D01*
X145596555Y-96303132D01*
X145753132Y-96146555D01*
X145880142Y-95965167D01*
X145973723Y-95764480D01*
X146031035Y-95550591D01*
X146050334Y-95330000D01*
X146031035Y-95109409D01*
X145973723Y-94895520D01*
X145880142Y-94694833D01*
X145753132Y-94513445D01*
X145596555Y-94356868D01*
X145415167Y-94229858D01*
X145291907Y-94172381D01*
X145239468Y-94126210D01*
X145220316Y-94059017D01*
X145240531Y-93992136D01*
X145291908Y-93947618D01*
X145415167Y-93890142D01*
X145596555Y-93763132D01*
X145753132Y-93606555D01*
X145880142Y-93425167D01*
X145973723Y-93224480D01*
X146031035Y-93010591D01*
X146050334Y-92790000D01*
X146031035Y-92569409D01*
X145973723Y-92355520D01*
X145949417Y-92303396D01*
X145880143Y-92154836D01*
X145880142Y-92154834D01*
X145880142Y-92154833D01*
X145753132Y-91973445D01*
X145596555Y-91816868D01*
X145415167Y-91689858D01*
X145291907Y-91632381D01*
X145239468Y-91586210D01*
X145220316Y-91519017D01*
X145240531Y-91452136D01*
X145291908Y-91407618D01*
X145415167Y-91350142D01*
X145596555Y-91223132D01*
X145753132Y-91066555D01*
X145880142Y-90885167D01*
X145973723Y-90684480D01*
X146031035Y-90470591D01*
X146050334Y-90250000D01*
X146031035Y-90029409D01*
X145973723Y-89815520D01*
X145880142Y-89614833D01*
X145753132Y-89433445D01*
X145596555Y-89276868D01*
X145415167Y-89149858D01*
X145415163Y-89149856D01*
X145291317Y-89092106D01*
X145238877Y-89045934D01*
X145219725Y-88978741D01*
X145239941Y-88911859D01*
X145291317Y-88867342D01*
X145414912Y-88809708D01*
X145414914Y-88809707D01*
X145480342Y-88763894D01*
X144921366Y-88204918D01*
X144925161Y-88204373D01*
X145058562Y-88143451D01*
X145169395Y-88047413D01*
X145248682Y-87924040D01*
X145271133Y-87847580D01*
X145833894Y-88410342D01*
X145879706Y-88344915D01*
X145973250Y-88144309D01*
X145973254Y-88144300D01*
X146030538Y-87930509D01*
X146030540Y-87930499D01*
X146049832Y-87710000D01*
X146049832Y-87709999D01*
X146030540Y-87489500D01*
X146030538Y-87489490D01*
X145973254Y-87275699D01*
X145973250Y-87275690D01*
X145879707Y-87075085D01*
X145879706Y-87075083D01*
X145833894Y-87009657D01*
X145833894Y-87009656D01*
X145271132Y-87572418D01*
X145248682Y-87495960D01*
X145169395Y-87372587D01*
X145058562Y-87276549D01*
X144925161Y-87215627D01*
X144921366Y-87215081D01*
X145480342Y-86656105D01*
X145480341Y-86656103D01*
X145414919Y-86610295D01*
X145214309Y-86516749D01*
X145214300Y-86516745D01*
X145000509Y-86459461D01*
X145000499Y-86459459D01*
X144780001Y-86440168D01*
X144779999Y-86440168D01*
X144559500Y-86459459D01*
X144559490Y-86459461D01*
X144345699Y-86516745D01*
X144345690Y-86516749D01*
X144145084Y-86610293D01*
X144079657Y-86656104D01*
X144638634Y-87215081D01*
X144634839Y-87215627D01*
X144501438Y-87276549D01*
X144390605Y-87372587D01*
X144311318Y-87495960D01*
X144288866Y-87572419D01*
X143726104Y-87009657D01*
X143680293Y-87075084D01*
X143586749Y-87275690D01*
X143586745Y-87275699D01*
X143529461Y-87489490D01*
X143529459Y-87489500D01*
X143510168Y-87709999D01*
X143510168Y-87710000D01*
X143529459Y-87930499D01*
X143529461Y-87930509D01*
X143586745Y-88144300D01*
X143586749Y-88144309D01*
X143680295Y-88344919D01*
X143726103Y-88410341D01*
X143726105Y-88410342D01*
X144288866Y-87847580D01*
X144311318Y-87924040D01*
X144390605Y-88047413D01*
X144501438Y-88143451D01*
X144634839Y-88204373D01*
X144638633Y-88204918D01*
X144079656Y-88763894D01*
X144145083Y-88809706D01*
X144145085Y-88809707D01*
X144268683Y-88867342D01*
X144321122Y-88913514D01*
X144340274Y-88980708D01*
X144320058Y-89047589D01*
X144268683Y-89092106D01*
X144144833Y-89149857D01*
X143963444Y-89276868D01*
X143806868Y-89433444D01*
X143679857Y-89614834D01*
X143679856Y-89614836D01*
X143586279Y-89815513D01*
X143586275Y-89815524D01*
X143528965Y-90029407D01*
X143528964Y-90029414D01*
X143509666Y-90249998D01*
X143509666Y-90250001D01*
X143528964Y-90470585D01*
X143528965Y-90470592D01*
X143586275Y-90684475D01*
X143586279Y-90684486D01*
X143612943Y-90741667D01*
X143679858Y-90885167D01*
X143806868Y-91066555D01*
X143963445Y-91223132D01*
X144144833Y-91350142D01*
X144203467Y-91377483D01*
X144268091Y-91407618D01*
X144320531Y-91453790D01*
X144339683Y-91520983D01*
X144319467Y-91587865D01*
X144268091Y-91632382D01*
X144144836Y-91689856D01*
X144144834Y-91689857D01*
X143963444Y-91816868D01*
X143806868Y-91973444D01*
X143679857Y-92154834D01*
X143679856Y-92154836D01*
X143586279Y-92355513D01*
X143586275Y-92355524D01*
X143528965Y-92569407D01*
X143528964Y-92569414D01*
X143509666Y-92789998D01*
X143509666Y-92790001D01*
X143528964Y-93010585D01*
X143528965Y-93010592D01*
X143586275Y-93224475D01*
X143586279Y-93224486D01*
X143631051Y-93320500D01*
X143679858Y-93425167D01*
X143806868Y-93606555D01*
X143963445Y-93763132D01*
X144144833Y-93890142D01*
X144203467Y-93917483D01*
X144268091Y-93947618D01*
X144320531Y-93993790D01*
X144339683Y-94060983D01*
X144319467Y-94127865D01*
X144268091Y-94172382D01*
X144144836Y-94229856D01*
X144144834Y-94229857D01*
X143963444Y-94356868D01*
X143806868Y-94513444D01*
X143679857Y-94694834D01*
X143679856Y-94694836D01*
X143586279Y-94895513D01*
X143586275Y-94895524D01*
X143528965Y-95109407D01*
X143528964Y-95109414D01*
X143509666Y-95329998D01*
X143509666Y-95330001D01*
X143528964Y-95550585D01*
X143528965Y-95550592D01*
X143586275Y-95764475D01*
X143586279Y-95764486D01*
X143612943Y-95821667D01*
X143679858Y-95965167D01*
X143806868Y-96146555D01*
X143963445Y-96303132D01*
X144144833Y-96430142D01*
X144203467Y-96457483D01*
X144268091Y-96487618D01*
X144320531Y-96533790D01*
X144339683Y-96600983D01*
X144319467Y-96667865D01*
X144268091Y-96712382D01*
X144144836Y-96769856D01*
X144144834Y-96769857D01*
X143963444Y-96896868D01*
X143806868Y-97053444D01*
X143679857Y-97234834D01*
X143679856Y-97234836D01*
X143586279Y-97435513D01*
X143586275Y-97435524D01*
X143528965Y-97649407D01*
X143528964Y-97649414D01*
X143509666Y-97869998D01*
X143509666Y-97870001D01*
X143528964Y-98090585D01*
X143528965Y-98090592D01*
X143586275Y-98304475D01*
X143586279Y-98304486D01*
X143612943Y-98361667D01*
X143679858Y-98505167D01*
X143806868Y-98686555D01*
X143963445Y-98843132D01*
X144144833Y-98970142D01*
X144202075Y-98996834D01*
X144268091Y-99027618D01*
X144320531Y-99073790D01*
X144339683Y-99140983D01*
X144319467Y-99207865D01*
X144268091Y-99252382D01*
X144144836Y-99309856D01*
X144144834Y-99309857D01*
X143963444Y-99436868D01*
X143806868Y-99593444D01*
X143679857Y-99774834D01*
X143679856Y-99774836D01*
X143586279Y-99975513D01*
X143586275Y-99975524D01*
X143528965Y-100189407D01*
X143528964Y-100189414D01*
X143509666Y-100409998D01*
X143509666Y-100410001D01*
X143528964Y-100630585D01*
X143528965Y-100630592D01*
X143586275Y-100844475D01*
X143586279Y-100844486D01*
X143679856Y-101045163D01*
X143679858Y-101045167D01*
X143806868Y-101226555D01*
X143963445Y-101383132D01*
X144144833Y-101510142D01*
X144268682Y-101567893D01*
X144321122Y-101614065D01*
X144340274Y-101681258D01*
X144320059Y-101748139D01*
X144268683Y-101792657D01*
X144145084Y-101850293D01*
X144079657Y-101896104D01*
X144638634Y-102455081D01*
X144634839Y-102455627D01*
X144501438Y-102516549D01*
X144390605Y-102612587D01*
X144311318Y-102735960D01*
X144288866Y-102812419D01*
X143726104Y-102249657D01*
X143680293Y-102315084D01*
X143586749Y-102515690D01*
X143586745Y-102515699D01*
X143529461Y-102729490D01*
X143529459Y-102729500D01*
X143510168Y-102949999D01*
X143510168Y-102950000D01*
X143529459Y-103170499D01*
X143529461Y-103170509D01*
X143586745Y-103384300D01*
X143586749Y-103384309D01*
X143680295Y-103584919D01*
X143726103Y-103650341D01*
X143726105Y-103650342D01*
X144288866Y-103087580D01*
X144311318Y-103164040D01*
X144390605Y-103287413D01*
X144501438Y-103383451D01*
X144634839Y-103444373D01*
X144638633Y-103444918D01*
X144079656Y-104003894D01*
X144145083Y-104049706D01*
X144145085Y-104049707D01*
X144268683Y-104107342D01*
X144321122Y-104153514D01*
X144340274Y-104220708D01*
X144320058Y-104287589D01*
X144268683Y-104332106D01*
X144144833Y-104389857D01*
X143963444Y-104516868D01*
X143806868Y-104673444D01*
X143679857Y-104854834D01*
X143679856Y-104854836D01*
X143586279Y-105055513D01*
X143586275Y-105055524D01*
X143528965Y-105269407D01*
X143528964Y-105269414D01*
X143509666Y-105489998D01*
X143509666Y-105490001D01*
X143528964Y-105710585D01*
X143528965Y-105710592D01*
X143586275Y-105924475D01*
X143586279Y-105924486D01*
X143679856Y-106125163D01*
X143679858Y-106125167D01*
X143806868Y-106306555D01*
X143963445Y-106463132D01*
X144144833Y-106590142D01*
X144186347Y-106609500D01*
X144268091Y-106647618D01*
X144320531Y-106693790D01*
X144339683Y-106760983D01*
X144319467Y-106827865D01*
X144268091Y-106872382D01*
X144144836Y-106929856D01*
X144144834Y-106929857D01*
X143963444Y-107056868D01*
X143806868Y-107213444D01*
X143679857Y-107394834D01*
X143679856Y-107394836D01*
X143586279Y-107595513D01*
X143586275Y-107595524D01*
X143528965Y-107809407D01*
X143528964Y-107809414D01*
X143509666Y-108029998D01*
X143509666Y-108030001D01*
X143528964Y-108250585D01*
X143528965Y-108250592D01*
X143586275Y-108464475D01*
X143586279Y-108464486D01*
X143679856Y-108665163D01*
X143679858Y-108665167D01*
X143806868Y-108846555D01*
X143963445Y-109003132D01*
X144144833Y-109130142D01*
X144186347Y-109149500D01*
X144268091Y-109187618D01*
X144320531Y-109233790D01*
X144339683Y-109300983D01*
X144319467Y-109367865D01*
X144268091Y-109412382D01*
X144144836Y-109469856D01*
X144144834Y-109469857D01*
X143963444Y-109596868D01*
X143806868Y-109753444D01*
X143679857Y-109934834D01*
X143679856Y-109934836D01*
X143586279Y-110135513D01*
X143586275Y-110135524D01*
X143528965Y-110349407D01*
X143528964Y-110349414D01*
X143509666Y-110569998D01*
X143509666Y-110570001D01*
X143528964Y-110790585D01*
X143528965Y-110790592D01*
X143586275Y-111004475D01*
X143586279Y-111004486D01*
X143679856Y-111205163D01*
X143679858Y-111205167D01*
X143806868Y-111386555D01*
X143963445Y-111543132D01*
X144144833Y-111670142D01*
X144186347Y-111689500D01*
X144268091Y-111727618D01*
X144320531Y-111773790D01*
X144339683Y-111840983D01*
X144319467Y-111907865D01*
X144268091Y-111952382D01*
X144144836Y-112009856D01*
X144144834Y-112009857D01*
X143963444Y-112136868D01*
X143806868Y-112293444D01*
X143679857Y-112474834D01*
X143679856Y-112474836D01*
X143586279Y-112675513D01*
X143586275Y-112675524D01*
X143528965Y-112889407D01*
X143528964Y-112889414D01*
X143509666Y-113109998D01*
X143509666Y-113110001D01*
X143528964Y-113330585D01*
X143528965Y-113330592D01*
X143586275Y-113544475D01*
X143586279Y-113544486D01*
X143679856Y-113745163D01*
X143679858Y-113745167D01*
X143806868Y-113926555D01*
X143963445Y-114083132D01*
X144144833Y-114210142D01*
X144186347Y-114229500D01*
X144268091Y-114267618D01*
X144320531Y-114313790D01*
X144339683Y-114380983D01*
X144319467Y-114447865D01*
X144268091Y-114492382D01*
X144144836Y-114549856D01*
X144144834Y-114549857D01*
X143963444Y-114676868D01*
X143806868Y-114833444D01*
X143679857Y-115014834D01*
X143679856Y-115014836D01*
X143586279Y-115215513D01*
X143586275Y-115215524D01*
X143528965Y-115429407D01*
X143528964Y-115429414D01*
X143509666Y-115649998D01*
X143509666Y-115650001D01*
X143528964Y-115870585D01*
X143528965Y-115870592D01*
X143586275Y-116084475D01*
X143586279Y-116084486D01*
X143679856Y-116285163D01*
X143679858Y-116285167D01*
X143806868Y-116466555D01*
X143963445Y-116623132D01*
X144144833Y-116750142D01*
X144186347Y-116769500D01*
X144268091Y-116807618D01*
X144320531Y-116853790D01*
X144339683Y-116920983D01*
X144319467Y-116987865D01*
X144268091Y-117032382D01*
X144144836Y-117089856D01*
X144144834Y-117089857D01*
X143963444Y-117216868D01*
X143806868Y-117373444D01*
X143679857Y-117554834D01*
X143679856Y-117554836D01*
X143586279Y-117755513D01*
X143586275Y-117755524D01*
X143528965Y-117969407D01*
X143528964Y-117969414D01*
X143509666Y-118189998D01*
X143509666Y-118190001D01*
X143528964Y-118410585D01*
X143528965Y-118410592D01*
X143586275Y-118624475D01*
X143586279Y-118624486D01*
X143679856Y-118825163D01*
X143679858Y-118825167D01*
X143806868Y-119006555D01*
X143963445Y-119163132D01*
X144144833Y-119290142D01*
X144186347Y-119309500D01*
X144268091Y-119347618D01*
X144320531Y-119393790D01*
X144339683Y-119460983D01*
X144319467Y-119527865D01*
X144268091Y-119572382D01*
X144144836Y-119629856D01*
X144144834Y-119629857D01*
X143963444Y-119756868D01*
X143806868Y-119913444D01*
X143679857Y-120094834D01*
X143679856Y-120094836D01*
X143586279Y-120295513D01*
X143586275Y-120295524D01*
X143528965Y-120509407D01*
X143528964Y-120509414D01*
X143509666Y-120729998D01*
X143509666Y-120730001D01*
X143528964Y-120950585D01*
X143528965Y-120950592D01*
X143586275Y-121164475D01*
X143586279Y-121164486D01*
X143679664Y-121364751D01*
X143679858Y-121365167D01*
X143806868Y-121546555D01*
X143963445Y-121703132D01*
X144144833Y-121830142D01*
X144206828Y-121859050D01*
X144268091Y-121887618D01*
X144320531Y-121933790D01*
X144339683Y-122000983D01*
X144319467Y-122067865D01*
X144268091Y-122112382D01*
X144144836Y-122169856D01*
X144144834Y-122169857D01*
X143963444Y-122296868D01*
X143806868Y-122453444D01*
X143679857Y-122634834D01*
X143679856Y-122634836D01*
X143586279Y-122835513D01*
X143586275Y-122835524D01*
X143528965Y-123049407D01*
X143528964Y-123049414D01*
X143509666Y-123269998D01*
X143509666Y-123270001D01*
X143528964Y-123490585D01*
X143528965Y-123490592D01*
X143586275Y-123704475D01*
X143586279Y-123704486D01*
X143679856Y-123905163D01*
X143679858Y-123905167D01*
X143806868Y-124086555D01*
X143963445Y-124243132D01*
X144144833Y-124370142D01*
X144206828Y-124399050D01*
X144268091Y-124427618D01*
X144320531Y-124473790D01*
X144339683Y-124540983D01*
X144319467Y-124607865D01*
X144268091Y-124652382D01*
X144144836Y-124709856D01*
X144144834Y-124709857D01*
X143963444Y-124836868D01*
X143806868Y-124993444D01*
X143679857Y-125174834D01*
X143679856Y-125174836D01*
X143586279Y-125375513D01*
X143586275Y-125375524D01*
X143528965Y-125589407D01*
X143528964Y-125589414D01*
X143509666Y-125809998D01*
X143509666Y-125810001D01*
X143528964Y-126030585D01*
X143528965Y-126030592D01*
X143586275Y-126244475D01*
X143586279Y-126244486D01*
X143679856Y-126445163D01*
X143679858Y-126445167D01*
X143806868Y-126626555D01*
X143963445Y-126783132D01*
X144144833Y-126910142D01*
X144206828Y-126939050D01*
X144268091Y-126967618D01*
X144320531Y-127013790D01*
X144339683Y-127080983D01*
X144319467Y-127147865D01*
X144268091Y-127192382D01*
X144144836Y-127249856D01*
X144144834Y-127249857D01*
X143963444Y-127376868D01*
X143806868Y-127533444D01*
X143679857Y-127714834D01*
X143679856Y-127714836D01*
X143586279Y-127915513D01*
X143586275Y-127915524D01*
X143528965Y-128129407D01*
X143528964Y-128129414D01*
X143509666Y-128349998D01*
X143509666Y-128350001D01*
X143528964Y-128570585D01*
X143528965Y-128570592D01*
X143586275Y-128784475D01*
X143586279Y-128784486D01*
X143634323Y-128887516D01*
X143679858Y-128985167D01*
X143806868Y-129166555D01*
X143963445Y-129323132D01*
X144144833Y-129450142D01*
X144206828Y-129479050D01*
X144268091Y-129507618D01*
X144320531Y-129553790D01*
X144339683Y-129620983D01*
X144319467Y-129687865D01*
X144268091Y-129732382D01*
X144144836Y-129789856D01*
X144144834Y-129789857D01*
X143963444Y-129916868D01*
X143806868Y-130073444D01*
X143679857Y-130254834D01*
X143679856Y-130254836D01*
X143586279Y-130455513D01*
X143586275Y-130455524D01*
X143528965Y-130669407D01*
X143528964Y-130669414D01*
X143509666Y-130889998D01*
X143509666Y-130890001D01*
X143528964Y-131110585D01*
X143528965Y-131110592D01*
X143586275Y-131324475D01*
X143586279Y-131324486D01*
X143659224Y-131480917D01*
X143679858Y-131525167D01*
X143806868Y-131706555D01*
X143963445Y-131863132D01*
X144144833Y-131990142D01*
X144192212Y-132012235D01*
X144268091Y-132047618D01*
X144320531Y-132093790D01*
X144339683Y-132160983D01*
X144319467Y-132227865D01*
X144268091Y-132272382D01*
X144144836Y-132329856D01*
X144144834Y-132329857D01*
X143963444Y-132456868D01*
X143806868Y-132613444D01*
X143679857Y-132794834D01*
X143679856Y-132794836D01*
X143586279Y-132995513D01*
X143586275Y-132995524D01*
X143528965Y-133209407D01*
X143528964Y-133209414D01*
X143509666Y-133429998D01*
X143509666Y-133430001D01*
X120650334Y-133430001D01*
X120650334Y-133430000D01*
X120631035Y-133209409D01*
X120573723Y-132995520D01*
X120480142Y-132794833D01*
X120353132Y-132613445D01*
X120196555Y-132456868D01*
X120015167Y-132329858D01*
X119891907Y-132272381D01*
X119839468Y-132226210D01*
X119820316Y-132159017D01*
X119840531Y-132092136D01*
X119891908Y-132047618D01*
X120015167Y-131990142D01*
X120196555Y-131863132D01*
X120353132Y-131706555D01*
X120480142Y-131525167D01*
X120573723Y-131324480D01*
X120631035Y-131110591D01*
X120650334Y-130890000D01*
X120649911Y-130885169D01*
X120641776Y-130792180D01*
X120631035Y-130669409D01*
X120573723Y-130455520D01*
X120569975Y-130447483D01*
X120523110Y-130346980D01*
X120480142Y-130254833D01*
X120353132Y-130073445D01*
X120196555Y-129916868D01*
X120015167Y-129789858D01*
X119965287Y-129766599D01*
X119891908Y-129732382D01*
X119839468Y-129686210D01*
X119820316Y-129619017D01*
X119840531Y-129552136D01*
X119891908Y-129507618D01*
X120015167Y-129450142D01*
X120196555Y-129323132D01*
X120353132Y-129166555D01*
X120480142Y-128985167D01*
X120573723Y-128784480D01*
X120631035Y-128570591D01*
X120650334Y-128350000D01*
X120631035Y-128129409D01*
X120573723Y-127915520D01*
X120480142Y-127714833D01*
X120353132Y-127533445D01*
X120196555Y-127376868D01*
X120015167Y-127249858D01*
X119891907Y-127192381D01*
X119839468Y-127146210D01*
X119820316Y-127079017D01*
X119840531Y-127012136D01*
X119891908Y-126967618D01*
X120015167Y-126910142D01*
X120196555Y-126783132D01*
X120353132Y-126626555D01*
X120480142Y-126445167D01*
X120573723Y-126244480D01*
X120631035Y-126030591D01*
X120650334Y-125810000D01*
X120631035Y-125589409D01*
X120573723Y-125375520D01*
X120480142Y-125174833D01*
X120353132Y-124993445D01*
X120196555Y-124836868D01*
X120015167Y-124709858D01*
X119891907Y-124652381D01*
X119839468Y-124606210D01*
X119820316Y-124539017D01*
X119840531Y-124472136D01*
X119891908Y-124427618D01*
X120015167Y-124370142D01*
X120196555Y-124243132D01*
X120353132Y-124086555D01*
X120480142Y-123905167D01*
X120573723Y-123704480D01*
X120631035Y-123490591D01*
X120650334Y-123270000D01*
X120631035Y-123049409D01*
X120573723Y-122835520D01*
X120480142Y-122634833D01*
X120353132Y-122453445D01*
X120196555Y-122296868D01*
X120015167Y-122169858D01*
X120015163Y-122169856D01*
X119891317Y-122112106D01*
X119838877Y-122065934D01*
X119819725Y-121998741D01*
X119839941Y-121931859D01*
X119891317Y-121887342D01*
X120014912Y-121829708D01*
X120014914Y-121829707D01*
X120080342Y-121783894D01*
X119521366Y-121224918D01*
X119525161Y-121224373D01*
X119658562Y-121163451D01*
X119769395Y-121067413D01*
X119848682Y-120944040D01*
X119871133Y-120867580D01*
X120433894Y-121430342D01*
X120479706Y-121364915D01*
X120573250Y-121164309D01*
X120573254Y-121164300D01*
X120630538Y-120950509D01*
X120630540Y-120950499D01*
X120649832Y-120730000D01*
X120649832Y-120729999D01*
X120630540Y-120509500D01*
X120630538Y-120509490D01*
X120573254Y-120295699D01*
X120573250Y-120295690D01*
X120479707Y-120095085D01*
X120479706Y-120095083D01*
X120433894Y-120029657D01*
X120433894Y-120029656D01*
X119871132Y-120592418D01*
X119848682Y-120515960D01*
X119769395Y-120392587D01*
X119658562Y-120296549D01*
X119525161Y-120235627D01*
X119521366Y-120235081D01*
X120080342Y-119676105D01*
X120080341Y-119676103D01*
X120014919Y-119630295D01*
X119891316Y-119572657D01*
X119838877Y-119526484D01*
X119819725Y-119459291D01*
X119839941Y-119392410D01*
X119891312Y-119347895D01*
X120015167Y-119290142D01*
X120196555Y-119163132D01*
X120353132Y-119006555D01*
X120480142Y-118825167D01*
X120573723Y-118624480D01*
X120631035Y-118410591D01*
X120650334Y-118190000D01*
X120631035Y-117969409D01*
X120573723Y-117755520D01*
X120480142Y-117554833D01*
X120353132Y-117373445D01*
X120196555Y-117216868D01*
X120015167Y-117089858D01*
X119891907Y-117032381D01*
X119839468Y-116986210D01*
X119820316Y-116919017D01*
X119840531Y-116852136D01*
X119891908Y-116807618D01*
X120015167Y-116750142D01*
X120196555Y-116623132D01*
X120353132Y-116466555D01*
X120480142Y-116285167D01*
X120573723Y-116084480D01*
X120631035Y-115870591D01*
X120650334Y-115650000D01*
X120631035Y-115429409D01*
X120573723Y-115215520D01*
X120568748Y-115204852D01*
X120510626Y-115080207D01*
X120480142Y-115014833D01*
X120353132Y-114833445D01*
X120196555Y-114676868D01*
X120015167Y-114549858D01*
X119891907Y-114492381D01*
X119839468Y-114446210D01*
X119820316Y-114379017D01*
X119840531Y-114312136D01*
X119891908Y-114267618D01*
X120015167Y-114210142D01*
X120196555Y-114083132D01*
X120353132Y-113926555D01*
X120480142Y-113745167D01*
X120573723Y-113544480D01*
X120631035Y-113330591D01*
X120650334Y-113110000D01*
X120631035Y-112889409D01*
X120573723Y-112675520D01*
X120480142Y-112474833D01*
X120353132Y-112293445D01*
X120196555Y-112136868D01*
X120015167Y-112009858D01*
X119891907Y-111952381D01*
X119839468Y-111906210D01*
X119820316Y-111839017D01*
X119840531Y-111772136D01*
X119891908Y-111727618D01*
X120015167Y-111670142D01*
X120196555Y-111543132D01*
X120353132Y-111386555D01*
X120480142Y-111205167D01*
X120573723Y-111004480D01*
X120631035Y-110790591D01*
X120650334Y-110570000D01*
X120631035Y-110349409D01*
X120573723Y-110135520D01*
X120480142Y-109934833D01*
X120353132Y-109753445D01*
X120196555Y-109596868D01*
X120015167Y-109469858D01*
X119891907Y-109412381D01*
X119839468Y-109366210D01*
X119820316Y-109299017D01*
X119840531Y-109232136D01*
X119891908Y-109187618D01*
X120015167Y-109130142D01*
X120196555Y-109003132D01*
X120353132Y-108846555D01*
X120480142Y-108665167D01*
X120573723Y-108464480D01*
X120631035Y-108250591D01*
X120650334Y-108030000D01*
X120631035Y-107809409D01*
X120573723Y-107595520D01*
X120480142Y-107394833D01*
X120353132Y-107213445D01*
X120196555Y-107056868D01*
X120015167Y-106929858D01*
X119891907Y-106872381D01*
X119839468Y-106826210D01*
X119820316Y-106759017D01*
X119840531Y-106692136D01*
X119891908Y-106647618D01*
X120015167Y-106590142D01*
X120196555Y-106463132D01*
X120353132Y-106306555D01*
X120480142Y-106125167D01*
X120573723Y-105924480D01*
X120631035Y-105710591D01*
X120650334Y-105490000D01*
X120631035Y-105269409D01*
X120573723Y-105055520D01*
X120480142Y-104854833D01*
X120353132Y-104673445D01*
X120196555Y-104516868D01*
X120015167Y-104389858D01*
X119891907Y-104332381D01*
X119839468Y-104286210D01*
X119820316Y-104219017D01*
X119840531Y-104152136D01*
X119891908Y-104107618D01*
X119892500Y-104107342D01*
X120015167Y-104050142D01*
X120196555Y-103923132D01*
X120353132Y-103766555D01*
X120480142Y-103585167D01*
X120573723Y-103384480D01*
X120631035Y-103170591D01*
X120650334Y-102950000D01*
X120631035Y-102729409D01*
X120573723Y-102515520D01*
X120568748Y-102504852D01*
X120516104Y-102391955D01*
X120480142Y-102314833D01*
X120353132Y-102133445D01*
X120196555Y-101976868D01*
X120015167Y-101849858D01*
X119891907Y-101792381D01*
X119839468Y-101746210D01*
X119820316Y-101679017D01*
X119840531Y-101612136D01*
X119891908Y-101567618D01*
X120015167Y-101510142D01*
X120196555Y-101383132D01*
X120353132Y-101226555D01*
X120480142Y-101045167D01*
X120573723Y-100844480D01*
X120631035Y-100630591D01*
X120650334Y-100410000D01*
X120631035Y-100189409D01*
X120573723Y-99975520D01*
X120480142Y-99774833D01*
X120353132Y-99593445D01*
X120196555Y-99436868D01*
X120015167Y-99309858D01*
X119891907Y-99252381D01*
X119839468Y-99206210D01*
X119820316Y-99139017D01*
X119840531Y-99072136D01*
X119891908Y-99027618D01*
X120015167Y-98970142D01*
X120196555Y-98843132D01*
X120353132Y-98686555D01*
X120480142Y-98505167D01*
X120573723Y-98304480D01*
X120631035Y-98090591D01*
X120650334Y-97870000D01*
X120631035Y-97649409D01*
X120573723Y-97435520D01*
X120480142Y-97234833D01*
X120353132Y-97053445D01*
X120196555Y-96896868D01*
X120015167Y-96769858D01*
X119891907Y-96712381D01*
X119839468Y-96666210D01*
X119820316Y-96599017D01*
X119840531Y-96532136D01*
X119891908Y-96487618D01*
X120015167Y-96430142D01*
X120196555Y-96303132D01*
X120353132Y-96146555D01*
X120480142Y-95965167D01*
X120573723Y-95764480D01*
X120631035Y-95550591D01*
X120650334Y-95330000D01*
X120631035Y-95109409D01*
X120573723Y-94895520D01*
X120480142Y-94694833D01*
X120353132Y-94513445D01*
X120196555Y-94356868D01*
X120015167Y-94229858D01*
X119891907Y-94172381D01*
X119839468Y-94126210D01*
X119820316Y-94059017D01*
X119840531Y-93992136D01*
X119891908Y-93947618D01*
X120015167Y-93890142D01*
X120196555Y-93763132D01*
X120353132Y-93606555D01*
X120480142Y-93425167D01*
X120573723Y-93224480D01*
X120631035Y-93010591D01*
X120650334Y-92790000D01*
X120631035Y-92569409D01*
X120573723Y-92355520D01*
X120549417Y-92303396D01*
X120480143Y-92154836D01*
X120480142Y-92154834D01*
X120480142Y-92154833D01*
X120353132Y-91973445D01*
X120196555Y-91816868D01*
X120015167Y-91689858D01*
X119891907Y-91632381D01*
X119839468Y-91586210D01*
X119820316Y-91519017D01*
X119840531Y-91452136D01*
X119891908Y-91407618D01*
X120015167Y-91350142D01*
X120196555Y-91223132D01*
X120353132Y-91066555D01*
X120480142Y-90885167D01*
X120573723Y-90684480D01*
X120631035Y-90470591D01*
X120650334Y-90250000D01*
X120631035Y-90029409D01*
X120573723Y-89815520D01*
X120480142Y-89614833D01*
X120353132Y-89433445D01*
X120196555Y-89276868D01*
X120196552Y-89276866D01*
X120196550Y-89276864D01*
X120137495Y-89235513D01*
X120088309Y-89201073D01*
X120044685Y-89146497D01*
X120037491Y-89076999D01*
X120069014Y-89014644D01*
X120129244Y-88979230D01*
X120159432Y-88975499D01*
X120192872Y-88975499D01*
X120252483Y-88969091D01*
X120387331Y-88918796D01*
X120502546Y-88832546D01*
X120588796Y-88717331D01*
X120639091Y-88582483D01*
X120645500Y-88522873D01*
X120645499Y-86897128D01*
X120639091Y-86837517D01*
X120606428Y-86749944D01*
X120588797Y-86702671D01*
X120588793Y-86702664D01*
X120502547Y-86587455D01*
X120502544Y-86587452D01*
X120387335Y-86501206D01*
X120387328Y-86501202D01*
X120252482Y-86450908D01*
X120252483Y-86450908D01*
X120192883Y-86444501D01*
X120192881Y-86444500D01*
X120192873Y-86444500D01*
X120192864Y-86444500D01*
X118567129Y-86444500D01*
X118567123Y-86444501D01*
X118507516Y-86450908D01*
X118372671Y-86501202D01*
X118372664Y-86501206D01*
X118257455Y-86587452D01*
X118257452Y-86587455D01*
X118171206Y-86702664D01*
X118171202Y-86702671D01*
X118120908Y-86837517D01*
X118114501Y-86897116D01*
X118114501Y-86897123D01*
X118114500Y-86897135D01*
X118114500Y-88522870D01*
X118114501Y-88522876D01*
X118120908Y-88582483D01*
X118171202Y-88717328D01*
X118171206Y-88717335D01*
X118257452Y-88832544D01*
X118257455Y-88832547D01*
X118372664Y-88918793D01*
X118372671Y-88918797D01*
X118507517Y-88969091D01*
X118507516Y-88969091D01*
X118514444Y-88969835D01*
X118567127Y-88975500D01*
X118600564Y-88975499D01*
X118667601Y-88995182D01*
X118713357Y-89047984D01*
X118723302Y-89117143D01*
X118694279Y-89180699D01*
X118671689Y-89201073D01*
X118563447Y-89276866D01*
X118563441Y-89276871D01*
X118406868Y-89433444D01*
X118279857Y-89614834D01*
X118279856Y-89614836D01*
X118186279Y-89815513D01*
X118186275Y-89815524D01*
X118128965Y-90029407D01*
X118128964Y-90029414D01*
X118109666Y-90249998D01*
X118109666Y-90250001D01*
X118128964Y-90470585D01*
X118128965Y-90470592D01*
X118186275Y-90684475D01*
X118186279Y-90684486D01*
X118212943Y-90741667D01*
X118279858Y-90885167D01*
X118406868Y-91066555D01*
X118563445Y-91223132D01*
X118744833Y-91350142D01*
X118803467Y-91377483D01*
X118868091Y-91407618D01*
X118920531Y-91453790D01*
X118939683Y-91520983D01*
X118919467Y-91587865D01*
X118868091Y-91632382D01*
X118744836Y-91689856D01*
X118744834Y-91689857D01*
X118563444Y-91816868D01*
X118406868Y-91973444D01*
X118279857Y-92154834D01*
X118279856Y-92154836D01*
X118186279Y-92355513D01*
X118186275Y-92355524D01*
X118128965Y-92569407D01*
X118128964Y-92569414D01*
X118109666Y-92789998D01*
X118109666Y-92790001D01*
X118128964Y-93010585D01*
X118128965Y-93010592D01*
X118186275Y-93224475D01*
X118186279Y-93224486D01*
X118231051Y-93320500D01*
X118279858Y-93425167D01*
X118406868Y-93606555D01*
X118563445Y-93763132D01*
X118744833Y-93890142D01*
X118803467Y-93917483D01*
X118868091Y-93947618D01*
X118920531Y-93993790D01*
X118939683Y-94060983D01*
X118919467Y-94127865D01*
X118868091Y-94172382D01*
X118744836Y-94229856D01*
X118744834Y-94229857D01*
X118563444Y-94356868D01*
X118406868Y-94513444D01*
X118279857Y-94694834D01*
X118279856Y-94694836D01*
X118186279Y-94895513D01*
X118186275Y-94895524D01*
X118128965Y-95109407D01*
X118128964Y-95109414D01*
X118109666Y-95329998D01*
X118109666Y-95330001D01*
X118128964Y-95550585D01*
X118128965Y-95550592D01*
X118186275Y-95764475D01*
X118186279Y-95764486D01*
X118212943Y-95821667D01*
X118279858Y-95965167D01*
X118406868Y-96146555D01*
X118563445Y-96303132D01*
X118744833Y-96430142D01*
X118803467Y-96457483D01*
X118868091Y-96487618D01*
X118920531Y-96533790D01*
X118939683Y-96600983D01*
X118919467Y-96667865D01*
X118868091Y-96712382D01*
X118744836Y-96769856D01*
X118744834Y-96769857D01*
X118563444Y-96896868D01*
X118406868Y-97053444D01*
X118279857Y-97234834D01*
X118279856Y-97234836D01*
X118186279Y-97435513D01*
X118186275Y-97435524D01*
X118128965Y-97649407D01*
X118128964Y-97649414D01*
X118109666Y-97869998D01*
X118109666Y-97870001D01*
X118128964Y-98090585D01*
X118128965Y-98090592D01*
X118186275Y-98304475D01*
X118186279Y-98304486D01*
X118212943Y-98361667D01*
X118279858Y-98505167D01*
X118406868Y-98686555D01*
X118563445Y-98843132D01*
X118744833Y-98970142D01*
X118802075Y-98996834D01*
X118868091Y-99027618D01*
X118920531Y-99073790D01*
X118939683Y-99140983D01*
X118919467Y-99207865D01*
X118868091Y-99252382D01*
X118744836Y-99309856D01*
X118744834Y-99309857D01*
X118563444Y-99436868D01*
X118406868Y-99593444D01*
X118279857Y-99774834D01*
X118279856Y-99774836D01*
X118186279Y-99975513D01*
X118186275Y-99975524D01*
X118128965Y-100189407D01*
X118128964Y-100189414D01*
X118109666Y-100409998D01*
X118109666Y-100410001D01*
X118128964Y-100630585D01*
X118128965Y-100630592D01*
X118186275Y-100844475D01*
X118186279Y-100844486D01*
X118279856Y-101045163D01*
X118279858Y-101045167D01*
X118406868Y-101226555D01*
X118563445Y-101383132D01*
X118744833Y-101510142D01*
X118787419Y-101530000D01*
X118868091Y-101567618D01*
X118920531Y-101613790D01*
X118939683Y-101680983D01*
X118919467Y-101747865D01*
X118868091Y-101792382D01*
X118744836Y-101849856D01*
X118744834Y-101849857D01*
X118563444Y-101976868D01*
X118406868Y-102133444D01*
X118279857Y-102314834D01*
X118279856Y-102314836D01*
X118186279Y-102515513D01*
X118186275Y-102515524D01*
X118128965Y-102729407D01*
X118128964Y-102729414D01*
X118109666Y-102949998D01*
X118109666Y-102950001D01*
X118128964Y-103170585D01*
X118128965Y-103170592D01*
X118186275Y-103384475D01*
X118186279Y-103384486D01*
X118267929Y-103559586D01*
X118279858Y-103585167D01*
X118406868Y-103766555D01*
X118563445Y-103923132D01*
X118744833Y-104050142D01*
X118786347Y-104069500D01*
X118868091Y-104107618D01*
X118920531Y-104153790D01*
X118939683Y-104220983D01*
X118919467Y-104287865D01*
X118868091Y-104332382D01*
X118744836Y-104389856D01*
X118744834Y-104389857D01*
X118563444Y-104516868D01*
X118406868Y-104673444D01*
X118279857Y-104854834D01*
X118279856Y-104854836D01*
X118186279Y-105055513D01*
X118186275Y-105055524D01*
X118128965Y-105269407D01*
X118128964Y-105269414D01*
X118109666Y-105489998D01*
X118109666Y-105490001D01*
X118128964Y-105710585D01*
X118128965Y-105710592D01*
X118186275Y-105924475D01*
X118186279Y-105924486D01*
X118279856Y-106125163D01*
X118279858Y-106125167D01*
X118406868Y-106306555D01*
X118563445Y-106463132D01*
X118744833Y-106590142D01*
X118786347Y-106609500D01*
X118868091Y-106647618D01*
X118920531Y-106693790D01*
X118939683Y-106760983D01*
X118919467Y-106827865D01*
X118868091Y-106872382D01*
X118744836Y-106929856D01*
X118744834Y-106929857D01*
X118563444Y-107056868D01*
X118406868Y-107213444D01*
X118279857Y-107394834D01*
X118279856Y-107394836D01*
X118186279Y-107595513D01*
X118186275Y-107595524D01*
X118128965Y-107809407D01*
X118128964Y-107809414D01*
X118109666Y-108029998D01*
X118109666Y-108030001D01*
X118128964Y-108250585D01*
X118128965Y-108250592D01*
X118186275Y-108464475D01*
X118186279Y-108464486D01*
X118279856Y-108665163D01*
X118279858Y-108665167D01*
X118406868Y-108846555D01*
X118563445Y-109003132D01*
X118744833Y-109130142D01*
X118786347Y-109149500D01*
X118868091Y-109187618D01*
X118920531Y-109233790D01*
X118939683Y-109300983D01*
X118919467Y-109367865D01*
X118868091Y-109412382D01*
X118744836Y-109469856D01*
X118744834Y-109469857D01*
X118563444Y-109596868D01*
X118406868Y-109753444D01*
X118279857Y-109934834D01*
X118279856Y-109934836D01*
X118186279Y-110135513D01*
X118186275Y-110135524D01*
X118128965Y-110349407D01*
X118128964Y-110349414D01*
X118109666Y-110569998D01*
X118109666Y-110570001D01*
X118128964Y-110790585D01*
X118128965Y-110790592D01*
X118186275Y-111004475D01*
X118186279Y-111004486D01*
X118279856Y-111205163D01*
X118279858Y-111205167D01*
X118406868Y-111386555D01*
X118563445Y-111543132D01*
X118744833Y-111670142D01*
X118786347Y-111689500D01*
X118868091Y-111727618D01*
X118920531Y-111773790D01*
X118939683Y-111840983D01*
X118919467Y-111907865D01*
X118868091Y-111952382D01*
X118744836Y-112009856D01*
X118744834Y-112009857D01*
X118563444Y-112136868D01*
X118406868Y-112293444D01*
X118279857Y-112474834D01*
X118279856Y-112474836D01*
X118186279Y-112675513D01*
X118186275Y-112675524D01*
X118128965Y-112889407D01*
X118128964Y-112889414D01*
X118109666Y-113109998D01*
X118109666Y-113110001D01*
X118128964Y-113330585D01*
X118128965Y-113330592D01*
X118186275Y-113544475D01*
X118186279Y-113544486D01*
X118279856Y-113745163D01*
X118279858Y-113745167D01*
X118406868Y-113926555D01*
X118563445Y-114083132D01*
X118744833Y-114210142D01*
X118786347Y-114229500D01*
X118868091Y-114267618D01*
X118920531Y-114313790D01*
X118939683Y-114380983D01*
X118919467Y-114447865D01*
X118868091Y-114492382D01*
X118744836Y-114549856D01*
X118744834Y-114549857D01*
X118563444Y-114676868D01*
X118406868Y-114833444D01*
X118279857Y-115014834D01*
X118279856Y-115014836D01*
X118186279Y-115215513D01*
X118186275Y-115215524D01*
X118128965Y-115429407D01*
X118128964Y-115429414D01*
X118109666Y-115649998D01*
X118109666Y-115650001D01*
X118128964Y-115870585D01*
X118128965Y-115870592D01*
X118186275Y-116084475D01*
X118186279Y-116084486D01*
X118279856Y-116285163D01*
X118279858Y-116285167D01*
X118406868Y-116466555D01*
X118563445Y-116623132D01*
X118744833Y-116750142D01*
X118786347Y-116769500D01*
X118868091Y-116807618D01*
X118920531Y-116853790D01*
X118939683Y-116920983D01*
X118919467Y-116987865D01*
X118868091Y-117032382D01*
X118744836Y-117089856D01*
X118744834Y-117089857D01*
X118563444Y-117216868D01*
X118406868Y-117373444D01*
X118279857Y-117554834D01*
X118279856Y-117554836D01*
X118186279Y-117755513D01*
X118186275Y-117755524D01*
X118128965Y-117969407D01*
X118128964Y-117969414D01*
X118109666Y-118189998D01*
X118109666Y-118190001D01*
X118128964Y-118410585D01*
X118128965Y-118410592D01*
X118186275Y-118624475D01*
X118186279Y-118624486D01*
X118279856Y-118825163D01*
X118279858Y-118825167D01*
X118406868Y-119006555D01*
X118563445Y-119163132D01*
X118744833Y-119290142D01*
X118868682Y-119347893D01*
X118921122Y-119394065D01*
X118940274Y-119461258D01*
X118920059Y-119528139D01*
X118868683Y-119572657D01*
X118745084Y-119630293D01*
X118679657Y-119676104D01*
X119238634Y-120235081D01*
X119234839Y-120235627D01*
X119101438Y-120296549D01*
X118990605Y-120392587D01*
X118911318Y-120515960D01*
X118888866Y-120592419D01*
X118326104Y-120029657D01*
X118280293Y-120095084D01*
X118186749Y-120295690D01*
X118186745Y-120295699D01*
X118129461Y-120509490D01*
X118129459Y-120509500D01*
X118110168Y-120729999D01*
X118110168Y-120730000D01*
X118129459Y-120950499D01*
X118129461Y-120950509D01*
X118186745Y-121164300D01*
X118186749Y-121164309D01*
X118280295Y-121364919D01*
X118326103Y-121430341D01*
X118326105Y-121430342D01*
X118888866Y-120867580D01*
X118911318Y-120944040D01*
X118990605Y-121067413D01*
X119101438Y-121163451D01*
X119234839Y-121224373D01*
X119238633Y-121224918D01*
X118679656Y-121783894D01*
X118745083Y-121829706D01*
X118745085Y-121829707D01*
X118868683Y-121887342D01*
X118921122Y-121933514D01*
X118940274Y-122000708D01*
X118920058Y-122067589D01*
X118868683Y-122112106D01*
X118744833Y-122169857D01*
X118563444Y-122296868D01*
X118406868Y-122453444D01*
X118279857Y-122634834D01*
X118279856Y-122634836D01*
X118186279Y-122835513D01*
X118186275Y-122835524D01*
X118128965Y-123049407D01*
X118128964Y-123049414D01*
X118109666Y-123269998D01*
X118109666Y-123270001D01*
X118128964Y-123490585D01*
X118128965Y-123490592D01*
X118186275Y-123704475D01*
X118186279Y-123704486D01*
X118279856Y-123905163D01*
X118279858Y-123905167D01*
X118406868Y-124086555D01*
X118563445Y-124243132D01*
X118744833Y-124370142D01*
X118806828Y-124399050D01*
X118868091Y-124427618D01*
X118920531Y-124473790D01*
X118939683Y-124540983D01*
X118919467Y-124607865D01*
X118868091Y-124652382D01*
X118744836Y-124709856D01*
X118744834Y-124709857D01*
X118563444Y-124836868D01*
X118406868Y-124993444D01*
X118279857Y-125174834D01*
X118279856Y-125174836D01*
X118186279Y-125375513D01*
X118186275Y-125375524D01*
X118128965Y-125589407D01*
X118128964Y-125589414D01*
X118109666Y-125809998D01*
X118109666Y-125810001D01*
X118128964Y-126030585D01*
X118128965Y-126030592D01*
X118186275Y-126244475D01*
X118186279Y-126244486D01*
X118279856Y-126445163D01*
X118279858Y-126445167D01*
X118406868Y-126626555D01*
X118563445Y-126783132D01*
X118744833Y-126910142D01*
X118806828Y-126939050D01*
X118868091Y-126967618D01*
X118920531Y-127013790D01*
X118939683Y-127080983D01*
X118919467Y-127147865D01*
X118868091Y-127192382D01*
X118744836Y-127249856D01*
X118744834Y-127249857D01*
X118563444Y-127376868D01*
X118406868Y-127533444D01*
X118279857Y-127714834D01*
X118279856Y-127714836D01*
X118186279Y-127915513D01*
X118186275Y-127915524D01*
X118128965Y-128129407D01*
X118128964Y-128129414D01*
X118109666Y-128349998D01*
X118109666Y-128350001D01*
X118128964Y-128570585D01*
X118128965Y-128570592D01*
X118186275Y-128784475D01*
X118186279Y-128784486D01*
X118234323Y-128887516D01*
X118279858Y-128985167D01*
X118406868Y-129166555D01*
X118563445Y-129323132D01*
X118744833Y-129450142D01*
X118806828Y-129479050D01*
X118868091Y-129507618D01*
X118920531Y-129553790D01*
X118939683Y-129620983D01*
X118919467Y-129687865D01*
X118868091Y-129732382D01*
X118744836Y-129789856D01*
X118744834Y-129789857D01*
X118563444Y-129916868D01*
X118406868Y-130073444D01*
X118279857Y-130254834D01*
X118279856Y-130254836D01*
X118186279Y-130455513D01*
X118186275Y-130455524D01*
X118128965Y-130669407D01*
X118128964Y-130669414D01*
X118109666Y-130889998D01*
X118109666Y-130890001D01*
X118128964Y-131110585D01*
X118128965Y-131110592D01*
X118186275Y-131324475D01*
X118186279Y-131324486D01*
X118259224Y-131480917D01*
X118279858Y-131525167D01*
X118406868Y-131706555D01*
X118563445Y-131863132D01*
X118744833Y-131990142D01*
X118792212Y-132012235D01*
X118868091Y-132047618D01*
X118920531Y-132093790D01*
X118939683Y-132160983D01*
X118919467Y-132227865D01*
X118868091Y-132272382D01*
X118744836Y-132329856D01*
X118744834Y-132329857D01*
X118563444Y-132456868D01*
X118406868Y-132613444D01*
X118279857Y-132794834D01*
X118279856Y-132794836D01*
X118186279Y-132995513D01*
X118186275Y-132995524D01*
X118128965Y-133209407D01*
X118128964Y-133209414D01*
X118109666Y-133429998D01*
X118109666Y-133430001D01*
X115568920Y-133430001D01*
X115726186Y-133266881D01*
X115883799Y-133046579D01*
X115957787Y-132902669D01*
X116007649Y-132805690D01*
X116007651Y-132805684D01*
X116007656Y-132805675D01*
X116095118Y-132549305D01*
X116144319Y-132282933D01*
X116154212Y-132012235D01*
X116124586Y-131742982D01*
X116056072Y-131480912D01*
X115950130Y-131231610D01*
X115809018Y-131000390D01*
X115719747Y-130893119D01*
X115635746Y-130792180D01*
X115635740Y-130792175D01*
X115434002Y-130611418D01*
X115208092Y-130461957D01*
X115177214Y-130447482D01*
X114962824Y-130346980D01*
X114962819Y-130346978D01*
X114962814Y-130346976D01*
X114703442Y-130268942D01*
X114703428Y-130268939D01*
X114587791Y-130251921D01*
X114435439Y-130229500D01*
X114232369Y-130229500D01*
X114232364Y-130229500D01*
X114029844Y-130244323D01*
X114029831Y-130244325D01*
X113765453Y-130303217D01*
X113765446Y-130303220D01*
X113512439Y-130399987D01*
X113276226Y-130532557D01*
X113061822Y-130698112D01*
X112873822Y-130893109D01*
X112873816Y-130893116D01*
X112716202Y-131113419D01*
X112716199Y-131113424D01*
X112592350Y-131354309D01*
X112592343Y-131354327D01*
X112504884Y-131610685D01*
X112504881Y-131610699D01*
X112455681Y-131877068D01*
X112455680Y-131877075D01*
X112445787Y-132147763D01*
X109220500Y-132147763D01*
X109220500Y-81347763D01*
X112445787Y-81347763D01*
X112475413Y-81617013D01*
X112475415Y-81617024D01*
X112543926Y-81879082D01*
X112543928Y-81879088D01*
X112649870Y-82128390D01*
X112737795Y-82272460D01*
X112790979Y-82359605D01*
X112790986Y-82359615D01*
X112964253Y-82567819D01*
X112964259Y-82567824D01*
X113165998Y-82748582D01*
X113391910Y-82898044D01*
X113637176Y-83013020D01*
X113637183Y-83013022D01*
X113637185Y-83013023D01*
X113896557Y-83091057D01*
X113896564Y-83091058D01*
X113896569Y-83091060D01*
X114164561Y-83130500D01*
X114164566Y-83130500D01*
X114367636Y-83130500D01*
X114419133Y-83126730D01*
X114570156Y-83115677D01*
X114682758Y-83090593D01*
X114834546Y-83056782D01*
X114834548Y-83056781D01*
X114834553Y-83056780D01*
X115087558Y-82960014D01*
X115323777Y-82827441D01*
X115538177Y-82661888D01*
X115726186Y-82466881D01*
X115883799Y-82246579D01*
X115957787Y-82102669D01*
X116007649Y-82005690D01*
X116007651Y-82005684D01*
X116007656Y-82005675D01*
X116095118Y-81749305D01*
X116144319Y-81482933D01*
X116154212Y-81212235D01*
X116124586Y-80942982D01*
X116056072Y-80680912D01*
X115950130Y-80431610D01*
X115809018Y-80200390D01*
X115781307Y-80167092D01*
X115635746Y-79992180D01*
X115635740Y-79992175D01*
X115434002Y-79811418D01*
X115208092Y-79661957D01*
X115208090Y-79661956D01*
X114962824Y-79546980D01*
X114962819Y-79546978D01*
X114962814Y-79546976D01*
X114703442Y-79468942D01*
X114703428Y-79468939D01*
X114587791Y-79451921D01*
X114435439Y-79429500D01*
X114232369Y-79429500D01*
X114232364Y-79429500D01*
X114029844Y-79444323D01*
X114029831Y-79444325D01*
X113765453Y-79503217D01*
X113765446Y-79503220D01*
X113512439Y-79599987D01*
X113276226Y-79732557D01*
X113061822Y-79898112D01*
X112873822Y-80093109D01*
X112873816Y-80093116D01*
X112716202Y-80313419D01*
X112716199Y-80313424D01*
X112592350Y-80554309D01*
X112592343Y-80554327D01*
X112504884Y-80810685D01*
X112504881Y-80810699D01*
X112455681Y-81077068D01*
X112455680Y-81077075D01*
X112445787Y-81347763D01*
X109220500Y-81347763D01*
X109220500Y-76324500D01*
X109240185Y-76257461D01*
X109292989Y-76211706D01*
X109344500Y-76200500D01*
X121796000Y-76200500D01*
X121863039Y-76220185D01*
G37*
%TD.AperFunction*%
%TD*%
M02*
