M48
; DRILL file {KiCad 7.0.9} date Thu Apr 18 13:08:13 2024
; FORMAT={-:-/ absolute / inch / decimal}
; #@! TF.CreationDate,2024-04-18T13:08:13+02:00
; #@! TF.GenerationSoftware,Kicad,Pcbnew,7.0.9
; #@! TF.FileFunction,Plated,1,2,PTH
FMAT,2
INCH
; #@! TA.AperFunction,Plated,PTH,ComponentDrill
T1C0.0315
; #@! TA.AperFunction,Plated,PTH,ComponentDrill
T2C0.0402
; #@! TA.AperFunction,Plated,PTH,ComponentDrill
T3C0.0433
; #@! TA.AperFunction,Plated,PTH,ComponentDrill
T4C0.0512
%
G90
G05
T1
X6.0Y-5.1
X6.0925Y-4.0406
X6.0925Y-4.1406
X6.0925Y-4.2406
X6.0925Y-4.3406
X6.0925Y-4.4406
X6.0925Y-4.5406
X6.0925Y-4.6406
X6.0925Y-4.7406
X6.1378Y-5.1
X6.3622Y-5.1
X6.5Y-5.1
X6.6925Y-4.0406
X6.6925Y-4.1406
X6.6925Y-4.2406
X6.6925Y-4.3406
X6.6925Y-4.4406
X6.6925Y-4.5406
X6.6925Y-4.6406
X6.6925Y-4.7406
T2
X4.7Y-3.4531
X4.7Y-3.5531
X4.7Y-3.6531
X4.7Y-3.7531
X4.7Y-3.8531
X4.7Y-3.9531
X4.7Y-4.0531
X4.7Y-4.1531
X4.7Y-4.2531
X4.7Y-4.3531
X4.7Y-4.4531
X4.7Y-4.5531
X4.7Y-4.6531
X4.7Y-4.7531
X4.7Y-4.8531
X4.7Y-4.9531
X4.7Y-5.0531
X4.7Y-5.1531
X4.7Y-5.2531
X5.7Y-3.4531
X5.7Y-3.5531
X5.7Y-3.6531
X5.7Y-3.7531
X5.7Y-3.8531
X5.7Y-3.9531
X5.7Y-4.0531
X5.7Y-4.1531
X5.7Y-4.2531
X5.7Y-4.3531
X5.7Y-4.4531
X5.7Y-4.5531
X5.7Y-4.6531
X5.7Y-4.7531
X5.7Y-4.8531
X5.7Y-4.9531
X5.7Y-5.0531
X5.7Y-5.1531
X5.7Y-5.2531
X6.1525Y-3.1475
X6.1525Y-3.2475
X6.1525Y-3.3475
X6.1525Y-3.4475
X6.1525Y-3.5475
X6.1525Y-3.6475
X6.1525Y-3.7475
X6.1525Y-3.8475
T3
X6.8Y-5.0
X6.8Y-5.1
X6.8Y-5.2
T4
X7.1Y-3.6031
X7.1Y-3.8
X7.1Y-4.1
X7.1Y-4.2969
X7.1Y-4.6
X7.1Y-4.7969
T0
M30
