%TF.GenerationSoftware,KiCad,Pcbnew,7.0.9*%
%TF.CreationDate,2024-04-18T13:08:04+02:00*%
%TF.ProjectId,Pendulo_Inverso,50656e64-756c-46f5-9f49-6e766572736f,rev?*%
%TF.SameCoordinates,Original*%
%TF.FileFunction,Legend,Top*%
%TF.FilePolarity,Positive*%
%FSLAX46Y46*%
G04 Gerber Fmt 4.6, Leading zero omitted, Abs format (unit mm)*
G04 Created by KiCad (PCBNEW 7.0.9) date 2024-04-18 13:08:04*
%MOMM*%
%LPD*%
G01*
G04 APERTURE LIST*
%ADD10C,0.150000*%
%ADD11C,0.127000*%
%ADD12C,0.200000*%
%ADD13C,0.100000*%
%ADD14C,0.120000*%
G04 APERTURE END LIST*
D10*
X113259819Y-115063220D02*
X112259819Y-115063220D01*
X112259819Y-115063220D02*
X112974104Y-114729887D01*
X112974104Y-114729887D02*
X112259819Y-114396554D01*
X112259819Y-114396554D02*
X113259819Y-114396554D01*
X113259819Y-113920363D02*
X112593152Y-113920363D01*
X112259819Y-113920363D02*
X112307438Y-113967982D01*
X112307438Y-113967982D02*
X112355057Y-113920363D01*
X112355057Y-113920363D02*
X112307438Y-113872744D01*
X112307438Y-113872744D02*
X112259819Y-113920363D01*
X112259819Y-113920363D02*
X112355057Y-113920363D01*
X112593152Y-113015602D02*
X113402676Y-113015602D01*
X113402676Y-113015602D02*
X113497914Y-113063221D01*
X113497914Y-113063221D02*
X113545533Y-113110840D01*
X113545533Y-113110840D02*
X113593152Y-113206078D01*
X113593152Y-113206078D02*
X113593152Y-113348935D01*
X113593152Y-113348935D02*
X113545533Y-113444173D01*
X113212200Y-113015602D02*
X113259819Y-113110840D01*
X113259819Y-113110840D02*
X113259819Y-113301316D01*
X113259819Y-113301316D02*
X113212200Y-113396554D01*
X113212200Y-113396554D02*
X113164580Y-113444173D01*
X113164580Y-113444173D02*
X113069342Y-113491792D01*
X113069342Y-113491792D02*
X112783628Y-113491792D01*
X112783628Y-113491792D02*
X112688390Y-113444173D01*
X112688390Y-113444173D02*
X112640771Y-113396554D01*
X112640771Y-113396554D02*
X112593152Y-113301316D01*
X112593152Y-113301316D02*
X112593152Y-113110840D01*
X112593152Y-113110840D02*
X112640771Y-113015602D01*
X112593152Y-112110840D02*
X113259819Y-112110840D01*
X112593152Y-112539411D02*
X113116961Y-112539411D01*
X113116961Y-112539411D02*
X113212200Y-112491792D01*
X113212200Y-112491792D02*
X113259819Y-112396554D01*
X113259819Y-112396554D02*
X113259819Y-112253697D01*
X113259819Y-112253697D02*
X113212200Y-112158459D01*
X113212200Y-112158459D02*
X113164580Y-112110840D01*
X113212200Y-111253697D02*
X113259819Y-111348935D01*
X113259819Y-111348935D02*
X113259819Y-111539411D01*
X113259819Y-111539411D02*
X113212200Y-111634649D01*
X113212200Y-111634649D02*
X113116961Y-111682268D01*
X113116961Y-111682268D02*
X112736009Y-111682268D01*
X112736009Y-111682268D02*
X112640771Y-111634649D01*
X112640771Y-111634649D02*
X112593152Y-111539411D01*
X112593152Y-111539411D02*
X112593152Y-111348935D01*
X112593152Y-111348935D02*
X112640771Y-111253697D01*
X112640771Y-111253697D02*
X112736009Y-111206078D01*
X112736009Y-111206078D02*
X112831247Y-111206078D01*
X112831247Y-111206078D02*
X112926485Y-111682268D01*
X113259819Y-110634649D02*
X113212200Y-110729887D01*
X113212200Y-110729887D02*
X113116961Y-110777506D01*
X113116961Y-110777506D02*
X112259819Y-110777506D01*
X112259819Y-109301315D02*
X112259819Y-109110839D01*
X112259819Y-109110839D02*
X112307438Y-109015601D01*
X112307438Y-109015601D02*
X112402676Y-108920363D01*
X112402676Y-108920363D02*
X112593152Y-108872744D01*
X112593152Y-108872744D02*
X112926485Y-108872744D01*
X112926485Y-108872744D02*
X113116961Y-108920363D01*
X113116961Y-108920363D02*
X113212200Y-109015601D01*
X113212200Y-109015601D02*
X113259819Y-109110839D01*
X113259819Y-109110839D02*
X113259819Y-109301315D01*
X113259819Y-109301315D02*
X113212200Y-109396553D01*
X113212200Y-109396553D02*
X113116961Y-109491791D01*
X113116961Y-109491791D02*
X112926485Y-109539410D01*
X112926485Y-109539410D02*
X112593152Y-109539410D01*
X112593152Y-109539410D02*
X112402676Y-109491791D01*
X112402676Y-109491791D02*
X112307438Y-109396553D01*
X112307438Y-109396553D02*
X112259819Y-109301315D01*
X112593152Y-108587029D02*
X112593152Y-108206077D01*
X112259819Y-108444172D02*
X113116961Y-108444172D01*
X113116961Y-108444172D02*
X113212200Y-108396553D01*
X113212200Y-108396553D02*
X113259819Y-108301315D01*
X113259819Y-108301315D02*
X113259819Y-108206077D01*
X113212200Y-107491791D02*
X113259819Y-107587029D01*
X113259819Y-107587029D02*
X113259819Y-107777505D01*
X113259819Y-107777505D02*
X113212200Y-107872743D01*
X113212200Y-107872743D02*
X113116961Y-107920362D01*
X113116961Y-107920362D02*
X112736009Y-107920362D01*
X112736009Y-107920362D02*
X112640771Y-107872743D01*
X112640771Y-107872743D02*
X112593152Y-107777505D01*
X112593152Y-107777505D02*
X112593152Y-107587029D01*
X112593152Y-107587029D02*
X112640771Y-107491791D01*
X112640771Y-107491791D02*
X112736009Y-107444172D01*
X112736009Y-107444172D02*
X112831247Y-107444172D01*
X112831247Y-107444172D02*
X112926485Y-107920362D01*
X113259819Y-107015600D02*
X112593152Y-107015600D01*
X112783628Y-107015600D02*
X112688390Y-106967981D01*
X112688390Y-106967981D02*
X112640771Y-106920362D01*
X112640771Y-106920362D02*
X112593152Y-106825124D01*
X112593152Y-106825124D02*
X112593152Y-106729886D01*
X113259819Y-106253695D02*
X113212200Y-106348933D01*
X113212200Y-106348933D02*
X113164580Y-106396552D01*
X113164580Y-106396552D02*
X113069342Y-106444171D01*
X113069342Y-106444171D02*
X112783628Y-106444171D01*
X112783628Y-106444171D02*
X112688390Y-106396552D01*
X112688390Y-106396552D02*
X112640771Y-106348933D01*
X112640771Y-106348933D02*
X112593152Y-106253695D01*
X112593152Y-106253695D02*
X112593152Y-106110838D01*
X112593152Y-106110838D02*
X112640771Y-106015600D01*
X112640771Y-106015600D02*
X112688390Y-105967981D01*
X112688390Y-105967981D02*
X112783628Y-105920362D01*
X112783628Y-105920362D02*
X113069342Y-105920362D01*
X113069342Y-105920362D02*
X113164580Y-105967981D01*
X113164580Y-105967981D02*
X113212200Y-106015600D01*
X113212200Y-106015600D02*
X113259819Y-106110838D01*
X113259819Y-106110838D02*
X113259819Y-106253695D01*
X113164580Y-104158457D02*
X113212200Y-104206076D01*
X113212200Y-104206076D02*
X113259819Y-104348933D01*
X113259819Y-104348933D02*
X113259819Y-104444171D01*
X113259819Y-104444171D02*
X113212200Y-104587028D01*
X113212200Y-104587028D02*
X113116961Y-104682266D01*
X113116961Y-104682266D02*
X113021723Y-104729885D01*
X113021723Y-104729885D02*
X112831247Y-104777504D01*
X112831247Y-104777504D02*
X112688390Y-104777504D01*
X112688390Y-104777504D02*
X112497914Y-104729885D01*
X112497914Y-104729885D02*
X112402676Y-104682266D01*
X112402676Y-104682266D02*
X112307438Y-104587028D01*
X112307438Y-104587028D02*
X112259819Y-104444171D01*
X112259819Y-104444171D02*
X112259819Y-104348933D01*
X112259819Y-104348933D02*
X112307438Y-104206076D01*
X112307438Y-104206076D02*
X112355057Y-104158457D01*
X113259819Y-103587028D02*
X113212200Y-103682266D01*
X113212200Y-103682266D02*
X113164580Y-103729885D01*
X113164580Y-103729885D02*
X113069342Y-103777504D01*
X113069342Y-103777504D02*
X112783628Y-103777504D01*
X112783628Y-103777504D02*
X112688390Y-103729885D01*
X112688390Y-103729885D02*
X112640771Y-103682266D01*
X112640771Y-103682266D02*
X112593152Y-103587028D01*
X112593152Y-103587028D02*
X112593152Y-103444171D01*
X112593152Y-103444171D02*
X112640771Y-103348933D01*
X112640771Y-103348933D02*
X112688390Y-103301314D01*
X112688390Y-103301314D02*
X112783628Y-103253695D01*
X112783628Y-103253695D02*
X113069342Y-103253695D01*
X113069342Y-103253695D02*
X113164580Y-103301314D01*
X113164580Y-103301314D02*
X113212200Y-103348933D01*
X113212200Y-103348933D02*
X113259819Y-103444171D01*
X113259819Y-103444171D02*
X113259819Y-103587028D01*
X113212200Y-102872742D02*
X113259819Y-102777504D01*
X113259819Y-102777504D02*
X113259819Y-102587028D01*
X113259819Y-102587028D02*
X113212200Y-102491790D01*
X113212200Y-102491790D02*
X113116961Y-102444171D01*
X113116961Y-102444171D02*
X113069342Y-102444171D01*
X113069342Y-102444171D02*
X112974104Y-102491790D01*
X112974104Y-102491790D02*
X112926485Y-102587028D01*
X112926485Y-102587028D02*
X112926485Y-102729885D01*
X112926485Y-102729885D02*
X112878866Y-102825123D01*
X112878866Y-102825123D02*
X112783628Y-102872742D01*
X112783628Y-102872742D02*
X112736009Y-102872742D01*
X112736009Y-102872742D02*
X112640771Y-102825123D01*
X112640771Y-102825123D02*
X112593152Y-102729885D01*
X112593152Y-102729885D02*
X112593152Y-102587028D01*
X112593152Y-102587028D02*
X112640771Y-102491790D01*
X112593152Y-102158456D02*
X112593152Y-101777504D01*
X112259819Y-102015599D02*
X113116961Y-102015599D01*
X113116961Y-102015599D02*
X113212200Y-101967980D01*
X113212200Y-101967980D02*
X113259819Y-101872742D01*
X113259819Y-101872742D02*
X113259819Y-101777504D01*
X113259819Y-101015599D02*
X112736009Y-101015599D01*
X112736009Y-101015599D02*
X112640771Y-101063218D01*
X112640771Y-101063218D02*
X112593152Y-101158456D01*
X112593152Y-101158456D02*
X112593152Y-101348932D01*
X112593152Y-101348932D02*
X112640771Y-101444170D01*
X113212200Y-101015599D02*
X113259819Y-101110837D01*
X113259819Y-101110837D02*
X113259819Y-101348932D01*
X113259819Y-101348932D02*
X113212200Y-101444170D01*
X113212200Y-101444170D02*
X113116961Y-101491789D01*
X113116961Y-101491789D02*
X113021723Y-101491789D01*
X113021723Y-101491789D02*
X112926485Y-101444170D01*
X112926485Y-101444170D02*
X112878866Y-101348932D01*
X112878866Y-101348932D02*
X112878866Y-101110837D01*
X112878866Y-101110837D02*
X112831247Y-101015599D01*
X113212200Y-100587027D02*
X113259819Y-100491789D01*
X113259819Y-100491789D02*
X113259819Y-100301313D01*
X113259819Y-100301313D02*
X113212200Y-100206075D01*
X113212200Y-100206075D02*
X113116961Y-100158456D01*
X113116961Y-100158456D02*
X113069342Y-100158456D01*
X113069342Y-100158456D02*
X112974104Y-100206075D01*
X112974104Y-100206075D02*
X112926485Y-100301313D01*
X112926485Y-100301313D02*
X112926485Y-100444170D01*
X112926485Y-100444170D02*
X112878866Y-100539408D01*
X112878866Y-100539408D02*
X112783628Y-100587027D01*
X112783628Y-100587027D02*
X112736009Y-100587027D01*
X112736009Y-100587027D02*
X112640771Y-100539408D01*
X112640771Y-100539408D02*
X112593152Y-100444170D01*
X112593152Y-100444170D02*
X112593152Y-100301313D01*
X112593152Y-100301313D02*
X112640771Y-100206075D01*
X113869819Y-115063220D02*
X114679342Y-115063220D01*
X114679342Y-115063220D02*
X114774580Y-115015601D01*
X114774580Y-115015601D02*
X114822200Y-114967982D01*
X114822200Y-114967982D02*
X114869819Y-114872744D01*
X114869819Y-114872744D02*
X114869819Y-114682268D01*
X114869819Y-114682268D02*
X114822200Y-114587030D01*
X114822200Y-114587030D02*
X114774580Y-114539411D01*
X114774580Y-114539411D02*
X114679342Y-114491792D01*
X114679342Y-114491792D02*
X113869819Y-114491792D01*
X114822200Y-114063220D02*
X114869819Y-113920363D01*
X114869819Y-113920363D02*
X114869819Y-113682268D01*
X114869819Y-113682268D02*
X114822200Y-113587030D01*
X114822200Y-113587030D02*
X114774580Y-113539411D01*
X114774580Y-113539411D02*
X114679342Y-113491792D01*
X114679342Y-113491792D02*
X114584104Y-113491792D01*
X114584104Y-113491792D02*
X114488866Y-113539411D01*
X114488866Y-113539411D02*
X114441247Y-113587030D01*
X114441247Y-113587030D02*
X114393628Y-113682268D01*
X114393628Y-113682268D02*
X114346009Y-113872744D01*
X114346009Y-113872744D02*
X114298390Y-113967982D01*
X114298390Y-113967982D02*
X114250771Y-114015601D01*
X114250771Y-114015601D02*
X114155533Y-114063220D01*
X114155533Y-114063220D02*
X114060295Y-114063220D01*
X114060295Y-114063220D02*
X113965057Y-114015601D01*
X113965057Y-114015601D02*
X113917438Y-113967982D01*
X113917438Y-113967982D02*
X113869819Y-113872744D01*
X113869819Y-113872744D02*
X113869819Y-113634649D01*
X113869819Y-113634649D02*
X113917438Y-113491792D01*
X114774580Y-112491792D02*
X114822200Y-112539411D01*
X114822200Y-112539411D02*
X114869819Y-112682268D01*
X114869819Y-112682268D02*
X114869819Y-112777506D01*
X114869819Y-112777506D02*
X114822200Y-112920363D01*
X114822200Y-112920363D02*
X114726961Y-113015601D01*
X114726961Y-113015601D02*
X114631723Y-113063220D01*
X114631723Y-113063220D02*
X114441247Y-113110839D01*
X114441247Y-113110839D02*
X114298390Y-113110839D01*
X114298390Y-113110839D02*
X114107914Y-113063220D01*
X114107914Y-113063220D02*
X114012676Y-113015601D01*
X114012676Y-113015601D02*
X113917438Y-112920363D01*
X113917438Y-112920363D02*
X113869819Y-112777506D01*
X113869819Y-112777506D02*
X113869819Y-112682268D01*
X113869819Y-112682268D02*
X113917438Y-112539411D01*
X113917438Y-112539411D02*
X113965057Y-112491792D01*
X126318095Y-110421009D02*
X126651428Y-110421009D01*
X126794285Y-110944819D02*
X126318095Y-110944819D01*
X126318095Y-110944819D02*
X126318095Y-109944819D01*
X126318095Y-109944819D02*
X126794285Y-109944819D01*
X127175238Y-110897200D02*
X127318095Y-110944819D01*
X127318095Y-110944819D02*
X127556190Y-110944819D01*
X127556190Y-110944819D02*
X127651428Y-110897200D01*
X127651428Y-110897200D02*
X127699047Y-110849580D01*
X127699047Y-110849580D02*
X127746666Y-110754342D01*
X127746666Y-110754342D02*
X127746666Y-110659104D01*
X127746666Y-110659104D02*
X127699047Y-110563866D01*
X127699047Y-110563866D02*
X127651428Y-110516247D01*
X127651428Y-110516247D02*
X127556190Y-110468628D01*
X127556190Y-110468628D02*
X127365714Y-110421009D01*
X127365714Y-110421009D02*
X127270476Y-110373390D01*
X127270476Y-110373390D02*
X127222857Y-110325771D01*
X127222857Y-110325771D02*
X127175238Y-110230533D01*
X127175238Y-110230533D02*
X127175238Y-110135295D01*
X127175238Y-110135295D02*
X127222857Y-110040057D01*
X127222857Y-110040057D02*
X127270476Y-109992438D01*
X127270476Y-109992438D02*
X127365714Y-109944819D01*
X127365714Y-109944819D02*
X127603809Y-109944819D01*
X127603809Y-109944819D02*
X127746666Y-109992438D01*
X128175238Y-110944819D02*
X128175238Y-109944819D01*
X128175238Y-109944819D02*
X128556190Y-109944819D01*
X128556190Y-109944819D02*
X128651428Y-109992438D01*
X128651428Y-109992438D02*
X128699047Y-110040057D01*
X128699047Y-110040057D02*
X128746666Y-110135295D01*
X128746666Y-110135295D02*
X128746666Y-110278152D01*
X128746666Y-110278152D02*
X128699047Y-110373390D01*
X128699047Y-110373390D02*
X128651428Y-110421009D01*
X128651428Y-110421009D02*
X128556190Y-110468628D01*
X128556190Y-110468628D02*
X128175238Y-110468628D01*
X129080000Y-109944819D02*
X129699047Y-109944819D01*
X129699047Y-109944819D02*
X129365714Y-110325771D01*
X129365714Y-110325771D02*
X129508571Y-110325771D01*
X129508571Y-110325771D02*
X129603809Y-110373390D01*
X129603809Y-110373390D02*
X129651428Y-110421009D01*
X129651428Y-110421009D02*
X129699047Y-110516247D01*
X129699047Y-110516247D02*
X129699047Y-110754342D01*
X129699047Y-110754342D02*
X129651428Y-110849580D01*
X129651428Y-110849580D02*
X129603809Y-110897200D01*
X129603809Y-110897200D02*
X129508571Y-110944819D01*
X129508571Y-110944819D02*
X129222857Y-110944819D01*
X129222857Y-110944819D02*
X129127619Y-110897200D01*
X129127619Y-110897200D02*
X129080000Y-110849580D01*
X130080000Y-110040057D02*
X130127619Y-109992438D01*
X130127619Y-109992438D02*
X130222857Y-109944819D01*
X130222857Y-109944819D02*
X130460952Y-109944819D01*
X130460952Y-109944819D02*
X130556190Y-109992438D01*
X130556190Y-109992438D02*
X130603809Y-110040057D01*
X130603809Y-110040057D02*
X130651428Y-110135295D01*
X130651428Y-110135295D02*
X130651428Y-110230533D01*
X130651428Y-110230533D02*
X130603809Y-110373390D01*
X130603809Y-110373390D02*
X130032381Y-110944819D01*
X130032381Y-110944819D02*
X130651428Y-110944819D01*
X131080000Y-110563866D02*
X131841905Y-110563866D01*
X132318095Y-110944819D02*
X132318095Y-109944819D01*
X132318095Y-109944819D02*
X132556190Y-109944819D01*
X132556190Y-109944819D02*
X132699047Y-109992438D01*
X132699047Y-109992438D02*
X132794285Y-110087676D01*
X132794285Y-110087676D02*
X132841904Y-110182914D01*
X132841904Y-110182914D02*
X132889523Y-110373390D01*
X132889523Y-110373390D02*
X132889523Y-110516247D01*
X132889523Y-110516247D02*
X132841904Y-110706723D01*
X132841904Y-110706723D02*
X132794285Y-110801961D01*
X132794285Y-110801961D02*
X132699047Y-110897200D01*
X132699047Y-110897200D02*
X132556190Y-110944819D01*
X132556190Y-110944819D02*
X132318095Y-110944819D01*
X133318095Y-110421009D02*
X133651428Y-110421009D01*
X133794285Y-110944819D02*
X133318095Y-110944819D01*
X133318095Y-110944819D02*
X133318095Y-109944819D01*
X133318095Y-109944819D02*
X133794285Y-109944819D01*
X134080000Y-109944819D02*
X134413333Y-110944819D01*
X134413333Y-110944819D02*
X134746666Y-109944819D01*
X135080000Y-110944819D02*
X135080000Y-109944819D01*
X135651428Y-110944819D02*
X135222857Y-110373390D01*
X135651428Y-109944819D02*
X135080000Y-110516247D01*
X136080000Y-110944819D02*
X136080000Y-109944819D01*
X136413333Y-109944819D02*
X136984761Y-109944819D01*
X136699047Y-110944819D02*
X136699047Y-109944819D01*
X137889523Y-110849580D02*
X137841904Y-110897200D01*
X137841904Y-110897200D02*
X137699047Y-110944819D01*
X137699047Y-110944819D02*
X137603809Y-110944819D01*
X137603809Y-110944819D02*
X137460952Y-110897200D01*
X137460952Y-110897200D02*
X137365714Y-110801961D01*
X137365714Y-110801961D02*
X137318095Y-110706723D01*
X137318095Y-110706723D02*
X137270476Y-110516247D01*
X137270476Y-110516247D02*
X137270476Y-110373390D01*
X137270476Y-110373390D02*
X137318095Y-110182914D01*
X137318095Y-110182914D02*
X137365714Y-110087676D01*
X137365714Y-110087676D02*
X137460952Y-109992438D01*
X137460952Y-109992438D02*
X137603809Y-109944819D01*
X137603809Y-109944819D02*
X137699047Y-109944819D01*
X137699047Y-109944819D02*
X137841904Y-109992438D01*
X137841904Y-109992438D02*
X137889523Y-110040057D01*
X158071429Y-88954819D02*
X158071429Y-87954819D01*
X158071429Y-87954819D02*
X158404762Y-88669104D01*
X158404762Y-88669104D02*
X158738095Y-87954819D01*
X158738095Y-87954819D02*
X158738095Y-88954819D01*
X159214286Y-88954819D02*
X159214286Y-87954819D01*
X159214286Y-87954819D02*
X159595238Y-87954819D01*
X159595238Y-87954819D02*
X159690476Y-88002438D01*
X159690476Y-88002438D02*
X159738095Y-88050057D01*
X159738095Y-88050057D02*
X159785714Y-88145295D01*
X159785714Y-88145295D02*
X159785714Y-88288152D01*
X159785714Y-88288152D02*
X159738095Y-88383390D01*
X159738095Y-88383390D02*
X159690476Y-88431009D01*
X159690476Y-88431009D02*
X159595238Y-88478628D01*
X159595238Y-88478628D02*
X159214286Y-88478628D01*
X160214286Y-87954819D02*
X160214286Y-88764342D01*
X160214286Y-88764342D02*
X160261905Y-88859580D01*
X160261905Y-88859580D02*
X160309524Y-88907200D01*
X160309524Y-88907200D02*
X160404762Y-88954819D01*
X160404762Y-88954819D02*
X160595238Y-88954819D01*
X160595238Y-88954819D02*
X160690476Y-88907200D01*
X160690476Y-88907200D02*
X160738095Y-88859580D01*
X160738095Y-88859580D02*
X160785714Y-88764342D01*
X160785714Y-88764342D02*
X160785714Y-87954819D01*
X161261905Y-88573866D02*
X162023810Y-88573866D01*
X162928571Y-87954819D02*
X162738095Y-87954819D01*
X162738095Y-87954819D02*
X162642857Y-88002438D01*
X162642857Y-88002438D02*
X162595238Y-88050057D01*
X162595238Y-88050057D02*
X162500000Y-88192914D01*
X162500000Y-88192914D02*
X162452381Y-88383390D01*
X162452381Y-88383390D02*
X162452381Y-88764342D01*
X162452381Y-88764342D02*
X162500000Y-88859580D01*
X162500000Y-88859580D02*
X162547619Y-88907200D01*
X162547619Y-88907200D02*
X162642857Y-88954819D01*
X162642857Y-88954819D02*
X162833333Y-88954819D01*
X162833333Y-88954819D02*
X162928571Y-88907200D01*
X162928571Y-88907200D02*
X162976190Y-88859580D01*
X162976190Y-88859580D02*
X163023809Y-88764342D01*
X163023809Y-88764342D02*
X163023809Y-88526247D01*
X163023809Y-88526247D02*
X162976190Y-88431009D01*
X162976190Y-88431009D02*
X162928571Y-88383390D01*
X162928571Y-88383390D02*
X162833333Y-88335771D01*
X162833333Y-88335771D02*
X162642857Y-88335771D01*
X162642857Y-88335771D02*
X162547619Y-88383390D01*
X162547619Y-88383390D02*
X162500000Y-88431009D01*
X162500000Y-88431009D02*
X162452381Y-88526247D01*
X163642857Y-87954819D02*
X163738095Y-87954819D01*
X163738095Y-87954819D02*
X163833333Y-88002438D01*
X163833333Y-88002438D02*
X163880952Y-88050057D01*
X163880952Y-88050057D02*
X163928571Y-88145295D01*
X163928571Y-88145295D02*
X163976190Y-88335771D01*
X163976190Y-88335771D02*
X163976190Y-88573866D01*
X163976190Y-88573866D02*
X163928571Y-88764342D01*
X163928571Y-88764342D02*
X163880952Y-88859580D01*
X163880952Y-88859580D02*
X163833333Y-88907200D01*
X163833333Y-88907200D02*
X163738095Y-88954819D01*
X163738095Y-88954819D02*
X163642857Y-88954819D01*
X163642857Y-88954819D02*
X163547619Y-88907200D01*
X163547619Y-88907200D02*
X163500000Y-88859580D01*
X163500000Y-88859580D02*
X163452381Y-88764342D01*
X163452381Y-88764342D02*
X163404762Y-88573866D01*
X163404762Y-88573866D02*
X163404762Y-88335771D01*
X163404762Y-88335771D02*
X163452381Y-88145295D01*
X163452381Y-88145295D02*
X163500000Y-88050057D01*
X163500000Y-88050057D02*
X163547619Y-88002438D01*
X163547619Y-88002438D02*
X163642857Y-87954819D01*
X164880952Y-87954819D02*
X164404762Y-87954819D01*
X164404762Y-87954819D02*
X164357143Y-88431009D01*
X164357143Y-88431009D02*
X164404762Y-88383390D01*
X164404762Y-88383390D02*
X164500000Y-88335771D01*
X164500000Y-88335771D02*
X164738095Y-88335771D01*
X164738095Y-88335771D02*
X164833333Y-88383390D01*
X164833333Y-88383390D02*
X164880952Y-88431009D01*
X164880952Y-88431009D02*
X164928571Y-88526247D01*
X164928571Y-88526247D02*
X164928571Y-88764342D01*
X164928571Y-88764342D02*
X164880952Y-88859580D01*
X164880952Y-88859580D02*
X164833333Y-88907200D01*
X164833333Y-88907200D02*
X164738095Y-88954819D01*
X164738095Y-88954819D02*
X164500000Y-88954819D01*
X164500000Y-88954819D02*
X164404762Y-88907200D01*
X164404762Y-88907200D02*
X164357143Y-88859580D01*
X165547619Y-87954819D02*
X165642857Y-87954819D01*
X165642857Y-87954819D02*
X165738095Y-88002438D01*
X165738095Y-88002438D02*
X165785714Y-88050057D01*
X165785714Y-88050057D02*
X165833333Y-88145295D01*
X165833333Y-88145295D02*
X165880952Y-88335771D01*
X165880952Y-88335771D02*
X165880952Y-88573866D01*
X165880952Y-88573866D02*
X165833333Y-88764342D01*
X165833333Y-88764342D02*
X165785714Y-88859580D01*
X165785714Y-88859580D02*
X165738095Y-88907200D01*
X165738095Y-88907200D02*
X165642857Y-88954819D01*
X165642857Y-88954819D02*
X165547619Y-88954819D01*
X165547619Y-88954819D02*
X165452381Y-88907200D01*
X165452381Y-88907200D02*
X165404762Y-88859580D01*
X165404762Y-88859580D02*
X165357143Y-88764342D01*
X165357143Y-88764342D02*
X165309524Y-88573866D01*
X165309524Y-88573866D02*
X165309524Y-88335771D01*
X165309524Y-88335771D02*
X165357143Y-88145295D01*
X165357143Y-88145295D02*
X165404762Y-88050057D01*
X165404762Y-88050057D02*
X165452381Y-88002438D01*
X165452381Y-88002438D02*
X165547619Y-87954819D01*
X166309524Y-88573866D02*
X167071429Y-88573866D01*
X167500000Y-88669104D02*
X167976190Y-88669104D01*
X167404762Y-88954819D02*
X167738095Y-87954819D01*
X167738095Y-87954819D02*
X168071428Y-88954819D01*
X161393810Y-122964819D02*
X161393810Y-121964819D01*
X162441428Y-122869580D02*
X162393809Y-122917200D01*
X162393809Y-122917200D02*
X162250952Y-122964819D01*
X162250952Y-122964819D02*
X162155714Y-122964819D01*
X162155714Y-122964819D02*
X162012857Y-122917200D01*
X162012857Y-122917200D02*
X161917619Y-122821961D01*
X161917619Y-122821961D02*
X161870000Y-122726723D01*
X161870000Y-122726723D02*
X161822381Y-122536247D01*
X161822381Y-122536247D02*
X161822381Y-122393390D01*
X161822381Y-122393390D02*
X161870000Y-122202914D01*
X161870000Y-122202914D02*
X161917619Y-122107676D01*
X161917619Y-122107676D02*
X162012857Y-122012438D01*
X162012857Y-122012438D02*
X162155714Y-121964819D01*
X162155714Y-121964819D02*
X162250952Y-121964819D01*
X162250952Y-121964819D02*
X162393809Y-122012438D01*
X162393809Y-122012438D02*
X162441428Y-122060057D01*
X162822381Y-122060057D02*
X162870000Y-122012438D01*
X162870000Y-122012438D02*
X162965238Y-121964819D01*
X162965238Y-121964819D02*
X163203333Y-121964819D01*
X163203333Y-121964819D02*
X163298571Y-122012438D01*
X163298571Y-122012438D02*
X163346190Y-122060057D01*
X163346190Y-122060057D02*
X163393809Y-122155295D01*
X163393809Y-122155295D02*
X163393809Y-122250533D01*
X163393809Y-122250533D02*
X163346190Y-122393390D01*
X163346190Y-122393390D02*
X162774762Y-122964819D01*
X162774762Y-122964819D02*
X163393809Y-122964819D01*
X158227143Y-110974819D02*
X158798571Y-110974819D01*
X158512857Y-111974819D02*
X158512857Y-110974819D01*
X159465238Y-111451009D02*
X159608095Y-111498628D01*
X159608095Y-111498628D02*
X159655714Y-111546247D01*
X159655714Y-111546247D02*
X159703333Y-111641485D01*
X159703333Y-111641485D02*
X159703333Y-111784342D01*
X159703333Y-111784342D02*
X159655714Y-111879580D01*
X159655714Y-111879580D02*
X159608095Y-111927200D01*
X159608095Y-111927200D02*
X159512857Y-111974819D01*
X159512857Y-111974819D02*
X159131905Y-111974819D01*
X159131905Y-111974819D02*
X159131905Y-110974819D01*
X159131905Y-110974819D02*
X159465238Y-110974819D01*
X159465238Y-110974819D02*
X159560476Y-111022438D01*
X159560476Y-111022438D02*
X159608095Y-111070057D01*
X159608095Y-111070057D02*
X159655714Y-111165295D01*
X159655714Y-111165295D02*
X159655714Y-111260533D01*
X159655714Y-111260533D02*
X159608095Y-111355771D01*
X159608095Y-111355771D02*
X159560476Y-111403390D01*
X159560476Y-111403390D02*
X159465238Y-111451009D01*
X159465238Y-111451009D02*
X159131905Y-111451009D01*
X160560476Y-110974819D02*
X160370000Y-110974819D01*
X160370000Y-110974819D02*
X160274762Y-111022438D01*
X160274762Y-111022438D02*
X160227143Y-111070057D01*
X160227143Y-111070057D02*
X160131905Y-111212914D01*
X160131905Y-111212914D02*
X160084286Y-111403390D01*
X160084286Y-111403390D02*
X160084286Y-111784342D01*
X160084286Y-111784342D02*
X160131905Y-111879580D01*
X160131905Y-111879580D02*
X160179524Y-111927200D01*
X160179524Y-111927200D02*
X160274762Y-111974819D01*
X160274762Y-111974819D02*
X160465238Y-111974819D01*
X160465238Y-111974819D02*
X160560476Y-111927200D01*
X160560476Y-111927200D02*
X160608095Y-111879580D01*
X160608095Y-111879580D02*
X160655714Y-111784342D01*
X160655714Y-111784342D02*
X160655714Y-111546247D01*
X160655714Y-111546247D02*
X160608095Y-111451009D01*
X160608095Y-111451009D02*
X160560476Y-111403390D01*
X160560476Y-111403390D02*
X160465238Y-111355771D01*
X160465238Y-111355771D02*
X160274762Y-111355771D01*
X160274762Y-111355771D02*
X160179524Y-111403390D01*
X160179524Y-111403390D02*
X160131905Y-111451009D01*
X160131905Y-111451009D02*
X160084286Y-111546247D01*
X161512857Y-110974819D02*
X161322381Y-110974819D01*
X161322381Y-110974819D02*
X161227143Y-111022438D01*
X161227143Y-111022438D02*
X161179524Y-111070057D01*
X161179524Y-111070057D02*
X161084286Y-111212914D01*
X161084286Y-111212914D02*
X161036667Y-111403390D01*
X161036667Y-111403390D02*
X161036667Y-111784342D01*
X161036667Y-111784342D02*
X161084286Y-111879580D01*
X161084286Y-111879580D02*
X161131905Y-111927200D01*
X161131905Y-111927200D02*
X161227143Y-111974819D01*
X161227143Y-111974819D02*
X161417619Y-111974819D01*
X161417619Y-111974819D02*
X161512857Y-111927200D01*
X161512857Y-111927200D02*
X161560476Y-111879580D01*
X161560476Y-111879580D02*
X161608095Y-111784342D01*
X161608095Y-111784342D02*
X161608095Y-111546247D01*
X161608095Y-111546247D02*
X161560476Y-111451009D01*
X161560476Y-111451009D02*
X161512857Y-111403390D01*
X161512857Y-111403390D02*
X161417619Y-111355771D01*
X161417619Y-111355771D02*
X161227143Y-111355771D01*
X161227143Y-111355771D02*
X161131905Y-111403390D01*
X161131905Y-111403390D02*
X161084286Y-111451009D01*
X161084286Y-111451009D02*
X161036667Y-111546247D01*
X162560476Y-111974819D02*
X161989048Y-111974819D01*
X162274762Y-111974819D02*
X162274762Y-110974819D01*
X162274762Y-110974819D02*
X162179524Y-111117676D01*
X162179524Y-111117676D02*
X162084286Y-111212914D01*
X162084286Y-111212914D02*
X161989048Y-111260533D01*
X162941429Y-111070057D02*
X162989048Y-111022438D01*
X162989048Y-111022438D02*
X163084286Y-110974819D01*
X163084286Y-110974819D02*
X163322381Y-110974819D01*
X163322381Y-110974819D02*
X163417619Y-111022438D01*
X163417619Y-111022438D02*
X163465238Y-111070057D01*
X163465238Y-111070057D02*
X163512857Y-111165295D01*
X163512857Y-111165295D02*
X163512857Y-111260533D01*
X163512857Y-111260533D02*
X163465238Y-111403390D01*
X163465238Y-111403390D02*
X162893810Y-111974819D01*
X162893810Y-111974819D02*
X163512857Y-111974819D01*
X164274762Y-111451009D02*
X163941429Y-111451009D01*
X163941429Y-111974819D02*
X163941429Y-110974819D01*
X163941429Y-110974819D02*
X164417619Y-110974819D01*
X164798572Y-111974819D02*
X164798572Y-110974819D01*
X164798572Y-110974819D02*
X165370000Y-111974819D01*
X165370000Y-111974819D02*
X165370000Y-110974819D01*
X166370000Y-111022438D02*
X166274762Y-110974819D01*
X166274762Y-110974819D02*
X166131905Y-110974819D01*
X166131905Y-110974819D02*
X165989048Y-111022438D01*
X165989048Y-111022438D02*
X165893810Y-111117676D01*
X165893810Y-111117676D02*
X165846191Y-111212914D01*
X165846191Y-111212914D02*
X165798572Y-111403390D01*
X165798572Y-111403390D02*
X165798572Y-111546247D01*
X165798572Y-111546247D02*
X165846191Y-111736723D01*
X165846191Y-111736723D02*
X165893810Y-111831961D01*
X165893810Y-111831961D02*
X165989048Y-111927200D01*
X165989048Y-111927200D02*
X166131905Y-111974819D01*
X166131905Y-111974819D02*
X166227143Y-111974819D01*
X166227143Y-111974819D02*
X166370000Y-111927200D01*
X166370000Y-111927200D02*
X166417619Y-111879580D01*
X166417619Y-111879580D02*
X166417619Y-111546247D01*
X166417619Y-111546247D02*
X166227143Y-111546247D01*
X166116667Y-117324819D02*
X166450000Y-118324819D01*
X166450000Y-118324819D02*
X166783333Y-117324819D01*
X167688095Y-118229580D02*
X167640476Y-118277200D01*
X167640476Y-118277200D02*
X167497619Y-118324819D01*
X167497619Y-118324819D02*
X167402381Y-118324819D01*
X167402381Y-118324819D02*
X167259524Y-118277200D01*
X167259524Y-118277200D02*
X167164286Y-118181961D01*
X167164286Y-118181961D02*
X167116667Y-118086723D01*
X167116667Y-118086723D02*
X167069048Y-117896247D01*
X167069048Y-117896247D02*
X167069048Y-117753390D01*
X167069048Y-117753390D02*
X167116667Y-117562914D01*
X167116667Y-117562914D02*
X167164286Y-117467676D01*
X167164286Y-117467676D02*
X167259524Y-117372438D01*
X167259524Y-117372438D02*
X167402381Y-117324819D01*
X167402381Y-117324819D02*
X167497619Y-117324819D01*
X167497619Y-117324819D02*
X167640476Y-117372438D01*
X167640476Y-117372438D02*
X167688095Y-117420057D01*
X168688095Y-118229580D02*
X168640476Y-118277200D01*
X168640476Y-118277200D02*
X168497619Y-118324819D01*
X168497619Y-118324819D02*
X168402381Y-118324819D01*
X168402381Y-118324819D02*
X168259524Y-118277200D01*
X168259524Y-118277200D02*
X168164286Y-118181961D01*
X168164286Y-118181961D02*
X168116667Y-118086723D01*
X168116667Y-118086723D02*
X168069048Y-117896247D01*
X168069048Y-117896247D02*
X168069048Y-117753390D01*
X168069048Y-117753390D02*
X168116667Y-117562914D01*
X168116667Y-117562914D02*
X168164286Y-117467676D01*
X168164286Y-117467676D02*
X168259524Y-117372438D01*
X168259524Y-117372438D02*
X168402381Y-117324819D01*
X168402381Y-117324819D02*
X168497619Y-117324819D01*
X168497619Y-117324819D02*
X168640476Y-117372438D01*
X168640476Y-117372438D02*
X168688095Y-117420057D01*
X166545238Y-119864819D02*
X166878571Y-120864819D01*
X166878571Y-120864819D02*
X167211904Y-119864819D01*
X167545238Y-120864819D02*
X167545238Y-119864819D01*
X167545238Y-119864819D02*
X167878571Y-120579104D01*
X167878571Y-120579104D02*
X168211904Y-119864819D01*
X168211904Y-119864819D02*
X168211904Y-120864819D01*
X186954819Y-121435237D02*
X185954819Y-121435237D01*
X185954819Y-121435237D02*
X185954819Y-121054285D01*
X185954819Y-121054285D02*
X186002438Y-120959047D01*
X186002438Y-120959047D02*
X186050057Y-120911428D01*
X186050057Y-120911428D02*
X186145295Y-120863809D01*
X186145295Y-120863809D02*
X186288152Y-120863809D01*
X186288152Y-120863809D02*
X186383390Y-120911428D01*
X186383390Y-120911428D02*
X186431009Y-120959047D01*
X186431009Y-120959047D02*
X186478628Y-121054285D01*
X186478628Y-121054285D02*
X186478628Y-121435237D01*
X186954819Y-120435237D02*
X186288152Y-120435237D01*
X185954819Y-120435237D02*
X186002438Y-120482856D01*
X186002438Y-120482856D02*
X186050057Y-120435237D01*
X186050057Y-120435237D02*
X186002438Y-120387618D01*
X186002438Y-120387618D02*
X185954819Y-120435237D01*
X185954819Y-120435237D02*
X186050057Y-120435237D01*
X186954819Y-119816190D02*
X186907200Y-119911428D01*
X186907200Y-119911428D02*
X186811961Y-119959047D01*
X186811961Y-119959047D02*
X185954819Y-119959047D01*
X186954819Y-119006666D02*
X186431009Y-119006666D01*
X186431009Y-119006666D02*
X186335771Y-119054285D01*
X186335771Y-119054285D02*
X186288152Y-119149523D01*
X186288152Y-119149523D02*
X186288152Y-119339999D01*
X186288152Y-119339999D02*
X186335771Y-119435237D01*
X186907200Y-119006666D02*
X186954819Y-119101904D01*
X186954819Y-119101904D02*
X186954819Y-119339999D01*
X186954819Y-119339999D02*
X186907200Y-119435237D01*
X186907200Y-119435237D02*
X186811961Y-119482856D01*
X186811961Y-119482856D02*
X186716723Y-119482856D01*
X186716723Y-119482856D02*
X186621485Y-119435237D01*
X186621485Y-119435237D02*
X186573866Y-119339999D01*
X186573866Y-119339999D02*
X186573866Y-119101904D01*
X186573866Y-119101904D02*
X186526247Y-119006666D01*
X186907200Y-118578094D02*
X186954819Y-118482856D01*
X186954819Y-118482856D02*
X186954819Y-118292380D01*
X186954819Y-118292380D02*
X186907200Y-118197142D01*
X186907200Y-118197142D02*
X186811961Y-118149523D01*
X186811961Y-118149523D02*
X186764342Y-118149523D01*
X186764342Y-118149523D02*
X186669104Y-118197142D01*
X186669104Y-118197142D02*
X186621485Y-118292380D01*
X186621485Y-118292380D02*
X186621485Y-118435237D01*
X186621485Y-118435237D02*
X186573866Y-118530475D01*
X186573866Y-118530475D02*
X186478628Y-118578094D01*
X186478628Y-118578094D02*
X186431009Y-118578094D01*
X186431009Y-118578094D02*
X186335771Y-118530475D01*
X186335771Y-118530475D02*
X186288152Y-118435237D01*
X186288152Y-118435237D02*
X186288152Y-118292380D01*
X186288152Y-118292380D02*
X186335771Y-118197142D01*
X186954819Y-117197142D02*
X186954819Y-117768570D01*
X186954819Y-117482856D02*
X185954819Y-117482856D01*
X185954819Y-117482856D02*
X186097676Y-117578094D01*
X186097676Y-117578094D02*
X186192914Y-117673332D01*
X186192914Y-117673332D02*
X186240533Y-117768570D01*
X175674819Y-136960952D02*
X175674819Y-137437142D01*
X175674819Y-137437142D02*
X174674819Y-137437142D01*
X175674819Y-136627618D02*
X174674819Y-136627618D01*
X174674819Y-136627618D02*
X175389104Y-136294285D01*
X175389104Y-136294285D02*
X174674819Y-135960952D01*
X174674819Y-135960952D02*
X175674819Y-135960952D01*
X174674819Y-135579999D02*
X174674819Y-134913333D01*
X174674819Y-134913333D02*
X175674819Y-135341904D01*
X175103390Y-134389523D02*
X175055771Y-134484761D01*
X175055771Y-134484761D02*
X175008152Y-134532380D01*
X175008152Y-134532380D02*
X174912914Y-134579999D01*
X174912914Y-134579999D02*
X174865295Y-134579999D01*
X174865295Y-134579999D02*
X174770057Y-134532380D01*
X174770057Y-134532380D02*
X174722438Y-134484761D01*
X174722438Y-134484761D02*
X174674819Y-134389523D01*
X174674819Y-134389523D02*
X174674819Y-134199047D01*
X174674819Y-134199047D02*
X174722438Y-134103809D01*
X174722438Y-134103809D02*
X174770057Y-134056190D01*
X174770057Y-134056190D02*
X174865295Y-134008571D01*
X174865295Y-134008571D02*
X174912914Y-134008571D01*
X174912914Y-134008571D02*
X175008152Y-134056190D01*
X175008152Y-134056190D02*
X175055771Y-134103809D01*
X175055771Y-134103809D02*
X175103390Y-134199047D01*
X175103390Y-134199047D02*
X175103390Y-134389523D01*
X175103390Y-134389523D02*
X175151009Y-134484761D01*
X175151009Y-134484761D02*
X175198628Y-134532380D01*
X175198628Y-134532380D02*
X175293866Y-134579999D01*
X175293866Y-134579999D02*
X175484342Y-134579999D01*
X175484342Y-134579999D02*
X175579580Y-134532380D01*
X175579580Y-134532380D02*
X175627200Y-134484761D01*
X175627200Y-134484761D02*
X175674819Y-134389523D01*
X175674819Y-134389523D02*
X175674819Y-134199047D01*
X175674819Y-134199047D02*
X175627200Y-134103809D01*
X175627200Y-134103809D02*
X175579580Y-134056190D01*
X175579580Y-134056190D02*
X175484342Y-134008571D01*
X175484342Y-134008571D02*
X175293866Y-134008571D01*
X175293866Y-134008571D02*
X175198628Y-134056190D01*
X175198628Y-134056190D02*
X175151009Y-134103809D01*
X175151009Y-134103809D02*
X175103390Y-134199047D01*
X174674819Y-133389523D02*
X174674819Y-133294285D01*
X174674819Y-133294285D02*
X174722438Y-133199047D01*
X174722438Y-133199047D02*
X174770057Y-133151428D01*
X174770057Y-133151428D02*
X174865295Y-133103809D01*
X174865295Y-133103809D02*
X175055771Y-133056190D01*
X175055771Y-133056190D02*
X175293866Y-133056190D01*
X175293866Y-133056190D02*
X175484342Y-133103809D01*
X175484342Y-133103809D02*
X175579580Y-133151428D01*
X175579580Y-133151428D02*
X175627200Y-133199047D01*
X175627200Y-133199047D02*
X175674819Y-133294285D01*
X175674819Y-133294285D02*
X175674819Y-133389523D01*
X175674819Y-133389523D02*
X175627200Y-133484761D01*
X175627200Y-133484761D02*
X175579580Y-133532380D01*
X175579580Y-133532380D02*
X175484342Y-133579999D01*
X175484342Y-133579999D02*
X175293866Y-133627618D01*
X175293866Y-133627618D02*
X175055771Y-133627618D01*
X175055771Y-133627618D02*
X174865295Y-133579999D01*
X174865295Y-133579999D02*
X174770057Y-133532380D01*
X174770057Y-133532380D02*
X174722438Y-133484761D01*
X174722438Y-133484761D02*
X174674819Y-133389523D01*
X174674819Y-132151428D02*
X174674819Y-132627618D01*
X174674819Y-132627618D02*
X175151009Y-132675237D01*
X175151009Y-132675237D02*
X175103390Y-132627618D01*
X175103390Y-132627618D02*
X175055771Y-132532380D01*
X175055771Y-132532380D02*
X175055771Y-132294285D01*
X175055771Y-132294285D02*
X175103390Y-132199047D01*
X175103390Y-132199047D02*
X175151009Y-132151428D01*
X175151009Y-132151428D02*
X175246247Y-132103809D01*
X175246247Y-132103809D02*
X175484342Y-132103809D01*
X175484342Y-132103809D02*
X175579580Y-132151428D01*
X175579580Y-132151428D02*
X175627200Y-132199047D01*
X175627200Y-132199047D02*
X175674819Y-132294285D01*
X175674819Y-132294285D02*
X175674819Y-132532380D01*
X175674819Y-132532380D02*
X175627200Y-132627618D01*
X175627200Y-132627618D02*
X175579580Y-132675237D01*
X175770057Y-131913333D02*
X175770057Y-131151428D01*
X174674819Y-131056189D02*
X174674819Y-130484761D01*
X175674819Y-130770475D02*
X174674819Y-130770475D01*
X174674819Y-129960951D02*
X174674819Y-129770475D01*
X174674819Y-129770475D02*
X174722438Y-129675237D01*
X174722438Y-129675237D02*
X174817676Y-129579999D01*
X174817676Y-129579999D02*
X175008152Y-129532380D01*
X175008152Y-129532380D02*
X175341485Y-129532380D01*
X175341485Y-129532380D02*
X175531961Y-129579999D01*
X175531961Y-129579999D02*
X175627200Y-129675237D01*
X175627200Y-129675237D02*
X175674819Y-129770475D01*
X175674819Y-129770475D02*
X175674819Y-129960951D01*
X175674819Y-129960951D02*
X175627200Y-130056189D01*
X175627200Y-130056189D02*
X175531961Y-130151427D01*
X175531961Y-130151427D02*
X175341485Y-130199046D01*
X175341485Y-130199046D02*
X175008152Y-130199046D01*
X175008152Y-130199046D02*
X174817676Y-130151427D01*
X174817676Y-130151427D02*
X174722438Y-130056189D01*
X174722438Y-130056189D02*
X174674819Y-129960951D01*
X174770057Y-129151427D02*
X174722438Y-129103808D01*
X174722438Y-129103808D02*
X174674819Y-129008570D01*
X174674819Y-129008570D02*
X174674819Y-128770475D01*
X174674819Y-128770475D02*
X174722438Y-128675237D01*
X174722438Y-128675237D02*
X174770057Y-128627618D01*
X174770057Y-128627618D02*
X174865295Y-128579999D01*
X174865295Y-128579999D02*
X174960533Y-128579999D01*
X174960533Y-128579999D02*
X175103390Y-128627618D01*
X175103390Y-128627618D02*
X175674819Y-129199046D01*
X175674819Y-129199046D02*
X175674819Y-128579999D01*
X174770057Y-128199046D02*
X174722438Y-128151427D01*
X174722438Y-128151427D02*
X174674819Y-128056189D01*
X174674819Y-128056189D02*
X174674819Y-127818094D01*
X174674819Y-127818094D02*
X174722438Y-127722856D01*
X174722438Y-127722856D02*
X174770057Y-127675237D01*
X174770057Y-127675237D02*
X174865295Y-127627618D01*
X174865295Y-127627618D02*
X174960533Y-127627618D01*
X174960533Y-127627618D02*
X175103390Y-127675237D01*
X175103390Y-127675237D02*
X175674819Y-128246665D01*
X175674819Y-128246665D02*
X175674819Y-127627618D01*
X174674819Y-127008570D02*
X174674819Y-126913332D01*
X174674819Y-126913332D02*
X174722438Y-126818094D01*
X174722438Y-126818094D02*
X174770057Y-126770475D01*
X174770057Y-126770475D02*
X174865295Y-126722856D01*
X174865295Y-126722856D02*
X175055771Y-126675237D01*
X175055771Y-126675237D02*
X175293866Y-126675237D01*
X175293866Y-126675237D02*
X175484342Y-126722856D01*
X175484342Y-126722856D02*
X175579580Y-126770475D01*
X175579580Y-126770475D02*
X175627200Y-126818094D01*
X175627200Y-126818094D02*
X175674819Y-126913332D01*
X175674819Y-126913332D02*
X175674819Y-127008570D01*
X175674819Y-127008570D02*
X175627200Y-127103808D01*
X175627200Y-127103808D02*
X175579580Y-127151427D01*
X175579580Y-127151427D02*
X175484342Y-127199046D01*
X175484342Y-127199046D02*
X175293866Y-127246665D01*
X175293866Y-127246665D02*
X175055771Y-127246665D01*
X175055771Y-127246665D02*
X174865295Y-127199046D01*
X174865295Y-127199046D02*
X174770057Y-127151427D01*
X174770057Y-127151427D02*
X174722438Y-127103808D01*
X174722438Y-127103808D02*
X174674819Y-127008570D01*
X161707143Y-134244819D02*
X161802381Y-134244819D01*
X161802381Y-134244819D02*
X161897619Y-134292438D01*
X161897619Y-134292438D02*
X161945238Y-134340057D01*
X161945238Y-134340057D02*
X161992857Y-134435295D01*
X161992857Y-134435295D02*
X162040476Y-134625771D01*
X162040476Y-134625771D02*
X162040476Y-134863866D01*
X162040476Y-134863866D02*
X161992857Y-135054342D01*
X161992857Y-135054342D02*
X161945238Y-135149580D01*
X161945238Y-135149580D02*
X161897619Y-135197200D01*
X161897619Y-135197200D02*
X161802381Y-135244819D01*
X161802381Y-135244819D02*
X161707143Y-135244819D01*
X161707143Y-135244819D02*
X161611905Y-135197200D01*
X161611905Y-135197200D02*
X161564286Y-135149580D01*
X161564286Y-135149580D02*
X161516667Y-135054342D01*
X161516667Y-135054342D02*
X161469048Y-134863866D01*
X161469048Y-134863866D02*
X161469048Y-134625771D01*
X161469048Y-134625771D02*
X161516667Y-134435295D01*
X161516667Y-134435295D02*
X161564286Y-134340057D01*
X161564286Y-134340057D02*
X161611905Y-134292438D01*
X161611905Y-134292438D02*
X161707143Y-134244819D01*
X162469048Y-135149580D02*
X162516667Y-135197200D01*
X162516667Y-135197200D02*
X162469048Y-135244819D01*
X162469048Y-135244819D02*
X162421429Y-135197200D01*
X162421429Y-135197200D02*
X162469048Y-135149580D01*
X162469048Y-135149580D02*
X162469048Y-135244819D01*
X163469047Y-135244819D02*
X162897619Y-135244819D01*
X163183333Y-135244819D02*
X163183333Y-134244819D01*
X163183333Y-134244819D02*
X163088095Y-134387676D01*
X163088095Y-134387676D02*
X162992857Y-134482914D01*
X162992857Y-134482914D02*
X162897619Y-134530533D01*
X164326190Y-134578152D02*
X164326190Y-135244819D01*
X163897619Y-134578152D02*
X163897619Y-135101961D01*
X163897619Y-135101961D02*
X163945238Y-135197200D01*
X163945238Y-135197200D02*
X164040476Y-135244819D01*
X164040476Y-135244819D02*
X164183333Y-135244819D01*
X164183333Y-135244819D02*
X164278571Y-135197200D01*
X164278571Y-135197200D02*
X164326190Y-135149580D01*
X165135714Y-134721009D02*
X164802381Y-134721009D01*
X164802381Y-135244819D02*
X164802381Y-134244819D01*
X164802381Y-134244819D02*
X165278571Y-134244819D01*
X186954819Y-108809523D02*
X185954819Y-108809523D01*
X185954819Y-108809523D02*
X186669104Y-108476190D01*
X186669104Y-108476190D02*
X185954819Y-108142857D01*
X185954819Y-108142857D02*
X186954819Y-108142857D01*
X186954819Y-107523809D02*
X186907200Y-107619047D01*
X186907200Y-107619047D02*
X186859580Y-107666666D01*
X186859580Y-107666666D02*
X186764342Y-107714285D01*
X186764342Y-107714285D02*
X186478628Y-107714285D01*
X186478628Y-107714285D02*
X186383390Y-107666666D01*
X186383390Y-107666666D02*
X186335771Y-107619047D01*
X186335771Y-107619047D02*
X186288152Y-107523809D01*
X186288152Y-107523809D02*
X186288152Y-107380952D01*
X186288152Y-107380952D02*
X186335771Y-107285714D01*
X186335771Y-107285714D02*
X186383390Y-107238095D01*
X186383390Y-107238095D02*
X186478628Y-107190476D01*
X186478628Y-107190476D02*
X186764342Y-107190476D01*
X186764342Y-107190476D02*
X186859580Y-107238095D01*
X186859580Y-107238095D02*
X186907200Y-107285714D01*
X186907200Y-107285714D02*
X186954819Y-107380952D01*
X186954819Y-107380952D02*
X186954819Y-107523809D01*
X186288152Y-106904761D02*
X186288152Y-106523809D01*
X185954819Y-106761904D02*
X186811961Y-106761904D01*
X186811961Y-106761904D02*
X186907200Y-106714285D01*
X186907200Y-106714285D02*
X186954819Y-106619047D01*
X186954819Y-106619047D02*
X186954819Y-106523809D01*
X186954819Y-106047618D02*
X186907200Y-106142856D01*
X186907200Y-106142856D02*
X186859580Y-106190475D01*
X186859580Y-106190475D02*
X186764342Y-106238094D01*
X186764342Y-106238094D02*
X186478628Y-106238094D01*
X186478628Y-106238094D02*
X186383390Y-106190475D01*
X186383390Y-106190475D02*
X186335771Y-106142856D01*
X186335771Y-106142856D02*
X186288152Y-106047618D01*
X186288152Y-106047618D02*
X186288152Y-105904761D01*
X186288152Y-105904761D02*
X186335771Y-105809523D01*
X186335771Y-105809523D02*
X186383390Y-105761904D01*
X186383390Y-105761904D02*
X186478628Y-105714285D01*
X186478628Y-105714285D02*
X186764342Y-105714285D01*
X186764342Y-105714285D02*
X186859580Y-105761904D01*
X186859580Y-105761904D02*
X186907200Y-105809523D01*
X186907200Y-105809523D02*
X186954819Y-105904761D01*
X186954819Y-105904761D02*
X186954819Y-106047618D01*
X186954819Y-105285713D02*
X186288152Y-105285713D01*
X186478628Y-105285713D02*
X186383390Y-105238094D01*
X186383390Y-105238094D02*
X186335771Y-105190475D01*
X186335771Y-105190475D02*
X186288152Y-105095237D01*
X186288152Y-105095237D02*
X186288152Y-104999999D01*
X186954819Y-104142856D02*
X186954819Y-104714284D01*
X186954819Y-104428570D02*
X185954819Y-104428570D01*
X185954819Y-104428570D02*
X186097676Y-104523808D01*
X186097676Y-104523808D02*
X186192914Y-104619046D01*
X186192914Y-104619046D02*
X186240533Y-104714284D01*
X152030952Y-134244819D02*
X152126190Y-134244819D01*
X152126190Y-134244819D02*
X152221428Y-134292438D01*
X152221428Y-134292438D02*
X152269047Y-134340057D01*
X152269047Y-134340057D02*
X152316666Y-134435295D01*
X152316666Y-134435295D02*
X152364285Y-134625771D01*
X152364285Y-134625771D02*
X152364285Y-134863866D01*
X152364285Y-134863866D02*
X152316666Y-135054342D01*
X152316666Y-135054342D02*
X152269047Y-135149580D01*
X152269047Y-135149580D02*
X152221428Y-135197200D01*
X152221428Y-135197200D02*
X152126190Y-135244819D01*
X152126190Y-135244819D02*
X152030952Y-135244819D01*
X152030952Y-135244819D02*
X151935714Y-135197200D01*
X151935714Y-135197200D02*
X151888095Y-135149580D01*
X151888095Y-135149580D02*
X151840476Y-135054342D01*
X151840476Y-135054342D02*
X151792857Y-134863866D01*
X151792857Y-134863866D02*
X151792857Y-134625771D01*
X151792857Y-134625771D02*
X151840476Y-134435295D01*
X151840476Y-134435295D02*
X151888095Y-134340057D01*
X151888095Y-134340057D02*
X151935714Y-134292438D01*
X151935714Y-134292438D02*
X152030952Y-134244819D01*
X152792857Y-135149580D02*
X152840476Y-135197200D01*
X152840476Y-135197200D02*
X152792857Y-135244819D01*
X152792857Y-135244819D02*
X152745238Y-135197200D01*
X152745238Y-135197200D02*
X152792857Y-135149580D01*
X152792857Y-135149580D02*
X152792857Y-135244819D01*
X153173809Y-134244819D02*
X153792856Y-134244819D01*
X153792856Y-134244819D02*
X153459523Y-134625771D01*
X153459523Y-134625771D02*
X153602380Y-134625771D01*
X153602380Y-134625771D02*
X153697618Y-134673390D01*
X153697618Y-134673390D02*
X153745237Y-134721009D01*
X153745237Y-134721009D02*
X153792856Y-134816247D01*
X153792856Y-134816247D02*
X153792856Y-135054342D01*
X153792856Y-135054342D02*
X153745237Y-135149580D01*
X153745237Y-135149580D02*
X153697618Y-135197200D01*
X153697618Y-135197200D02*
X153602380Y-135244819D01*
X153602380Y-135244819D02*
X153316666Y-135244819D01*
X153316666Y-135244819D02*
X153221428Y-135197200D01*
X153221428Y-135197200D02*
X153173809Y-135149580D01*
X154126190Y-134244819D02*
X154745237Y-134244819D01*
X154745237Y-134244819D02*
X154411904Y-134625771D01*
X154411904Y-134625771D02*
X154554761Y-134625771D01*
X154554761Y-134625771D02*
X154649999Y-134673390D01*
X154649999Y-134673390D02*
X154697618Y-134721009D01*
X154697618Y-134721009D02*
X154745237Y-134816247D01*
X154745237Y-134816247D02*
X154745237Y-135054342D01*
X154745237Y-135054342D02*
X154697618Y-135149580D01*
X154697618Y-135149580D02*
X154649999Y-135197200D01*
X154649999Y-135197200D02*
X154554761Y-135244819D01*
X154554761Y-135244819D02*
X154269047Y-135244819D01*
X154269047Y-135244819D02*
X154173809Y-135197200D01*
X154173809Y-135197200D02*
X154126190Y-135149580D01*
X155602380Y-134578152D02*
X155602380Y-135244819D01*
X155173809Y-134578152D02*
X155173809Y-135101961D01*
X155173809Y-135101961D02*
X155221428Y-135197200D01*
X155221428Y-135197200D02*
X155316666Y-135244819D01*
X155316666Y-135244819D02*
X155459523Y-135244819D01*
X155459523Y-135244819D02*
X155554761Y-135197200D01*
X155554761Y-135197200D02*
X155602380Y-135149580D01*
X156411904Y-134721009D02*
X156078571Y-134721009D01*
X156078571Y-135244819D02*
X156078571Y-134244819D01*
X156078571Y-134244819D02*
X156554761Y-134244819D01*
X186954819Y-96309523D02*
X185954819Y-96309523D01*
X185954819Y-96309523D02*
X186669104Y-95976190D01*
X186669104Y-95976190D02*
X185954819Y-95642857D01*
X185954819Y-95642857D02*
X186954819Y-95642857D01*
X186954819Y-95023809D02*
X186907200Y-95119047D01*
X186907200Y-95119047D02*
X186859580Y-95166666D01*
X186859580Y-95166666D02*
X186764342Y-95214285D01*
X186764342Y-95214285D02*
X186478628Y-95214285D01*
X186478628Y-95214285D02*
X186383390Y-95166666D01*
X186383390Y-95166666D02*
X186335771Y-95119047D01*
X186335771Y-95119047D02*
X186288152Y-95023809D01*
X186288152Y-95023809D02*
X186288152Y-94880952D01*
X186288152Y-94880952D02*
X186335771Y-94785714D01*
X186335771Y-94785714D02*
X186383390Y-94738095D01*
X186383390Y-94738095D02*
X186478628Y-94690476D01*
X186478628Y-94690476D02*
X186764342Y-94690476D01*
X186764342Y-94690476D02*
X186859580Y-94738095D01*
X186859580Y-94738095D02*
X186907200Y-94785714D01*
X186907200Y-94785714D02*
X186954819Y-94880952D01*
X186954819Y-94880952D02*
X186954819Y-95023809D01*
X186288152Y-94404761D02*
X186288152Y-94023809D01*
X185954819Y-94261904D02*
X186811961Y-94261904D01*
X186811961Y-94261904D02*
X186907200Y-94214285D01*
X186907200Y-94214285D02*
X186954819Y-94119047D01*
X186954819Y-94119047D02*
X186954819Y-94023809D01*
X186954819Y-93547618D02*
X186907200Y-93642856D01*
X186907200Y-93642856D02*
X186859580Y-93690475D01*
X186859580Y-93690475D02*
X186764342Y-93738094D01*
X186764342Y-93738094D02*
X186478628Y-93738094D01*
X186478628Y-93738094D02*
X186383390Y-93690475D01*
X186383390Y-93690475D02*
X186335771Y-93642856D01*
X186335771Y-93642856D02*
X186288152Y-93547618D01*
X186288152Y-93547618D02*
X186288152Y-93404761D01*
X186288152Y-93404761D02*
X186335771Y-93309523D01*
X186335771Y-93309523D02*
X186383390Y-93261904D01*
X186383390Y-93261904D02*
X186478628Y-93214285D01*
X186478628Y-93214285D02*
X186764342Y-93214285D01*
X186764342Y-93214285D02*
X186859580Y-93261904D01*
X186859580Y-93261904D02*
X186907200Y-93309523D01*
X186907200Y-93309523D02*
X186954819Y-93404761D01*
X186954819Y-93404761D02*
X186954819Y-93547618D01*
X186954819Y-92785713D02*
X186288152Y-92785713D01*
X186478628Y-92785713D02*
X186383390Y-92738094D01*
X186383390Y-92738094D02*
X186335771Y-92690475D01*
X186335771Y-92690475D02*
X186288152Y-92595237D01*
X186288152Y-92595237D02*
X186288152Y-92499999D01*
X186050057Y-92214284D02*
X186002438Y-92166665D01*
X186002438Y-92166665D02*
X185954819Y-92071427D01*
X185954819Y-92071427D02*
X185954819Y-91833332D01*
X185954819Y-91833332D02*
X186002438Y-91738094D01*
X186002438Y-91738094D02*
X186050057Y-91690475D01*
X186050057Y-91690475D02*
X186145295Y-91642856D01*
X186145295Y-91642856D02*
X186240533Y-91642856D01*
X186240533Y-91642856D02*
X186383390Y-91690475D01*
X186383390Y-91690475D02*
X186954819Y-92261903D01*
X186954819Y-92261903D02*
X186954819Y-91642856D01*
D11*
%TO.C,U2*%
X118130000Y-86460000D02*
X118130000Y-134660000D01*
X118130000Y-134660000D02*
X128010000Y-134660000D01*
X123080000Y-80260000D02*
X141080000Y-80260000D01*
X123080000Y-86460000D02*
X118130000Y-86460000D01*
X123080000Y-86460000D02*
X123080000Y-80260000D01*
X128010000Y-134660000D02*
X128010000Y-135560000D01*
X128010000Y-135560000D02*
X136140000Y-135560000D01*
X136140000Y-134660000D02*
X146030000Y-134660000D01*
X136140000Y-135560000D02*
X136140000Y-134660000D01*
X141080000Y-80260000D02*
X141080000Y-86460000D01*
X146030000Y-86460000D02*
X141080000Y-86460000D01*
X146030000Y-134660000D02*
X146030000Y-86460000D01*
D12*
X117610000Y-87590000D02*
G75*
G03*
X117610000Y-87590000I-100000J0D01*
G01*
D13*
%TO.C,U4*%
X154622500Y-78422500D02*
X170497500Y-78422500D01*
X170497500Y-78422500D02*
X170497500Y-99377500D01*
X170497500Y-99377500D02*
X154622500Y-99377500D01*
X154622500Y-99377500D02*
X154622500Y-78422500D01*
D14*
%TO.C,IC2*%
X171490000Y-121510000D02*
X171490000Y-101530000D01*
X171490000Y-101530000D02*
X153250000Y-101530000D01*
X165409999Y-121510000D02*
X171490000Y-121510000D01*
X165409999Y-121150000D02*
X165409999Y-121510000D01*
X159330000Y-121510000D02*
X159330000Y-121150000D01*
X159330000Y-121150000D02*
X165409999Y-121150000D01*
X153250000Y-121510000D02*
X159330000Y-121510000D01*
X153250000Y-101530000D02*
X153250000Y-121510000D01*
%TO.C,Pilas1*%
X184500000Y-124640000D02*
X185240000Y-124640000D01*
X185240000Y-124640000D02*
X185240000Y-124140000D01*
X175079000Y-124400000D02*
X185000000Y-124400000D01*
X175079000Y-124400000D02*
X175079000Y-114280000D01*
X178039000Y-124400000D02*
X178039000Y-114280000D01*
X182940000Y-124400000D02*
X182940000Y-114280000D01*
X184440000Y-124400000D02*
X184440000Y-114280000D01*
X185000000Y-124400000D02*
X185000000Y-114280000D01*
X181363000Y-118067000D02*
X181409000Y-118114000D01*
X181579000Y-117874000D02*
X181614000Y-117909000D01*
X179065000Y-115770000D02*
X179101000Y-115805000D01*
X179271000Y-115565000D02*
X179317000Y-115612000D01*
X175079000Y-114280000D02*
X185000000Y-114280000D01*
X179656001Y-123374999D02*
G75*
G03*
X181023042Y-123375426I684000J1534992D01*
G01*
X178805001Y-121156001D02*
G75*
G03*
X178804574Y-122523042I1534992J-684000D01*
G01*
X181874999Y-122524000D02*
G75*
G03*
X182020252Y-121811195I-1535000J683999D01*
G01*
X182019999Y-121840000D02*
G75*
G03*
X181874755Y-121156682I-1679999J0D01*
G01*
X181024000Y-120305000D02*
G75*
G03*
X179656958Y-120304574I-684000J-1535000D01*
G01*
X182020000Y-116840000D02*
G75*
G03*
X182020000Y-116840000I-1680000J0D01*
G01*
%TO.C,U1*%
X169450000Y-134660000D02*
X174091000Y-134660000D01*
X169450000Y-134660000D02*
X169450000Y-124420000D01*
X170960000Y-134660000D02*
X170960000Y-124420000D01*
X174091000Y-134660000D02*
X174091000Y-124420000D01*
X169450000Y-131390000D02*
X170960000Y-131390000D01*
X169450000Y-127689000D02*
X170960000Y-127689000D01*
X169450000Y-124420000D02*
X174091000Y-124420000D01*
%TO.C,C3*%
X158940302Y-127225000D02*
X159740302Y-127225000D01*
X159340302Y-126825000D02*
X159340302Y-127625000D01*
X163350000Y-125460000D02*
X163350000Y-133620000D01*
X163390000Y-125460000D02*
X163390000Y-133620000D01*
X163430000Y-125460000D02*
X163430000Y-133620000D01*
X163470000Y-125461000D02*
X163470000Y-133619000D01*
X163510000Y-125463000D02*
X163510000Y-133617000D01*
X163550000Y-125464000D02*
X163550000Y-133616000D01*
X163590000Y-125466000D02*
X163590000Y-133614000D01*
X163630000Y-125469000D02*
X163630000Y-133611000D01*
X163670000Y-125472000D02*
X163670000Y-133608000D01*
X163710000Y-125475000D02*
X163710000Y-133605000D01*
X163750000Y-125479000D02*
X163750000Y-133601000D01*
X163790000Y-125483000D02*
X163790000Y-133597000D01*
X163830000Y-125488000D02*
X163830000Y-133592000D01*
X163870000Y-125492000D02*
X163870000Y-133588000D01*
X163910000Y-125498000D02*
X163910000Y-133582000D01*
X163950000Y-125503000D02*
X163950000Y-133577000D01*
X163990000Y-125510000D02*
X163990000Y-133570000D01*
X164030000Y-125516000D02*
X164030000Y-133564000D01*
X164071000Y-125523000D02*
X164071000Y-128500000D01*
X164071000Y-130580000D02*
X164071000Y-133557000D01*
X164111000Y-125530000D02*
X164111000Y-128500000D01*
X164111000Y-130580000D02*
X164111000Y-133550000D01*
X164151000Y-125538000D02*
X164151000Y-128500000D01*
X164151000Y-130580000D02*
X164151000Y-133542000D01*
X164191000Y-125546000D02*
X164191000Y-128500000D01*
X164191000Y-130580000D02*
X164191000Y-133534000D01*
X164231000Y-125555000D02*
X164231000Y-128500000D01*
X164231000Y-130580000D02*
X164231000Y-133525000D01*
X164271000Y-125564000D02*
X164271000Y-128500000D01*
X164271000Y-130580000D02*
X164271000Y-133516000D01*
X164311000Y-125573000D02*
X164311000Y-128500000D01*
X164311000Y-130580000D02*
X164311000Y-133507000D01*
X164351000Y-125583000D02*
X164351000Y-128500000D01*
X164351000Y-130580000D02*
X164351000Y-133497000D01*
X164391000Y-125593000D02*
X164391000Y-128500000D01*
X164391000Y-130580000D02*
X164391000Y-133487000D01*
X164431000Y-125604000D02*
X164431000Y-128500000D01*
X164431000Y-130580000D02*
X164431000Y-133476000D01*
X164471000Y-125615000D02*
X164471000Y-128500000D01*
X164471000Y-130580000D02*
X164471000Y-133465000D01*
X164511000Y-125626000D02*
X164511000Y-128500000D01*
X164511000Y-130580000D02*
X164511000Y-133454000D01*
X164551000Y-125638000D02*
X164551000Y-128500000D01*
X164551000Y-130580000D02*
X164551000Y-133442000D01*
X164591000Y-125651000D02*
X164591000Y-128500000D01*
X164591000Y-130580000D02*
X164591000Y-133429000D01*
X164631000Y-125663000D02*
X164631000Y-128500000D01*
X164631000Y-130580000D02*
X164631000Y-133417000D01*
X164671000Y-125677000D02*
X164671000Y-128500000D01*
X164671000Y-130580000D02*
X164671000Y-133403000D01*
X164711000Y-125690000D02*
X164711000Y-128500000D01*
X164711000Y-130580000D02*
X164711000Y-133390000D01*
X164751000Y-125705000D02*
X164751000Y-128500000D01*
X164751000Y-130580000D02*
X164751000Y-133375000D01*
X164791000Y-125719000D02*
X164791000Y-128500000D01*
X164791000Y-130580000D02*
X164791000Y-133361000D01*
X164831000Y-125735000D02*
X164831000Y-128500000D01*
X164831000Y-130580000D02*
X164831000Y-133345000D01*
X164871000Y-125750000D02*
X164871000Y-128500000D01*
X164871000Y-130580000D02*
X164871000Y-133330000D01*
X164911000Y-125766000D02*
X164911000Y-128500000D01*
X164911000Y-130580000D02*
X164911000Y-133314000D01*
X164951000Y-125783000D02*
X164951000Y-128500000D01*
X164951000Y-130580000D02*
X164951000Y-133297000D01*
X164991000Y-125800000D02*
X164991000Y-128500000D01*
X164991000Y-130580000D02*
X164991000Y-133280000D01*
X165031000Y-125818000D02*
X165031000Y-128500000D01*
X165031000Y-130580000D02*
X165031000Y-133262000D01*
X165071000Y-125836000D02*
X165071000Y-128500000D01*
X165071000Y-130580000D02*
X165071000Y-133244000D01*
X165111000Y-125854000D02*
X165111000Y-128500000D01*
X165111000Y-130580000D02*
X165111000Y-133226000D01*
X165151000Y-125874000D02*
X165151000Y-128500000D01*
X165151000Y-130580000D02*
X165151000Y-133206000D01*
X165191000Y-125893000D02*
X165191000Y-128500000D01*
X165191000Y-130580000D02*
X165191000Y-133187000D01*
X165231000Y-125913000D02*
X165231000Y-128500000D01*
X165231000Y-130580000D02*
X165231000Y-133167000D01*
X165271000Y-125934000D02*
X165271000Y-128500000D01*
X165271000Y-130580000D02*
X165271000Y-133146000D01*
X165311000Y-125956000D02*
X165311000Y-128500000D01*
X165311000Y-130580000D02*
X165311000Y-133124000D01*
X165351000Y-125978000D02*
X165351000Y-128500000D01*
X165351000Y-130580000D02*
X165351000Y-133102000D01*
X165391000Y-126000000D02*
X165391000Y-128500000D01*
X165391000Y-130580000D02*
X165391000Y-133080000D01*
X165431000Y-126023000D02*
X165431000Y-128500000D01*
X165431000Y-130580000D02*
X165431000Y-133057000D01*
X165471000Y-126047000D02*
X165471000Y-128500000D01*
X165471000Y-130580000D02*
X165471000Y-133033000D01*
X165511000Y-126071000D02*
X165511000Y-128500000D01*
X165511000Y-130580000D02*
X165511000Y-133009000D01*
X165551000Y-126096000D02*
X165551000Y-128500000D01*
X165551000Y-130580000D02*
X165551000Y-132984000D01*
X165591000Y-126122000D02*
X165591000Y-128500000D01*
X165591000Y-130580000D02*
X165591000Y-132958000D01*
X165631000Y-126148000D02*
X165631000Y-128500000D01*
X165631000Y-130580000D02*
X165631000Y-132932000D01*
X165671000Y-126175000D02*
X165671000Y-128500000D01*
X165671000Y-130580000D02*
X165671000Y-132905000D01*
X165711000Y-126202000D02*
X165711000Y-128500000D01*
X165711000Y-130580000D02*
X165711000Y-132878000D01*
X165751000Y-126231000D02*
X165751000Y-128500000D01*
X165751000Y-130580000D02*
X165751000Y-132849000D01*
X165791000Y-126260000D02*
X165791000Y-128500000D01*
X165791000Y-130580000D02*
X165791000Y-132820000D01*
X165831000Y-126290000D02*
X165831000Y-128500000D01*
X165831000Y-130580000D02*
X165831000Y-132790000D01*
X165871000Y-126320000D02*
X165871000Y-128500000D01*
X165871000Y-130580000D02*
X165871000Y-132760000D01*
X165911000Y-126351000D02*
X165911000Y-128500000D01*
X165911000Y-130580000D02*
X165911000Y-132729000D01*
X165951000Y-126384000D02*
X165951000Y-128500000D01*
X165951000Y-130580000D02*
X165951000Y-132696000D01*
X165991000Y-126416000D02*
X165991000Y-128500000D01*
X165991000Y-130580000D02*
X165991000Y-132664000D01*
X166031000Y-126450000D02*
X166031000Y-128500000D01*
X166031000Y-130580000D02*
X166031000Y-132630000D01*
X166071000Y-126485000D02*
X166071000Y-128500000D01*
X166071000Y-130580000D02*
X166071000Y-132595000D01*
X166111000Y-126521000D02*
X166111000Y-128500000D01*
X166111000Y-130580000D02*
X166111000Y-132559000D01*
X166151000Y-126557000D02*
X166151000Y-132523000D01*
X166191000Y-126595000D02*
X166191000Y-132485000D01*
X166231000Y-126633000D02*
X166231000Y-132447000D01*
X166271000Y-126673000D02*
X166271000Y-132407000D01*
X166311000Y-126714000D02*
X166311000Y-132366000D01*
X166351000Y-126756000D02*
X166351000Y-132324000D01*
X166391000Y-126799000D02*
X166391000Y-132281000D01*
X166431000Y-126843000D02*
X166431000Y-132237000D01*
X166471000Y-126889000D02*
X166471000Y-132191000D01*
X166511000Y-126936000D02*
X166511000Y-132144000D01*
X166551000Y-126984000D02*
X166551000Y-132096000D01*
X166591000Y-127035000D02*
X166591000Y-132045000D01*
X166631000Y-127086000D02*
X166631000Y-131994000D01*
X166671000Y-127140000D02*
X166671000Y-131940000D01*
X166711000Y-127195000D02*
X166711000Y-131885000D01*
X166751000Y-127253000D02*
X166751000Y-131827000D01*
X166791000Y-127312000D02*
X166791000Y-131768000D01*
X166831000Y-127374000D02*
X166831000Y-131706000D01*
X166871000Y-127438000D02*
X166871000Y-131642000D01*
X166911000Y-127506000D02*
X166911000Y-131574000D01*
X166951000Y-127576000D02*
X166951000Y-131504000D01*
X166991000Y-127650000D02*
X166991000Y-131430000D01*
X167031000Y-127727000D02*
X167031000Y-131353000D01*
X167071000Y-127809000D02*
X167071000Y-131271000D01*
X167111000Y-127895000D02*
X167111000Y-131185000D01*
X167151000Y-127988000D02*
X167151000Y-131092000D01*
X167191000Y-128087000D02*
X167191000Y-130993000D01*
X167231000Y-128194000D02*
X167231000Y-130886000D01*
X167271000Y-128311000D02*
X167271000Y-130769000D01*
X167311000Y-128442000D02*
X167311000Y-130638000D01*
X167351000Y-128592000D02*
X167351000Y-130488000D01*
X167391000Y-128772000D02*
X167391000Y-130308000D01*
X167431000Y-129007000D02*
X167431000Y-130073000D01*
X167470000Y-129540000D02*
G75*
G03*
X167470000Y-129540000I-4120000J0D01*
G01*
%TO.C,Motor1*%
X184500000Y-111940000D02*
X185240000Y-111940000D01*
X185240000Y-111940000D02*
X185240000Y-111440000D01*
X175079000Y-111700000D02*
X185000000Y-111700000D01*
X175079000Y-111700000D02*
X175079000Y-101580000D01*
X178039000Y-111700000D02*
X178039000Y-101580000D01*
X182940000Y-111700000D02*
X182940000Y-101580000D01*
X184440000Y-111700000D02*
X184440000Y-101580000D01*
X185000000Y-111700000D02*
X185000000Y-101580000D01*
X181363000Y-105367000D02*
X181409000Y-105414000D01*
X181579000Y-105174000D02*
X181614000Y-105209000D01*
X179065000Y-103070000D02*
X179101000Y-103105000D01*
X179271000Y-102865000D02*
X179317000Y-102912000D01*
X175079000Y-101580000D02*
X185000000Y-101580000D01*
X179656001Y-110674999D02*
G75*
G03*
X181023042Y-110675426I684000J1534992D01*
G01*
X178805001Y-108456001D02*
G75*
G03*
X178804574Y-109823042I1534992J-684000D01*
G01*
X181874999Y-109824000D02*
G75*
G03*
X182020252Y-109111195I-1535000J683999D01*
G01*
X182019999Y-109140000D02*
G75*
G03*
X181874755Y-108456682I-1679999J0D01*
G01*
X181024000Y-107605000D02*
G75*
G03*
X179656958Y-107604574I-684000J-1535000D01*
G01*
X182020000Y-104140000D02*
G75*
G03*
X182020000Y-104140000I-1680000J0D01*
G01*
%TO.C,C2*%
X149740302Y-127225000D02*
X150540302Y-127225000D01*
X150140302Y-126825000D02*
X150140302Y-127625000D01*
X154150000Y-125460000D02*
X154150000Y-133620000D01*
X154190000Y-125460000D02*
X154190000Y-133620000D01*
X154230000Y-125460000D02*
X154230000Y-133620000D01*
X154270000Y-125461000D02*
X154270000Y-133619000D01*
X154310000Y-125463000D02*
X154310000Y-133617000D01*
X154350000Y-125464000D02*
X154350000Y-133616000D01*
X154390000Y-125466000D02*
X154390000Y-133614000D01*
X154430000Y-125469000D02*
X154430000Y-133611000D01*
X154470000Y-125472000D02*
X154470000Y-133608000D01*
X154510000Y-125475000D02*
X154510000Y-133605000D01*
X154550000Y-125479000D02*
X154550000Y-133601000D01*
X154590000Y-125483000D02*
X154590000Y-133597000D01*
X154630000Y-125488000D02*
X154630000Y-133592000D01*
X154670000Y-125492000D02*
X154670000Y-133588000D01*
X154710000Y-125498000D02*
X154710000Y-133582000D01*
X154750000Y-125503000D02*
X154750000Y-133577000D01*
X154790000Y-125510000D02*
X154790000Y-133570000D01*
X154830000Y-125516000D02*
X154830000Y-133564000D01*
X154871000Y-125523000D02*
X154871000Y-128500000D01*
X154871000Y-130580000D02*
X154871000Y-133557000D01*
X154911000Y-125530000D02*
X154911000Y-128500000D01*
X154911000Y-130580000D02*
X154911000Y-133550000D01*
X154951000Y-125538000D02*
X154951000Y-128500000D01*
X154951000Y-130580000D02*
X154951000Y-133542000D01*
X154991000Y-125546000D02*
X154991000Y-128500000D01*
X154991000Y-130580000D02*
X154991000Y-133534000D01*
X155031000Y-125555000D02*
X155031000Y-128500000D01*
X155031000Y-130580000D02*
X155031000Y-133525000D01*
X155071000Y-125564000D02*
X155071000Y-128500000D01*
X155071000Y-130580000D02*
X155071000Y-133516000D01*
X155111000Y-125573000D02*
X155111000Y-128500000D01*
X155111000Y-130580000D02*
X155111000Y-133507000D01*
X155151000Y-125583000D02*
X155151000Y-128500000D01*
X155151000Y-130580000D02*
X155151000Y-133497000D01*
X155191000Y-125593000D02*
X155191000Y-128500000D01*
X155191000Y-130580000D02*
X155191000Y-133487000D01*
X155231000Y-125604000D02*
X155231000Y-128500000D01*
X155231000Y-130580000D02*
X155231000Y-133476000D01*
X155271000Y-125615000D02*
X155271000Y-128500000D01*
X155271000Y-130580000D02*
X155271000Y-133465000D01*
X155311000Y-125626000D02*
X155311000Y-128500000D01*
X155311000Y-130580000D02*
X155311000Y-133454000D01*
X155351000Y-125638000D02*
X155351000Y-128500000D01*
X155351000Y-130580000D02*
X155351000Y-133442000D01*
X155391000Y-125651000D02*
X155391000Y-128500000D01*
X155391000Y-130580000D02*
X155391000Y-133429000D01*
X155431000Y-125663000D02*
X155431000Y-128500000D01*
X155431000Y-130580000D02*
X155431000Y-133417000D01*
X155471000Y-125677000D02*
X155471000Y-128500000D01*
X155471000Y-130580000D02*
X155471000Y-133403000D01*
X155511000Y-125690000D02*
X155511000Y-128500000D01*
X155511000Y-130580000D02*
X155511000Y-133390000D01*
X155551000Y-125705000D02*
X155551000Y-128500000D01*
X155551000Y-130580000D02*
X155551000Y-133375000D01*
X155591000Y-125719000D02*
X155591000Y-128500000D01*
X155591000Y-130580000D02*
X155591000Y-133361000D01*
X155631000Y-125735000D02*
X155631000Y-128500000D01*
X155631000Y-130580000D02*
X155631000Y-133345000D01*
X155671000Y-125750000D02*
X155671000Y-128500000D01*
X155671000Y-130580000D02*
X155671000Y-133330000D01*
X155711000Y-125766000D02*
X155711000Y-128500000D01*
X155711000Y-130580000D02*
X155711000Y-133314000D01*
X155751000Y-125783000D02*
X155751000Y-128500000D01*
X155751000Y-130580000D02*
X155751000Y-133297000D01*
X155791000Y-125800000D02*
X155791000Y-128500000D01*
X155791000Y-130580000D02*
X155791000Y-133280000D01*
X155831000Y-125818000D02*
X155831000Y-128500000D01*
X155831000Y-130580000D02*
X155831000Y-133262000D01*
X155871000Y-125836000D02*
X155871000Y-128500000D01*
X155871000Y-130580000D02*
X155871000Y-133244000D01*
X155911000Y-125854000D02*
X155911000Y-128500000D01*
X155911000Y-130580000D02*
X155911000Y-133226000D01*
X155951000Y-125874000D02*
X155951000Y-128500000D01*
X155951000Y-130580000D02*
X155951000Y-133206000D01*
X155991000Y-125893000D02*
X155991000Y-128500000D01*
X155991000Y-130580000D02*
X155991000Y-133187000D01*
X156031000Y-125913000D02*
X156031000Y-128500000D01*
X156031000Y-130580000D02*
X156031000Y-133167000D01*
X156071000Y-125934000D02*
X156071000Y-128500000D01*
X156071000Y-130580000D02*
X156071000Y-133146000D01*
X156111000Y-125956000D02*
X156111000Y-128500000D01*
X156111000Y-130580000D02*
X156111000Y-133124000D01*
X156151000Y-125978000D02*
X156151000Y-128500000D01*
X156151000Y-130580000D02*
X156151000Y-133102000D01*
X156191000Y-126000000D02*
X156191000Y-128500000D01*
X156191000Y-130580000D02*
X156191000Y-133080000D01*
X156231000Y-126023000D02*
X156231000Y-128500000D01*
X156231000Y-130580000D02*
X156231000Y-133057000D01*
X156271000Y-126047000D02*
X156271000Y-128500000D01*
X156271000Y-130580000D02*
X156271000Y-133033000D01*
X156311000Y-126071000D02*
X156311000Y-128500000D01*
X156311000Y-130580000D02*
X156311000Y-133009000D01*
X156351000Y-126096000D02*
X156351000Y-128500000D01*
X156351000Y-130580000D02*
X156351000Y-132984000D01*
X156391000Y-126122000D02*
X156391000Y-128500000D01*
X156391000Y-130580000D02*
X156391000Y-132958000D01*
X156431000Y-126148000D02*
X156431000Y-128500000D01*
X156431000Y-130580000D02*
X156431000Y-132932000D01*
X156471000Y-126175000D02*
X156471000Y-128500000D01*
X156471000Y-130580000D02*
X156471000Y-132905000D01*
X156511000Y-126202000D02*
X156511000Y-128500000D01*
X156511000Y-130580000D02*
X156511000Y-132878000D01*
X156551000Y-126231000D02*
X156551000Y-128500000D01*
X156551000Y-130580000D02*
X156551000Y-132849000D01*
X156591000Y-126260000D02*
X156591000Y-128500000D01*
X156591000Y-130580000D02*
X156591000Y-132820000D01*
X156631000Y-126290000D02*
X156631000Y-128500000D01*
X156631000Y-130580000D02*
X156631000Y-132790000D01*
X156671000Y-126320000D02*
X156671000Y-128500000D01*
X156671000Y-130580000D02*
X156671000Y-132760000D01*
X156711000Y-126351000D02*
X156711000Y-128500000D01*
X156711000Y-130580000D02*
X156711000Y-132729000D01*
X156751000Y-126384000D02*
X156751000Y-128500000D01*
X156751000Y-130580000D02*
X156751000Y-132696000D01*
X156791000Y-126416000D02*
X156791000Y-128500000D01*
X156791000Y-130580000D02*
X156791000Y-132664000D01*
X156831000Y-126450000D02*
X156831000Y-128500000D01*
X156831000Y-130580000D02*
X156831000Y-132630000D01*
X156871000Y-126485000D02*
X156871000Y-128500000D01*
X156871000Y-130580000D02*
X156871000Y-132595000D01*
X156911000Y-126521000D02*
X156911000Y-128500000D01*
X156911000Y-130580000D02*
X156911000Y-132559000D01*
X156951000Y-126557000D02*
X156951000Y-132523000D01*
X156991000Y-126595000D02*
X156991000Y-132485000D01*
X157031000Y-126633000D02*
X157031000Y-132447000D01*
X157071000Y-126673000D02*
X157071000Y-132407000D01*
X157111000Y-126714000D02*
X157111000Y-132366000D01*
X157151000Y-126756000D02*
X157151000Y-132324000D01*
X157191000Y-126799000D02*
X157191000Y-132281000D01*
X157231000Y-126843000D02*
X157231000Y-132237000D01*
X157271000Y-126889000D02*
X157271000Y-132191000D01*
X157311000Y-126936000D02*
X157311000Y-132144000D01*
X157351000Y-126984000D02*
X157351000Y-132096000D01*
X157391000Y-127035000D02*
X157391000Y-132045000D01*
X157431000Y-127086000D02*
X157431000Y-131994000D01*
X157471000Y-127140000D02*
X157471000Y-131940000D01*
X157511000Y-127195000D02*
X157511000Y-131885000D01*
X157551000Y-127253000D02*
X157551000Y-131827000D01*
X157591000Y-127312000D02*
X157591000Y-131768000D01*
X157631000Y-127374000D02*
X157631000Y-131706000D01*
X157671000Y-127438000D02*
X157671000Y-131642000D01*
X157711000Y-127506000D02*
X157711000Y-131574000D01*
X157751000Y-127576000D02*
X157751000Y-131504000D01*
X157791000Y-127650000D02*
X157791000Y-131430000D01*
X157831000Y-127727000D02*
X157831000Y-131353000D01*
X157871000Y-127809000D02*
X157871000Y-131271000D01*
X157911000Y-127895000D02*
X157911000Y-131185000D01*
X157951000Y-127988000D02*
X157951000Y-131092000D01*
X157991000Y-128087000D02*
X157991000Y-130993000D01*
X158031000Y-128194000D02*
X158031000Y-130886000D01*
X158071000Y-128311000D02*
X158071000Y-130769000D01*
X158111000Y-128442000D02*
X158111000Y-130638000D01*
X158151000Y-128592000D02*
X158151000Y-130488000D01*
X158191000Y-128772000D02*
X158191000Y-130308000D01*
X158231000Y-129007000D02*
X158231000Y-130073000D01*
X158270000Y-129540000D02*
G75*
G03*
X158270000Y-129540000I-4120000J0D01*
G01*
%TO.C,Motor2*%
X184500000Y-99320000D02*
X185240000Y-99320000D01*
X185240000Y-99320000D02*
X185240000Y-98820000D01*
X175079000Y-99080000D02*
X185000000Y-99080000D01*
X175079000Y-99080000D02*
X175079000Y-88960000D01*
X178039000Y-99080000D02*
X178039000Y-88960000D01*
X182940000Y-99080000D02*
X182940000Y-88960000D01*
X184440000Y-99080000D02*
X184440000Y-88960000D01*
X185000000Y-99080000D02*
X185000000Y-88960000D01*
X181363000Y-92747000D02*
X181409000Y-92794000D01*
X181579000Y-92554000D02*
X181614000Y-92589000D01*
X179065000Y-90450000D02*
X179101000Y-90485000D01*
X179271000Y-90245000D02*
X179317000Y-90292000D01*
X175079000Y-88960000D02*
X185000000Y-88960000D01*
X179656001Y-98054999D02*
G75*
G03*
X181023042Y-98055426I684000J1534992D01*
G01*
X178805001Y-95836001D02*
G75*
G03*
X178804574Y-97203042I1534992J-684000D01*
G01*
X181874999Y-97204000D02*
G75*
G03*
X182020252Y-96491195I-1535000J683999D01*
G01*
X182019999Y-96520000D02*
G75*
G03*
X181874755Y-95836682I-1679999J0D01*
G01*
X181024000Y-94985000D02*
G75*
G03*
X179656958Y-94984574I-684000J-1535000D01*
G01*
X182020000Y-91520000D02*
G75*
G03*
X182020000Y-91520000I-1680000J0D01*
G01*
%TD*%
M02*
